<?xml version="1.0" encoding="utf-8"?>
<!-- Generator: Adobe Illustrator 21.0.2, SVG Export Plug-In . SVG Version: 6.00 Build 0)  -->
<!DOCTYPE svg PUBLIC "-//W3C//DTD SVG 1.1//EN" "http://www.w3.org/Graphics/SVG/1.1/DTD/svg11.dtd">
<svg version="1.1" xmlns="http://www.w3.org/2000/svg" xmlns:xlink="http://www.w3.org/1999/xlink" x="0px" y="0px"
	 viewBox="0 0 1920 1080" style="enable-background:new 0 0 1920 1080;" xml:space="preserve">
<style type="text/css">
	.st0{display:none;}
	.st1{fill:#FFFF00;}
	.st2{stroke:#000000;stroke-miterlimit:10;}
	.st3{fill:#FFFFFF;}
	.st4{fill:#FFFFFF;stroke:#000000;stroke-width:1.9887;stroke-miterlimit:10;}
	.st5{fill:none;stroke:#000000;stroke-width:1.9887;stroke-miterlimit:10;}
	.st6{fill:none;stroke:#000000;stroke-width:2;stroke-miterlimit:10;}
	.st7{stroke:#30003B;stroke-width:0.9944;stroke-miterlimit:10;}
	.st8{fill:#D0FFFF;stroke:#000000;stroke-miterlimit:10;}
	.st9{fill:#FFF2B3;stroke:#000000;stroke-width:3;stroke-miterlimit:10;}
	.st10{fill:#FFCD7A;}
	.st11{fill:#FF0015;stroke:#000000;stroke-miterlimit:10;}
	.st12{fill:none;stroke:#000000;stroke-miterlimit:10;}
	.st13{fill:#00E7DE;stroke:#000000;stroke-miterlimit:10;}
	.st14{display:inline;}
	.st15{display:inline;fill:none;stroke:#FFFFFF;stroke-miterlimit:10;}
</style>
<g id="Layer_1" class="st0">
	
		<image style="display:inline;overflow:visible;" width="1080" height="1920" xlink:href="../../Screenshot_2017-05-28-19-56-15.png"  transform="matrix(1 0 0 1 492.8571 -401.9524)">
	</image>
</g>
<g id="baseshad">
</g>
<g id="kidbase">
</g>
<g id="kid">
</g>
<g id="Layer_8">
</g>
<g id="crown">
	<g>
		<path class="st1" d="M1423.6,960c0,0-55.9,0.3-4.8,26.3c-2.5-1-50.3-20-8.2,21.3l-61.3-40.5c0,0-14.9-42.3,25.1-70.5l67-0.3
			c0,0-66.4,13.2-12.7,31.7C1428.8,928.1,1377.2,937,1423.6,960z"/>
		<path class="st2" d="M1349.2,966.8c0,0-14.9-42.3,25.1-70.5C1374.3,896.3,1386,952.8,1349.2,966.8z"/>
		<g>
			<path d="M1374.8,895.1c22.2-0.2,44.4-0.3,66.6-0.3l12.5,0l-12.2,2.5c-5.3,1.1-10.6,2.5-15.8,4.3c-2.6,0.9-5.1,1.9-7.6,3
				c-2.4,1.2-4.8,2.5-6.7,4.1c-0.9,0.8-1.8,1.8-2.3,2.8c-0.5,1-0.5,2.1-0.2,3.2c0.4,1.1,1.2,2,2.1,2.9c0.9,0.9,2,1.7,3.1,2.4
				c4.5,2.9,9.7,4.9,14.8,6.7l3.7,1.3l-3.9,0.7c-4.6,0.9-9.2,2.1-13.5,3.9c-2.2,0.9-4.3,1.9-6.1,3.3c-1.8,1.3-3.4,3-3.9,5
				c-0.2,1-0.2,2,0.1,3c0.3,1,0.8,2,1.5,2.9c1.3,1.8,3.1,3.4,4.9,4.8c3.7,2.8,7.9,5.2,12.1,7.3l3.1,1.6l-3.5,0.1
				c-4.8,0.1-9.6,0.4-14.3,1.3c-2.3,0.4-4.7,1-6.8,1.9c-1.1,0.5-2.1,1-2.9,1.7c-0.8,0.7-1.4,1.6-1.5,2.6c-0.1,1,0.3,2,0.9,3
				c0.6,1,1.4,1.8,2.2,2.7c1.7,1.7,3.6,3.1,5.6,4.5c4,2.7,8.2,5,12.5,7.2l-0.6,1.2c-4.4-1.8-8.9-3.3-13.6-4.4
				c-2.3-0.5-4.7-0.9-7-0.9c-1.1,0-2.3,0.2-3.2,0.7c-0.9,0.5-1.2,1.5-1.1,2.6c0.1,1.1,0.6,2.2,1.1,3.2c0.5,1,1.1,2.1,1.8,3
				c1.3,2,2.8,3.8,4.3,5.7c3.1,3.6,6.4,7.1,9.8,10.4l-0.6,0.8l-61.2-40.7l-0.2-0.1l0.1-0.2l25.4-70.4L1374.8,895.1z M1373.9,897.6
				l-24.5,69.3l-0.1-0.3l61.5,40.3l-0.6,0.8c-3.4-3.4-6.8-6.8-9.9-10.4c-1.6-1.8-3.1-3.7-4.4-5.7c-0.7-1-1.3-2-1.9-3.1
				c-0.5-1.1-1-2.3-1.2-3.6c-0.1-0.7,0-1.4,0.2-2c0.3-0.7,0.8-1.3,1.4-1.6c0.6-0.4,1.2-0.6,1.9-0.7c0.6-0.1,1.3-0.2,1.9-0.2
				c2.5-0.1,4.9,0.4,7.3,0.9c4.7,1.1,9.3,2.6,13.8,4.4l-0.6,1.2c-4.3-2.2-8.6-4.5-12.7-7.3c-2-1.4-4-2.8-5.8-4.6
				c-0.9-0.9-1.7-1.8-2.4-2.9c-0.7-1.1-1.3-2.4-1.1-3.9c0.1-0.7,0.3-1.4,0.6-2.1c0.4-0.6,0.8-1.1,1.3-1.6c1-0.9,2.2-1.5,3.3-2
				c2.3-1,4.7-1.6,7.1-2.1c4.8-0.9,9.7-1.3,14.6-1.4l-0.4,1.7c-4.3-2.1-8.6-4.5-12.5-7.4c-1.9-1.5-3.8-3.1-5.3-5.2
				c-0.7-1-1.4-2.2-1.8-3.4c-0.4-1.3-0.5-2.7-0.1-4c0.3-1.3,1-2.5,1.9-3.5c0.8-1,1.8-1.8,2.8-2.6c2-1.5,4.2-2.6,6.5-3.5
				c4.5-1.9,9.2-3.2,14-4.1l-0.2,2c-5.2-1.8-10.5-3.8-15.3-6.8c-1.2-0.8-2.4-1.6-3.4-2.7c-1.1-1-2.1-2.2-2.7-3.8
				c-0.6-1.5-0.5-3.4,0.2-4.9c0.7-1.5,1.7-2.6,2.8-3.6c2.2-2,4.7-3.3,7.3-4.6c2.5-1.2,5.2-2.2,7.8-3.2c5.3-1.8,10.6-3.3,16.1-4.5
				l0.3,2.5c-22.1,0.2-44.1,0.2-66.2,0.2L1373.9,897.6z"/>
		</g>
		<path class="st3" d="M1423.7,898.1l-43.2,1c0,0-1.4,3.3,2.4,7s15.3-1.5,22.8-3.9S1423.7,898.1,1423.7,898.1z"/>
		<path class="st3" d="M1406,912.1c0,0-8.2,7.5,6.2,14.2c0,0-21.5-8.2-24.9,5c-3.5,13.2-14.2,32.8-22.8,37.1
			c-8.7,4.4,27.3,23.5,27.3,23.5s-11.5-13.8,4.8-13.4c0,0-7.1-16.7,9-19.8c0,0-18.2-19.6,15.1-30
			C1420.6,928.6,1405.2,920,1406,912.1z"/>
	</g>
</g>
<g id="Layer_10">
	<path class="st4" d="M1299.2,773.6c0,0,20.9-22.4,0-92.5l-11.9-4.5l4.5-14.9c0,0,19.4-6,7.5-16.4l28.3-95.5c0,0,1.5-17.9-4.5-26.8
		c0,0,17.9-80.5-68.6-74.6s-210.3,3-210.3,3s-110.4,0-125.3-1.5l-40.3,1.5c0,0-8.9,19.4-82,7.5c0,0-28.3,34.3-28.3,43.3
		c0,8.9,16.4-1.5,0,43.3c0,0,35.8-1.5,8.9,25.4c0,0,11.9,16.4-4.5,13.4c-16.4-3-13.4,1.5-13.4,1.5s3,14.9-3,26.8
		c0,0,8.9,22.4,8.9,37.3s67.1,20.9,67.1,20.9s49.2,6,73.1,44.7s14.9-70.1,98.4,7.5l21.2,23.5c3.1,3.4,8.2,3.8,11.8,1
		c13.9-11,48.5-32.5,75.2,1c1.3,1.7,3.7,2.1,5.5,1c5.6-3.5,16.6-12,21.7-26.8c1.4-4.2,5.4-7,9.8-6.8c8.2,0.3,21.6,0.6,33.8-0.4
		c19.4-1.5,17.9,17.9,52.2,35.8C1269.4,769.1,1270.9,776.5,1299.2,773.6z"/>
	<path class="st5" d="M1141.1,569.2c0,0-80.5-3,47.7-19.4c0,0,17.9-14.9-49.2-4.5c0,0-13.4,8.9-25.4,10.4s37.3-14.9,4.5-26.8
		s-7.5-38.8-7.5-38.8s-20.9-38.7-67.1-38.8c-46.2-0.1-179-4.5-180.5,20.9c-1.5,24.9,22.9-26.4,101.4,52.1c3,3,6.7,5.1,10.7,6.1
		c10.9,2.9,34,9.8,50.5,20.9c22.4,14.9,10.4,59.7,61.1,23.9C1087.4,575.2,1121.7,557.3,1141.1,569.2z"/>
	<path class="st5" d="M1197.5,558.9c0,0,82.3-22.4,71.3,21.3c0,0-1.6,5.2,12.8,4.7c2.2-0.1,4.3,1.3,5,3.4c0.8,2.4,1.2,6.3,0.7,13
		c-0.1,1.7,0.6,3.4,2,4.5c0.7,0.5,1.7,1,3,1.5"/>
	<path class="st5" d="M1132.4,666.6c0,0-25.3,8.6-25.3-8.2s24.6-9.6,26-5.4C1134.6,657.4,1136.7,657,1132.4,666.6z"/>
	<path class="st6" d="M1067.1,760.8c0,0,34.1-2.5,36.6,16.5c0,0-7.2,23-38.7,2.9C1065,780.2,1054.6,769.4,1067.1,760.8z"/>
	<path class="st5" d="M1261.6,726.6c0,0-16.8-7.1-3.2-14.6"/>
	<path class="st5" d="M792.3,472.3c0,0,3.1-1,7.1,22.4c4.1,23.4,7.1-8.1,9.2,10.2c2,18.3,6.1,11.2,9.2,31.6
		c3.1,20.4,7.1-21.4,19.3,14.3c0,0,13.2,3.1,14.3,8.1c1,5.1,7.1,9.2,18.3,1c11.2-8.1,18.3,13.2,24.4,18.3
		c6.1,5.1,20.4,8.1,21.4,14.3c1,6.1,26.5-4.1,31.6,4.1c5.1,8.1,2,24.4,15.3,28.5c13.2,4.1,9.2-1,17.3,3.1c8.1,4.1,19.3,1,22.4,1
		s-12.2-6.1,14.3-5.1c26.5,1,26.5,0,32.6-3.1c6.1-3.1,14.3,2,14.3,2l10.2-5.1c0,0,7.1,0,10.2,0c3.1,0,18.3-8.1,18.3-8.1
		s4.1-2,12.2-1s30.6,0,37.7,2c7.1,2,27.5,12.2,36.7,14.3c9.2,2,29.5,6.1,33.6,9.2c4.1,3.1,9.2,24.4,14.3,28.5
		c5.1,4.1,27.5,12.2,27.5,12.2l11.2-10.2l12.2-12.2c0,0,13.2-37.7,11.2-50.9c-2-13.2-1-12.2-2-18.3s-6.1-13.2-1-17.3
		c5.1-4.1,5.1-6.1,8.1-7.1c3.1-1,10.2-10.2,11.2-16.3c1-6.1,2-14.3-2-15.3c-4.1-1-8.1-9.2-6.1-12.2c2-3.1,7.1-18.3,7.1-18.3l-2-11.2
		l-2-21.4"/>
	<path class="st7" d="M1099.9,696.3c0,0-10.2,18.3-43.8-12.2c-28.2-25.6-49.2-10.4-55.3-4.8c-1.1,1-2.7,1.3-4.1,0.6
		c-5.4-2.6-18.8-8.2-27.3-3.3c-0.9,0.6-2.1,0.1-2.4-1c-1.1-4.5-4.9-13.3-17.9-11.8c-17.3,2-41.8-3.1-41.8-3.1s29.5-3.1,35.6,0
		c0,0-24.5-8.8-34.6-9.2c-1.1,0-2.1,0.4-2.8,1.3c-1.4,1.8-5.6,4.5-16.6,0.8c-15.3-5.1-24.4-18.3-36.7-25.5s-27.5-8.1-27.5-14.3
		c0-6.1,3.1-12.2-3.1-14.3c-6.1-2-10.2-10.2-10.2-10.2l-9.7-16.5c-0.3-0.5-0.5-1.1-0.5-1.7v-1.4c0-0.9,0.9-1.4,1.7-1.1
		c4.2,1.7,15.4,5.7,22.5,4.2c1.6-0.3,3.2,0.2,4.4,1.3c3.5,3.2,11.9,9.5,26.5,13.2c20.4,5.1,26.5-3.1,26.5,2c0,5.1-1-1,6.1,12.2
		c3.8,7.1,7,13.5,9.2,18.1c0.7,1.5,3,1.1,3.2-0.6c0.5-5.3,2.1-10.8,7-5.3c8.1,9.2,18.3,5.1,22.4,10.2c4.1,5.1,13.2,3.1,15.3,9.2
		c2,6.1,39.7,1,46.8,2c7.1,1,19.3,2,23.4,6.1s-6.1,1-4.1,6.1c2,5.1,11.2,0,2,5.1c-9.2,5.1,15.3-5.1,16.3,2c0.4,3.1,2.3,5.1,4.2,6.3
		c1.5,1,3.3-0.7,2.5-2.3c-2.5-5.1-4.8-13.3,5.1-15c1.2-0.2,2.2-1.2,2.2-2.4c0.3-4.9,5-15.9,41.9-11c0,0,15.6,3.7,30.5-4.6
		s17.5,0.7,7.4,2.8c-10.1,2.2-28.5,6.1-27.4,7.9c1.1,1.8,1.8,4.2,2.8,6.4c1.1,2.2,1.1,3.3,0.4,5.3c-0.7,2-5.5,4.2-9.2,4.4
		c-3.7,0.2-20.4,1.3-20.4,1.3s8.3,7.7,9,9c0.7,1.3-5.7,5.7,1.1,8.8c6.8,3.1,20.1,14.2,14.9,16.2c-5.3,2-19.5,0.4-14.5,4.4
		c5,3.9,18.4-0.7,19.3,0.9C1101.6,694.3,1099.9,696.3,1099.9,696.3z"/>
	<path class="st7" d="M1283.2,768.3c0,0,15.2,12.8,14.6-19.5c-0.6-32.3,4.9-34.2-1.2-36c-6.1-1.8-23.8-12.2-31.7-9.8
		c-7.9,2.4-7.9,3-14,0.6c-6.1-2.4-18.3-7.9-23.8-11.6c-5.5-3.7-7.9-7.9-10.4-9.1c-2.4-1.2-20.7-3.7-7.3-7.3s14.6,3,16.5,3
		c1.8,0,18.3,0.6,22,0c3.7-0.6,13.4,0.6,20.7,4.3c7.3,3.7,20.7-2.4,25.6,4.9c4.9,7.3,7.3,18.3,8.5,23.2S1319.2,786.6,1283.2,768.3z"
		/>
	<path class="st7" d="M1124.6,694.5c0,0,7.3,1.8,30.5-14c0,0,12.8,12.2,26.2,9.1c13.4-3,18.9-11,18.9-11l-6.7-1.8c0,0,3.7-3,4.3-5.5
		c0.6-2.4,3-3.7,4.9-3.7c1.8,0,0.3-2.3,8.5,2.4c8.3,4.7,12.8,3.7,16.5,1.8c3.7-1.8,6.1-1.2,11,0c4.9,1.2,12.2,2.4,12.2,2.4
		s-13.4-5.5-19.5-9.1c-6.1-3.7-9.8-8.5-7.3-9.8c2.4-1.2,1.8,1.8,2.4-1.2c0.6-3,4.3-9.1-11.6-11c-15.9-1.8-11.6-2.4-17.7-4.3
		c-6.1-1.8-19.5-3.7-25-4.9c-5.5-1.2-13.4-14-17.1-14.6c-3.7-0.6-19.5-12.2-31.1-3.7c-11.6,8.5,5.5,0,11.6,2.4
		c6.1,2.4,10.4,0.6,11,6.1c0.6,5.5,5.5,12.8,2.4,17.7c-3,4.9-5.5,6.7-5.5,12.8c0,6.1,1.8,12.8,1.8,12.8l-7.3,3c0,0-7.3,1.2-7.9,3
		s4.3,1.8,6.7,3.7c2.4,1.8,4.3,1.8,2.4,4.3c-1.8,2.4-14,8.5-14,8.5L1124.6,694.5z"/>
	<path d="M814.5,712.5c0,0,2.7-5.4,0-10.9c-2.7-5.4-7.2,1.8-7.2,1.8L814.5,712.5z"/>
	<polygon points="762,685.4 771.9,679 767.4,673.6 761.1,679 	"/>
	<polygon points="746.3,768.7 748.1,758.8 734.6,750.7 730.1,753.4 725.6,753.4 722.9,757.9 736.4,769.6 	"/>
	<path d="M973,774.1c0,0-0.9-2.7,2.7-8.1c3.6-5.4-3.6-10-7.2-7.2c-3.6,2.7-6.3-1.8-7.2,3.6c-0.9,5.4,0.9,2.7,6.3,7.2
		C973,774.1,973,774.1,973,774.1z"/>
	<path d="M1236.5,852c0,0,14.5,8.1,8.2-10S1231,850.2,1236.5,852z"/>
	<path d="M1065.3,833.9c0,0,0.9-11.8-3.6-8.1C1057.2,829.4,1065.3,833.9,1065.3,833.9z"/>
	<path d="M1179.4,830.3c0,0-7.2-6.3-7.2-0.9C1172.2,834.8,1179.4,830.3,1179.4,830.3z"/>
	<path d="M812.7,799.5l0.9-3.6c0,0-9.1-2.7-8.1,1.8C806.4,802.2,812.7,799.5,812.7,799.5z"/>
</g>
<g id="Layer_11">
	<g>
		<path class="st4" d="M377.2,600.3c0,0-22.4,20.9-92.5,0l-4.5-11.9l-14.9,4.5c0,0-6,19.4-16.4,7.5l-95.5,28.3
			c0,0-17.9,1.5-26.8-4.5c0,0-80.5,17.9-74.6-68.6s3-210.3,3-210.3s0-110.4-1.5-125.3l1.5-40.3c0,0,19.4-8.9,7.5-82
			c0,0,34.3-28.3,43.3-28.3s-1.5,16.4,43.3,0c0,0-1.5,35.8,25.4,8.9c0,0,16.4,11.9,13.4-4.5s1.5-13.4,1.5-13.4s14.9,3,26.8-3
			c0,0,22.4,8.9,37.3,8.9s20.9,67.1,20.9,67.1s6,49.2,44.7,73.1s-70.1,14.9,7.5,98.4l23.5,21.2c3.4,3.1,3.8,8.2,1,11.8
			c-11,13.9-32.5,48.5,1,75.2c1.7,1.3,2.1,3.7,1,5.5c-3.5,5.6-12,16.6-26.8,21.7c-4.2,1.4-7,5.4-6.8,9.8c0.3,8.2,0.6,21.6-0.4,33.8
			c-1.5,19.4,17.9,17.9,35.8,52.2S380.2,572,377.2,600.3z"/>
		<path class="st5" d="M172.9,442.2c0,0-3-80.5-19.4,47.7c0,0-14.9,17.9-4.5-49.2c0,0,8.9-13.4,10.4-25.4
			c1.5-11.9-14.9,37.3-26.8,4.5s-38.8-7.5-38.8-7.5S55.2,391.5,55,345.3s-4.5-179,20.9-180.5c24.9-1.5-26.4,22.9,52.1,101.4
			c3,3,5.1,6.7,6.1,10.7c2.9,10.9,9.8,34,20.9,50.5c14.9,22.4,59.7,10.4,23.9,61.1C178.8,388.5,160.9,422.8,172.9,442.2z"/>
		<path class="st5" d="M162.5,498.6c0,0-22.4,82.3,21.3,71.3c0,0,5.2-1.6,4.7,12.8c-0.1,2.2,1.3,4.3,3.4,5c2.4,0.8,6.3,1.2,13,0.7
			c1.7-0.1,3.4,0.6,4.5,2c0.5,0.7,1,1.7,1.5,3"/>
		<path class="st5" d="M270.3,433.5c0,0,8.6-25.3-8.2-25.3s-9.6,24.6-5.4,26C261,435.7,260.6,437.8,270.3,433.5z"/>
		<path class="st5" d="M75.9,93.4c0,0-1,3.1,22.4,7.1c23.4,4.1-8.1,7.1,10.2,9.2c18.3,2,11.2,6.1,31.6,9.2
			c20.4,3.1-21.4,7.1,14.3,19.3c0,0,3.1,13.2,8.1,14.3c5.1,1,9.2,7.1,1,18.3c-8.1,11.2,13.2,18.3,18.3,24.4
			c5.1,6.1,8.1,20.4,14.3,21.4c6.1,1-4.1,26.5,4.1,31.6c8.1,5.1,24.4,2,28.5,15.3c4.1,13.2-1,9.2,3.1,17.3c4.1,8.1,1,19.3,1,22.4
			c0,3.1-6.1-12.2-5.1,14.3c1,26.5,0,26.5-3.1,32.6c-3.1,6.1,2,14.3,2,14.3l-5.1,10.2c0,0,0,7.1,0,10.2s-8.1,18.3-8.1,18.3
			s-2,4.1-1,12.2c1,8.1,0,30.6,2,37.7s12.2,27.5,14.3,36.7c2,9.2,6.1,29.5,9.2,33.6c3.1,4.1,24.4,9.2,28.5,14.3
			c4.1,5.1,12.2,27.5,12.2,27.5l-10.2,11.2l-12.2,12.2c0,0-37.7,13.2-50.9,11.2c-13.2-2-12.2-1-18.3-2c-6.1-1-13.2-6.1-17.3-1
			c-4.1,5.1-6.1,5.1-7.1,8.1c-1,3.1-10.2,10.2-16.3,11.2c-6.1,1-14.3,2-15.3-2s-9.2-8.1-12.2-6.1c-3.1,2-18.3,7.1-18.3,7.1l-11.2-2
			l-21.4-2"/>
		<path class="st7" d="M300,401c0,0,18.3-10.2-12.2-43.8c-25.6-28.2-10.4-49.2-4.8-55.3c1-1.1,1.3-2.7,0.6-4.1
			c-2.6-5.4-8.2-18.8-3.3-27.3c0.6-0.9,0.1-2.1-1-2.4c-4.5-1.1-13.3-4.9-11.8-17.9c2-17.3-3.1-41.8-3.1-41.8s-3.1,29.5,0,35.6
			c0,0-8.8-24.5-9.2-34.6c0-1.1,0.4-2.1,1.3-2.8c1.8-1.4,4.5-5.6,0.8-16.6c-5.1-15.3-18.3-24.4-25.5-36.7
			c-7.1-12.2-8.1-27.5-14.3-27.5c-6.1,0-12.2,3.1-14.3-3.1c-2-6.1-10.2-10.2-10.2-10.2l-16.5-9.7c-0.5-0.3-1.1-0.5-1.7-0.5h-1.4
			c-0.9,0-1.4,0.9-1.1,1.7c1.7,4.2,5.7,15.4,4.2,22.5c-0.3,1.6,0.2,3.2,1.3,4.4c3.2,3.5,9.5,11.9,13.2,26.5
			c5.1,20.4-3.1,26.5,2,26.5c5.1,0-1-1,12.2,6.1c7.1,3.8,13.5,7,18.1,9.2c1.5,0.7,1.1,3-0.6,3.2c-5.3,0.5-10.8,2.1-5.3,7
			c9.2,8.1,5.1,18.3,10.2,22.4c5.1,4.1,3.1,13.2,9.2,15.3c6.1,2,1,39.7,2,46.8c1,7.1,2,19.3,6.1,23.4c4.1,4.1,1-6.1,6.1-4.1
			c5.1,2,0,11.2,5.1,2s-5.1,15.3,2,16.3c3.1,0.4,5.1,2.3,6.3,4.2c1,1.5-0.7,3.3-2.3,2.5c-5.1-2.5-13.3-4.8-15,5.1
			c-0.2,1.2-1.2,2.2-2.4,2.2c-4.9,0.3-15.9,5-11,41.9c0,0,3.7,15.6-4.6,30.5c-8.3,14.9,0.7,17.5,2.8,7.4c2.2-10.1,6.1-28.5,7.9-27.4
			s4.2,1.8,6.4,2.8c2.2,1.1,3.3,1.1,5.3,0.4c2-0.7,4.2-5.5,4.4-9.2c0.2-3.7,1.3-20.4,1.3-20.4s7.7,8.3,9,9c1.3,0.7,5.7-5.7,8.8,1.1
			c3.1,6.8,14.2,20.1,16.2,14.9c2-5.3,0.4-19.5,4.4-14.5s-0.7,18.4,0.9,19.3C297.9,402.7,300,401,300,401z"/>
		<path class="st7" d="M371.9,584.3c0,0,12.8,15.2-19.5,14.6c-32.3-0.6-34.2,4.9-36-1.2s-12.2-23.8-9.8-31.7c2.4-7.9,3-7.9,0.6-14
			c-2.4-6.1-7.9-18.3-11.6-23.8c-3.7-5.5-7.9-7.9-9.1-10.4s-3.7-20.7-7.3-7.3c-3.7,13.4,3,14.6,3,16.5s0.6,18.3,0,22
			c-0.6,3.7,0.6,13.4,4.3,20.7c3.7,7.3-2.4,20.7,4.9,25.6c7.3,4.9,18.3,7.3,23.2,8.5C319.5,605,390.2,620.3,371.9,584.3z"/>
		<path class="st7" d="M298.2,425.7c0,0,1.8,7.3-14,30.5c0,0,12.2,12.8,9.1,26.2s-11,18.9-11,18.9l-1.8-6.7c0,0-3,3.7-5.5,4.3
			c-2.4,0.6-3.7,3-3.7,4.9c0,1.8-2.3,0.3,2.4,8.5c4.7,8.3,3.7,12.8,1.8,16.5s-1.2,6.1,0,11S278,552,278,552s-5.5-13.4-9.1-19.5
			c-3.7-6.1-8.5-9.8-9.8-7.3s1.8,1.8-1.2,2.4c-3,0.6-9.1,4.3-11-11.6c-1.8-15.9-2.4-11.6-4.3-17.7c-1.8-6.1-3.7-19.5-4.9-25
			c-1.2-5.5-14-13.4-14.6-17.1s-12.2-19.5-3.7-31.1c8.5-11.6,0,5.5,2.4,11.6c2.4,6.1,0.6,10.4,6.1,11c5.5,0.6,12.8,5.5,17.7,2.4
			c4.9-3,6.7-5.5,12.8-5.5c6.1,0,12.8,1.8,12.8,1.8l3-7.3c0,0,1.2-7.3,3-7.9c1.8-0.6,1.8,4.3,3.7,6.7c1.8,2.4,1.8,4.3,4.3,2.4
			c2.4-1.8,8.5-14,8.5-14L298.2,425.7z"/>
	</g>
</g>
<g id="shadow">
	<g>
		<path class="st8" d="M1216.1,959.9c0,0-23-6.6-31.7-7.7c-8.7-1.1-6.6-1.1-23-1.1s-77.6,1.1-86.4-1.1c-8.7-2.2-53.6-1.1-53.6-1.1
			s12-12-38.3-1.1c0,0-94.1-16.4-133.4-7.7l33.9-10.9l-17.5-3.6l289.8-7.4l52.5-1.1l-1.1,7.7L1216.1,959.9z"/>
		<path class="st9" d="M1193.6,924.5l-22.5-1.1c0,0,6.4,20.4-46.2,10.7c0,0-14-1.1-26.8-3.2c-12.9-2.1-29,0-29,0s-18.2,7.5-61.2-2.1
			l-86.9-1.1c0,0-41.9-5.4-74.1,0c0,0-20.4,9.7-27.9,1.1l-3.3-2.6c-1.3-1.1-2.2-2.6-2.4-4.3l-3.6-28.8c-0.2-1.6,0.9-3.1,2.5-3.4
			l3.6-0.6l3.3-7.5c0.6-1.4,1.8-2.4,3.3-2.9l8-2.3c2.5-0.7,5,1,5.3,3.5l3.8,35.9l77.3-22.5l1.1-6.4c0,0,63.3-11.8,80.5-7.5l23.6-3.2
			c0,0,4.3-26.8,40.8-12.9c0,0,103,33.3,105.2,40.8l0.2,3.6l17.4,0.3c0,0-10.4-38.2,34.1-44.5l8.3,7c0,0,9.2,24,31.3,6.3
			c0,0,38.5,27.5,8.8,60.3C1236.6,971.8,1193.6,924.5,1193.6,924.5z"/>
		<path class="st10" d="M1235.4,919.9c0,0-9.5,14.6,20.5,9.7c1.5-0.2,2.7-1.3,3.2-2.8c0.4-1.3,0.7-2.9,0.2-4.4c-0.7-2-2.9-3.1-5-2.6
			l-7.6,2.1C1246.7,921.9,1236.7,925.2,1235.4,919.9z"/>
		<path class="st11" d="M1165.9,919.7c0,0,0.7-10.3,1.3-16.5c0.5-6.3-108.1-41.1-108.1-41.1s-19.4,26.4-2.8,59l88.4,9.3
			L1165.9,919.7z"/>
		<path d="M1258.9,880.5c0,0,0.7-28.6,31.9-22.6c0,0-41.2,12-10,21.9c0,0,10,2.7,14-11.3c0,0,5.3,21.3,2,27.9l-5.3,6.6
			c0,0,23.3-22.6,29.2,13.3c0,0-11.3-19.3-22.6-7.3c0,0,14-3.3,10.6,23.9c0,0-1.3-12.6-8.6-11.3c0,0-14.6,18.6,12,24.6
			c0,0-6.6,7.3-13.3,3.3c0,0-0.7,6.6,9.3,5.3c0,0-6.6,14.6-17.9-1.3c0,0-39.6,7.7-49.2,1.3c0,0-8-4-5.3,2c0,0-34.6-3.3-39.9-25.9
			c-5.3-22.6,0.7-3.5,0.7-3.5s4.2,6,10.2,8.6c0,0-3.7-1.2,2.3-4.5c0,0,5.3,6.6,17.3,9.3c0,0,11.7-9.6,25.3-5.3l6.6-24.6l-8,4
			c0,0,4-16,10.6-17.3c0,0-19.9,0-19.9,9.3c0,0-0.7-10.6,4-14.6c0,0,11.3,0.7,19.3-5.3h-6.6L1258.9,880.5z"/>
		<path class="st12" d="M1211.1,873.9c0,0-5.3,6,2,10.6C1213.1,884.5,1207.8,873.2,1211.1,873.9z"/>
		<path class="st13" d="M1013,918.4c0,0-8.6-6.6-9.3-19.3c-0.7-12.6,2.5-15.5-5.5-19.7c-8-4.2-80.5,7.5-80.5,7.5s0.9,14.8,7.6,21.5
			l-3.3,15.3L1013,918.4z"/>
		<circle cx="1035.3" cy="871.5" r="3"/>
		<path class="st3" d="M1235.7,918.4c0,0-9.5,14.6,20.5,9.7c1.5-0.2,2.7-1.3,3.2-2.8c0.4-1.3,0.7-2.9,0.2-4.4c-0.7-2-2.9-3.1-5-2.6
			l-7.6,2.1C1247,920.4,1237,923.7,1235.7,918.4z"/>
		<path class="st9" d="M1133.7,908.5c0,0-30,5.4-22.8-28.7l-8.1-2.7c0,0-33.1,40.3,32.2,53.7"/>
		<path class="st11" d="M1170.8,928.2c0,0,1.7-15.8-10.2-15.8c-12,0-26.6-4.7-26.6-4.7s-6.6,14.6-5.3,22.6
			C1130,938.3,1168.4,940.7,1170.8,928.2z"/>
		<path d="M1124.7,931l-17.3-9.3l-6-4.7l-14-10l-0.7,7.3c0,0-21.3,1.3-31.9-1.3c0,0-12,4-16.6,6.6c-4.7,2.7-17.9-4.7-17.9-4.7
			l-15.3-15.3c0,0-6.2,1.1,2.7,16c0,0,5.3,9.3-50.5-1.3c0,0-17.9-4-34.6,6l-2.1,7.3c0,0,70.4-2.1,89.2,1.3
			c18.8,3.5,50.5,9.3,64.5,0.7l57.4,5.6L1124.7,931z"/>
		<path d="M1169.2,930.8c0.8-0.9,0.4-2.4-0.7-2.9c-3.8-1.6-11.9-4.2-15.8-0.2c-4.7,4.7-14.2-3.7-16.2-5.6c-0.3-0.3-0.6-0.4-1-0.5
			l-3.9-0.6c-1.1-0.2-2,0.6-2.1,1.7l-0.6,6.3c-0.1,0.8,0.4,1.6,1.2,1.9C1136.1,932.9,1160.5,940.6,1169.2,930.8z"/>
	</g>
</g>
<g id="Layer_2" class="st0">
	<path class="st14" d="M1387,274.7c-90.5,34.8-172.3,95.1-203.3,119.4c47.6-12.9,84.8-25.7,96.9-30c1.6-0.6,3.2,1,2.5,2.6
		l-29.8,73.4l-470.9,51l-56.3-78.8c-1-1.4,0.3-3.3,2-2.8c31.7,9.6,92.1,15.7,169.5,17.3c-3.5-52.8,6.1-64.3,15-65
		c9.6-0.7,10.3-17.7,3.7-16.3c-3.9,0.9-9.5-2.6-13.6-5.6c-4.6-3.4-7.2-9.1-6.3-14.8c2.4-16.3,28.8-17.4,28.8-17.4l6.2-9.8
		c2.5-4,7-6.2,11.7-5.9l11.6,0.9c12.7,1,16,10.9,16.8,17.6c0.5,3.7,3.2,6.7,6.9,7.5l6.2,1.3c5.4,1.2,9.9,5.2,11.5,10.5
		c9.3,30-31.8,28.1-31.8,28.1s-7.4,19.2,7.4,15.5c12-3,13.8,37.8,14,53.3c1.3,0,2.5-0.1,3.8-0.1c53.1-1,113.9-12.6,166.4-25.6
		c56.9-50.1,208.8-128.2,222.2-131.1C1392.2,267.3,1387,274.7,1387,274.7z"/>
	<path class="st14" d="M1364.5,535.3c-11-2-80-18-95-18s-81-2-92-7c-11-5-24,3-24,3s-63,4-86,13s-44,23-47,20s-9-10-9-7
		c0,0.7-6.3,1.9-16.2,3.3c-2.1,9.6-5.4,16.6-10.6,15.3c-14.8-3.7-7.4,15.5-7.4,15.5s41.1-1.9,31.8,28.1c-1.6,5.3-6,9.3-11.5,10.5
		l-6.2,1.3c-3.6,0.8-6.4,3.8-6.9,7.5c-0.8,6.7-4.2,16.6-16.8,17.6l-11.6,0.9c-4.7,0.4-9.2-1.9-11.7-5.9l-6.2-9.8
		c0,0-26.3-1.1-28.8-17.4c-0.9-5.7,1.7-11.3,6.3-14.8c4-3,9.7-6.4,13.6-5.6c6.7,1.5,5.9-15.5-3.7-16.3c-5-0.4-10.3-4.2-13.3-17
		c-13.5,1.5-22.9,2.5-22.9,2.5s-2,6-9,7s-88,1-76,5s87,5,67,21c0,0-64,0-78,8s-49,1-50-9s2,1,12,1s-8-15,5-14s21-3,14-7s-23-9-17-22
		s-1,21,32,14c0,0,6-20,10-19s-7-16-13-5s-2,18-2,18s-14,13-5-17c0,0-17-21-7-21s11,14,20,6s-18.2-41.4-18.2-41.4l468.2-44.5l-10,11
		c0,0-5,10,31,8l35,43l-1,9l-19,1l92,18C1370.5,525.3,1375.5,537.3,1364.5,535.3z"/>
	<path class="st14" d="M520,538.1l970.8-113.7c3.3-0.4,5.1-3.9,3.6-6.9l0,0c-0.9-1.7-2.8-2.7-4.7-2.5L519.5,526.4
		c-2,0.2-3.6,1.7-4,3.6l-0.5,2.3C514.2,535.5,516.8,538.4,520,538.1z"/>
	<line class="st15" x1="785.7" y1="495.8" x2="1239.3" y2="443.8"/>
</g>
</svg>
