<?xml version="1.0" encoding="utf-8"?>
<!-- Generator: Adobe Illustrator 21.0.2, SVG Export Plug-In . SVG Version: 6.00 Build 0)  -->
<!DOCTYPE svg PUBLIC "-//W3C//DTD SVG 1.1//EN" "http://www.w3.org/Graphics/SVG/1.1/DTD/svg11.dtd">
<svg version="1.1" xmlns="http://www.w3.org/2000/svg" xmlns:xlink="http://www.w3.org/1999/xlink" x="0px" y="0px"
	 viewBox="0 0 1920 1080" style="enable-background:new 0 0 1920 1080;" xml:space="preserve">
<style type="text/css">
	.st0{display:none;}
	.st1{fill:#D0FFFF;stroke:#000000;stroke-miterlimit:10;}
	.st2{fill:#FFF2B3;stroke:#000000;stroke-width:3;stroke-miterlimit:10;}
	.st3{fill:#FFCD7A;}
	.st4{fill:#FF0015;stroke:#000000;stroke-miterlimit:10;}
	.st5{fill:none;stroke:#000000;stroke-miterlimit:10;}
	.st6{fill:#00E7DE;stroke:#000000;stroke-miterlimit:10;}
	.st7{fill:#FFFFFF;}
	.st8{fill:#FFFF00;}
	.st9{stroke:#000000;stroke-miterlimit:10;}
	.st10{display:inline;}
	.st11{display:inline;fill:none;stroke:#FFFFFF;stroke-miterlimit:10;}
</style>
<g id="Layer_1" class="st0">
	
		<image style="display:inline;overflow:visible;" width="1080" height="1920" xlink:href="../../Screenshot_2017-05-28-19-56-15.png"  transform="matrix(1 0 0 1 492.8571 -401.9524)">
	</image>
</g>
<g id="Layer_7">
	<path class="st1" d="M1092.5,1018.1c0,0-23-6.6-31.7-7.7c-8.7-1.1-6.6-1.1-23-1.1c-16.4,0-77.6,1.1-86.4-1.1
		c-8.7-2.2-53.6-1.1-53.6-1.1s12-12-38.3-1.1c0,0-94.1-16.4-133.4-7.7l33.9-10.9l-17.5-3.6l289.8-7.4l52.5-1.1l-1.1,7.7
		L1092.5,1018.1z"/>
</g>
<g id="Layer_3">
	<path class="st2" d="M1070,982.7l-22.5-1.1c0,0,6.4,20.4-46.2,10.7c0,0-14-1.1-26.8-3.2c-12.9-2.1-29,0-29,0s-18.2,7.5-61.2-2.1
		l-86.9-1.1c0,0-41.9-5.4-74.1,0c0,0-20.4,9.7-27.9,1.1l-3.3-2.6c-1.3-1.1-2.2-2.6-2.4-4.3l-3.6-28.8c-0.2-1.6,0.9-3.1,2.5-3.4
		l3.6-0.6l3.3-7.5c0.6-1.4,1.8-2.4,3.3-2.9l8-2.3c2.5-0.7,5,1,5.3,3.5l3.8,35.9l77.3-22.5l1.1-6.4c0,0,63.3-11.8,80.5-7.5l23.6-3.2
		c0,0,4.3-26.8,40.8-12.9c0,0,103,33.3,105.2,40.8l0.2,3.6l17.4,0.3c0,0-10.4-38.2,34.1-44.5l8.3,7c0,0,9.2,24,31.3,6.3
		c0,0,38.5,27.5,8.8,60.3C1113,1030,1070,982.7,1070,982.7z"/>
</g>
<g id="Layer_5">
	<path class="st3" d="M1111.8,978c0,0-9.5,14.6,20.5,9.7c1.5-0.2,2.7-1.3,3.2-2.8c0.4-1.3,0.7-2.9,0.2-4.4c-0.7-2-2.9-3.1-5-2.6
		l-7.6,2.1C1123.1,980,1113.1,983.4,1111.8,978z"/>
	<path class="st4" d="M1042.3,977.9c0,0,0.7-10.3,1.3-16.5c0.5-6.3-108.1-41.1-108.1-41.1s-19.4,26.4-2.8,59l88.4,9.3L1042.3,977.9z
		"/>
	<path d="M1135.3,938.7c0,0,0.7-28.6,31.9-22.6c0,0-41.2,12-10,21.9c0,0,10,2.7,14-11.3c0,0,5.3,21.3,2,27.9l-5.3,6.6
		c0,0,23.3-22.6,29.2,13.3c0,0-11.3-19.3-22.6-7.3c0,0,14-3.3,10.6,23.9c0,0-1.3-12.6-8.6-11.3c0,0-14.6,18.6,12,24.6
		c0,0-6.6,7.3-13.3,3.3c0,0-0.7,6.6,9.3,5.3c0,0-6.6,14.6-17.9-1.3c0,0-39.6,7.7-49.2,1.3c0,0-8-4-5.3,2c0,0-34.6-3.3-39.9-25.9
		c-5.3-22.6,0.7-3.5,0.7-3.5s4.2,6,10.2,8.6c0,0-3.7-1.2,2.3-4.5c0,0,5.3,6.6,17.3,9.3c0,0,11.7-9.6,25.3-5.3l6.6-24.6l-8,4
		c0,0,4-16,10.6-17.3c0,0-19.9,0-19.9,9.3c0,0-0.7-10.6,4-14.6c0,0,11.3,0.7,19.3-5.3h-6.6L1135.3,938.7z"/>
	<path class="st5" d="M1087.5,932c0,0-5.3,6,2,10.6C1089.5,942.6,1084.2,931.3,1087.5,932z"/>
	<path class="st6" d="M889.4,976.5c0,0-8.6-6.6-9.3-19.3c-0.7-12.6,2.5-15.5-5.5-19.7c-8-4.2-80.5,7.5-80.5,7.5s0.9,14.8,7.6,21.5
		l-3.3,15.3L889.4,976.5z"/>
	<circle cx="911.7" cy="929.7" r="3"/>
	<path class="st7" d="M1112.1,976.5c0,0-9.5,14.6,20.5,9.7c1.5-0.2,2.7-1.3,3.2-2.8c0.4-1.3,0.7-2.9,0.2-4.4c-0.7-2-2.9-3.1-5-2.6
		l-7.6,2.1C1123.4,978.5,1113.4,981.9,1112.1,976.5z"/>
	<path class="st2" d="M1010.1,966.6c0,0-30,5.4-22.8-28.7l-8.1-2.7c0,0-33.1,40.3,32.2,53.7"/>
	<path class="st4" d="M1047.2,986.4c0,0,1.7-15.8-10.2-15.8c-12,0-26.6-4.7-26.6-4.7s-6.6,14.6-5.3,22.6
		C1006.4,996.5,1044.8,998.8,1047.2,986.4z"/>
</g>
<g id="Layer_8">
</g>
<g id="Layer_6">
	<path d="M1001.1,989.2l-17.3-9.3l-6-4.7l-14-10l-0.7,7.3c0,0-21.3,1.3-31.9-1.3c0,0-12,4-16.6,6.6s-17.9-4.7-17.9-4.7l-15.3-15.3
		c0,0-6.2,1.1,2.7,16c0,0,5.3,9.3-50.5-1.3c0,0-17.9-4-34.6,6l-2.1,7.3c0,0,70.4-2.1,89.2,1.3c18.8,3.5,50.5,9.3,64.5,0.7l57.4,5.6
		L1001.1,989.2z"/>
	<path d="M1045.6,989c0.8-0.9,0.4-2.4-0.7-2.9c-3.8-1.6-11.9-4.2-15.8-0.2c-4.7,4.7-14.2-3.7-16.2-5.6c-0.3-0.3-0.6-0.4-1-0.5
		l-3.9-0.6c-1.1-0.2-2,0.6-2.1,1.7l-0.6,6.3c-0.1,0.8,0.4,1.6,1.2,1.9C1012.5,991.1,1036.9,998.8,1045.6,989z"/>
</g>
<g id="Layer_4">
	<g>
		<path class="st8" d="M1290.5,999.4c0,0-55.1,9.2-0.6,26.7c-2.7-0.6-52.9-11.8-4.7,22.4l-67-30.2c0,0-21.4-39.4,13.6-73.6l66.1-11
			c0,0-63.5,23.6-7.4,33.3C1290.5,967,1241,984,1290.5,999.4z"/>
		<path class="st9" d="M1218.1,1017.9c0,0-21.5-39.4,13.6-73.6C1231.7,944.3,1252.2,998.2,1218.1,1017.9z"/>
		<g>
			<path d="M1231.9,943c21.9-3.7,43.8-7.4,65.7-10.9l12.3-2l-11.7,4.5c-5.1,1.9-10.1,4.2-14.9,6.7c-2.4,1.3-4.8,2.6-7,4.2
				c-2.2,1.5-4.3,3.2-6,5.2c-0.8,1-1.5,2.1-1.8,3.1c-0.3,1.1-0.2,2.2,0.4,3.1c0.6,1,1.5,1.8,2.5,2.6c1,0.7,2.2,1.3,3.4,1.9
				c4.9,2.1,10.3,3.3,15.7,4.2l3.9,0.7l-3.7,1.3c-4.4,1.6-8.8,3.6-12.7,6c-2,1.2-3.9,2.6-5.5,4.2c-1.6,1.6-2.9,3.5-3.1,5.5
				c-0.1,1,0.1,2,0.6,3c0.5,0.9,1.1,1.8,1.9,2.6c1.6,1.6,3.6,2.9,5.6,4c4.1,2.2,8.6,3.8,13.1,5.3l3.4,1.1l-3.5,0.6
				c-4.7,0.8-9.4,2-13.9,3.6c-2.2,0.8-4.5,1.7-6.4,3c-1,0.6-1.9,1.3-2.6,2.2c-0.7,0.8-1.1,1.8-1,2.8c0.1,1,0.6,1.9,1.3,2.8
				c0.7,0.9,1.6,1.6,2.6,2.3c1.9,1.4,4,2.5,6.2,3.5c4.3,2,8.9,3.7,13.5,5.2l-0.4,1.3c-4.6-1-9.4-1.8-14.1-2.2
				c-2.4-0.1-4.7-0.2-7,0.2c-1.1,0.2-2.2,0.6-3,1.2c-0.8,0.6-0.9,1.6-0.6,2.7c0.3,1,0.9,2,1.6,3c0.7,0.9,1.4,1.8,2.2,2.7
				c1.6,1.7,3.4,3.3,5.2,4.9c3.6,3.1,7.5,6,11.4,8.7l-0.5,0.8l-66.9-30.4l-0.2-0.1l0-0.2l13.8-73.5L1231.9,943z M1231.4,945.6
				l-13.1,72.3l-0.1-0.3l67.1,30l-0.5,0.8c-3.9-2.8-7.8-5.6-11.5-8.7c-1.8-1.6-3.6-3.2-5.3-4.9c-0.8-0.9-1.6-1.8-2.4-2.8
				c-0.7-1-1.4-2.1-1.8-3.3c-0.2-0.6-0.3-1.3-0.1-2.1c0.1-0.7,0.6-1.4,1.1-1.8c0.5-0.5,1.1-0.8,1.7-1c0.6-0.2,1.2-0.4,1.8-0.5
				c2.5-0.5,4.9-0.4,7.3-0.3c4.8,0.3,9.6,1.1,14.3,2.1l-0.4,1.3c-4.6-1.5-9.2-3.1-13.7-5.1c-2.2-1-4.4-2.2-6.5-3.6
				c-1-0.7-2-1.5-2.9-2.5c-0.8-1-1.6-2.2-1.7-3.7c-0.1-0.7,0.1-1.5,0.3-2.1c0.3-0.7,0.6-1.2,1.1-1.8c0.9-1,1.9-1.8,3-2.5
				c2.1-1.4,4.4-2.3,6.7-3.2c4.6-1.7,9.4-2.8,14.2-3.7l-0.1,1.7c-4.6-1.4-9.2-3-13.5-5.3c-2.1-1.2-4.2-2.5-6.1-4.2
				c-0.9-0.9-1.7-1.9-2.3-3.1c-0.6-1.2-0.9-2.6-0.8-4c0.1-1.4,0.6-2.7,1.3-3.8c0.7-1.1,1.5-2.1,2.4-3c1.8-1.8,3.8-3.2,5.8-4.5
				c4.2-2.6,8.5-4.6,13.1-6.3l0.2,2c-5.5-1-11-2.1-16.2-4.3c-1.3-0.6-2.6-1.2-3.8-2.1c-1.2-0.8-2.4-1.9-3.2-3.3
				c-0.8-1.4-1.1-3.3-0.6-4.9c0.4-1.6,1.3-2.9,2.2-4c1.9-2.3,4.1-4,6.4-5.7c2.3-1.6,4.7-3,7.2-4.4c4.9-2.6,10-4.9,15.2-7l0.7,2.5
				c-21.8,3.7-43.5,7.3-65.3,10.8L1231.4,945.6z"/>
		</g>
		<path class="st7" d="M1280.7,938.2l-42.5,7.9c0,0-0.9,3.5,3.5,6.6s14.9-3.9,21.9-7.4S1280.7,938.2,1280.7,938.2z"/>
		<path class="st7" d="M1265.4,954.8c0,0-6.9,8.7,8.4,13c0,0-22.5-4.7-23.8,8.9s-8.8,34.6-16.6,40.3c-7.9,5.7,30.7,18.8,30.7,18.8
			s-13.6-11.8,2.6-14c0,0-9.6-15.3,5.7-21c0,0-21.1-16.5,10.1-32C1282.5,968.8,1265.9,962.8,1265.4,954.8z"/>
	</g>
</g>
<g id="Layer_9">
</g>
<g id="Layer_2" class="st0">
	<path class="st10" d="M1329.9,317.5c-90.5,34.8-172.3,95.1-203.3,119.4c47.6-12.9,84.8-25.7,96.9-30c1.6-0.6,3.2,1,2.5,2.6
		l-29.8,73.4l-470.9,51l-56.3-78.8c-1-1.4,0.3-3.3,2-2.8c31.7,9.6,92.1,15.7,169.5,17.3c-3.5-52.8,6.1-64.3,15-65
		c9.6-0.7,10.3-17.7,3.7-16.3c-3.9,0.9-9.5-2.6-13.6-5.6c-4.6-3.4-7.2-9.1-6.3-14.8c2.4-16.3,28.8-17.4,28.8-17.4l6.2-9.8
		c2.5-4,7-6.2,11.7-5.9l11.6,0.9c12.7,1,16,10.9,16.8,17.6c0.5,3.7,3.2,6.7,6.9,7.5l6.2,1.3c5.4,1.2,9.9,5.2,11.5,10.5
		c9.3,30-31.8,28.1-31.8,28.1s-7.4,19.2,7.4,15.5c12-3,13.8,37.8,14,53.3c1.3,0,2.5-0.1,3.8-0.1c53.2-1,113.9-12.6,166.4-25.6
		c56.9-50.1,208.8-128.2,222.2-131.1C1335.1,310.1,1329.9,317.5,1329.9,317.5z"/>
	<path class="st10" d="M1307.3,578.2c-11-2-80-18-95-18s-81-2-92-7s-24,3-24,3s-63,4-86,13c-23,9-44,23-47,20s-9-10-9-7
		c0,0.7-6.3,1.9-16.2,3.3c-2.1,9.6-5.4,16.6-10.6,15.3c-14.8-3.7-7.4,15.5-7.4,15.5s41.1-1.9,31.8,28.1c-1.6,5.3-6,9.3-11.5,10.5
		l-6.2,1.3c-3.6,0.8-6.4,3.8-6.9,7.5c-0.8,6.7-4.2,16.6-16.8,17.6l-11.6,0.9c-4.7,0.4-9.2-1.9-11.7-5.9l-6.2-9.8
		c0,0-26.3-1.1-28.8-17.4c-0.9-5.7,1.7-11.3,6.3-14.8c4-3,9.7-6.4,13.6-5.6c6.7,1.5,5.9-15.5-3.7-16.3c-5-0.4-10.3-4.2-13.3-17
		c-13.5,1.5-22.9,2.5-22.9,2.5s-2,6-9,7s-88,1-76,5s87,5,67,21c0,0-64,0-78,8s-49,1-50-9s2,1,12,1s-8-15,5-14s21-3,14-7s-23-9-17-22
		s-1,21,32,14c0,0,6-20,10-19s-7-16-13-5s-2,18-2,18s-14,13-5-17c0,0-17-21-7-21s11,14,20,6s-18.2-41.5-18.2-41.5l468.2-44.5l-10,11
		c0,0-5,10,31,8l35,43l-1,9l-19,1l92,18C1313.3,568.2,1318.3,580.2,1307.3,578.2z"/>
	<path class="st10" d="M462.9,580.9l970.8-113.7c3.3-0.4,5.1-3.9,3.6-6.9l0,0c-0.9-1.7-2.8-2.7-4.7-2.5L462.3,569.3
		c-2,0.2-3.6,1.7-4,3.6l-0.5,2.3C457,578.4,459.6,581.3,462.9,580.9z"/>
	<line class="st11" x1="728.5" y1="538.7" x2="1182.2" y2="486.6"/>
</g>
</svg>
