<?xml version="1.0" encoding="utf-8"?>
<!-- Generator: Adobe Illustrator 21.0.2, SVG Export Plug-In . SVG Version: 6.00 Build 0)  -->
<!DOCTYPE svg PUBLIC "-//W3C//DTD SVG 1.1//EN" "http://www.w3.org/Graphics/SVG/1.1/DTD/svg11.dtd">
<svg version="1.1" xmlns="http://www.w3.org/2000/svg" xmlns:xlink="http://www.w3.org/1999/xlink" x="0px" y="0px"
	 viewBox="0 0 1920 1080" style="enable-background:new 0 0 1920 1080;" xml:space="preserve">
<style type="text/css">
	.st0{display:none;}
	.st1{fill:none;stroke:#FFFFFF;stroke-miterlimit:10;}
</style>
<g id="Layer_1" class="st0">
	
		<image style="display:inline;overflow:visible;" width="1080" height="1920" xlink:href="../../Screenshot_2017-05-28-19-56-32.png"  transform="matrix(1 0 0 1 152.1429 -690.1905)">
	</image>
</g>
<g id="Layer_2">
	<path d="M1329.9,317.5c-90.5,34.8-172.3,95.1-203.3,119.4c47.6-12.9,84.8-25.7,96.9-30c1.6-0.6,3.2,1,2.5,2.6l-29.8,73.4l-470.9,51
		l-56.3-78.8c-1-1.4,0.3-3.3,2-2.8c31.7,9.6,92.1,15.7,169.5,17.3c-3.5-52.8,6.1-64.3,15-65c9.6-0.7,10.3-17.7,3.7-16.3
		c-3.9,0.9-9.5-2.6-13.6-5.6c-4.6-3.4-7.2-9.1-6.3-14.8c2.4-16.3,28.8-17.4,28.8-17.4l6.2-9.8c2.5-4,7-6.2,11.7-5.9l11.6,0.9
		c12.7,1,16,10.9,16.8,17.6c0.5,3.7,3.2,6.7,6.9,7.5l6.2,1.3c5.4,1.2,9.9,5.2,11.5,10.5c9.3,30-31.8,28.1-31.8,28.1
		s-7.4,19.2,7.4,15.5c12-3,13.8,37.8,14,53.3c1.3,0,2.5-0.1,3.8-0.1c53.2-1,113.9-12.6,166.4-25.6
		c56.9-50.1,208.8-128.2,222.2-131.1C1335.1,310.1,1329.9,317.5,1329.9,317.5z"/>
	<path d="M1307.3,578.2c-11-2-80-18-95-18s-81-2-92-7s-24,3-24,3s-63,4-86,13c-23,9-44,23-47,20s-9-10-9-7c0,0.7-6.3,1.9-16.2,3.3
		c-2.1,9.6-5.4,16.6-10.6,15.3c-14.8-3.7-7.4,15.5-7.4,15.5s41.1-1.9,31.8,28.1c-1.6,5.3-6,9.3-11.5,10.5l-6.2,1.3
		c-3.6,0.8-6.4,3.8-6.9,7.5c-0.8,6.7-4.2,16.6-16.8,17.6l-11.6,0.9c-4.7,0.4-9.2-1.9-11.7-5.9l-6.2-9.8c0,0-26.3-1.1-28.8-17.4
		c-0.9-5.7,1.7-11.3,6.3-14.8c4-3,9.7-6.4,13.6-5.6c6.7,1.5,5.9-15.5-3.7-16.3c-5-0.4-10.3-4.2-13.3-17c-13.5,1.5-22.9,2.5-22.9,2.5
		s-2,6-9,7s-88,1-76,5s87,5,67,21c0,0-64,0-78,8s-49,1-50-9s2,1,12,1s-8-15,5-14s21-3,14-7s-23-9-17-22s-1,21,32,14c0,0,6-20,10-19
		s-7-16-13-5s-2,18-2,18s-14,13-5-17c0,0-17-21-7-21s11,14,20,6s-18.2-41.5-18.2-41.5l468.2-44.5l-10,11c0,0-5,10,31,8l35,43l-1,9
		l-19,1l92,18C1313.3,568.2,1318.3,580.2,1307.3,578.2z"/>
	<path d="M462.9,580.9l970.8-113.7c3.3-0.4,5.1-3.9,3.6-6.9l0,0c-0.9-1.7-2.8-2.7-4.7-2.5L462.3,569.3c-2,0.2-3.6,1.7-4,3.6
		l-0.5,2.3C457,578.4,459.6,581.3,462.9,580.9z"/>
	<line class="st1" x1="728.5" y1="538.7" x2="1182.2" y2="486.6"/>
</g>
</svg>
