<?xml version="1.0" encoding="utf-8"?>
<!-- Generator: Adobe Illustrator 21.0.2, SVG Export Plug-In . SVG Version: 6.00 Build 0)  -->
<!DOCTYPE svg PUBLIC "-//W3C//DTD SVG 1.1//EN" "http://www.w3.org/Graphics/SVG/1.1/DTD/svg11.dtd">
<svg version="1.1" xmlns="http://www.w3.org/2000/svg" xmlns:xlink="http://www.w3.org/1999/xlink" x="0px" y="0px"
	 viewBox="0 0 1366 768" style="enable-background:new 0 0 1366 768;" xml:space="preserve">
<style type="text/css">
	.st0{display:none;}
	.st1{display:inline;opacity:0.33;fill:#E9FFFF;enable-background:new    ;}
	.st2{display:inline;fill:#33CCCC;}
	.st3{fill:#FFFFFF;}
	.st4{fill:#33FF99;}
	.st5{fill:url(#SVGID_1_);stroke:url(#SVGID_2_);stroke-width:1.5982;stroke-miterlimit:10;}
	.st6{fill:#FFFFC9;}
	.st7{fill:url(#SVGID_3_);stroke:url(#SVGID_4_);stroke-width:1.9091;stroke-miterlimit:10;}
	.st8{opacity:0.83;fill:#34D790;enable-background:new    ;}
	.st9{fill:url(#SVGID_5_);}
	.st10{fill:url(#SVGID_6_);stroke:#33FF99;stroke-width:1.5495;stroke-miterlimit:10;}
	.st11{fill:url(#SVGID_7_);stroke:#33FF99;stroke-width:1.5495;stroke-miterlimit:10;}
	.st12{fill:url(#SVGID_8_);stroke:#33FF99;stroke-width:1.5495;stroke-miterlimit:10;}
	.st13{fill:none;stroke:url(#SVGID_9_);stroke-width:1.3654;stroke-miterlimit:10;}
	.st14{fill:none;stroke:url(#SVGID_10_);stroke-width:1.3654;stroke-miterlimit:10;}
	.st15{fill:url(#SVGID_11_);}
	.st16{fill:#FFFFCC;}
	.st17{opacity:0.58;fill:url(#SVGID_12_);enable-background:new    ;}
	.st18{fill:url(#SVGID_13_);stroke:url(#SVGID_14_);stroke-miterlimit:10;}
	.st19{fill:none;stroke:#000000;stroke-width:0.4488;stroke-miterlimit:10;}
	.st20{opacity:0.58;}
	.st21{fill:#34D790;}
	.st22{opacity:0.58;fill:url(#SVGID_15_);enable-background:new    ;}
	.st23{opacity:0.58;fill:url(#SVGID_16_);enable-background:new    ;}
	.st24{fill:url(#SVGID_17_);}
	.st25{fill:url(#SVGID_18_);}
	.st26{opacity:0.58;fill:#FFFFDF;enable-background:new    ;}
</style>
<g id="Layer_2">
	
		<image style="overflow:visible;" width="1920" height="1080" xlink:href="stars.png"  transform="matrix(0.7115 0 0 0.7115 -57.6271 -2.9135)">
	</image>
</g>
<g id="Layer_1">
	<g id="Layer_1_1_" class="st0">
	</g>
	<g id="water" class="st0">
		<path class="st1" d="M594.8,190.4c4.7,6.2,11.1,15.3,13.8,22c0.9,2.2-0.6,4.7-2.8,4.7c-5.3,0-13.5,0.5-10.2,4.2
			c0.7,0.8,1.7,1.3,2.8,1.5c3.3,0.5,11.1,2.1,2.2,4.4c-2,0.5-2.6,3.5-1,4.8c1.9,1.5,5.2,3.2,10.9,4.6c0,0,0.7,0.2,0.8,0.4
			c0.3,1.2,0.7,2.3,1.8,2.5c11.7,2.5,30.4,8.2,30.6,19.6c0,1.1-0.9,1.9-1.9,1.7c-3.7-0.9-11.4-2.3-6.2,4.5c6.7,8.7,8.7,2.6,6.7,8.7
			s-3,14,4.3,18s16.5,3.3,6.7,11.3s-13.4,18-12.2,24s-6.3,5.5-0.3,10.2s-1.5-11.6,3.4-15.6s6.7-22.7,16.5-16s7.9,10.7,12.8,12.7
			s1.5,5.7,6.3,12.1c4.9,6.4,4,0.6,4,11.3s-7.9,8-1.8,18c6.1,10,5.5,18,15.2,11.3c9.8-6.7,14.6-14.7,11-19.3
			c-3.7-4.7-7.7-2.4-3.7-7.3s-1.4-10.1,4-4.9c5.5,5.2,6.9,9.6,10.6,4.9c3.7-4.7,2.4-4,2.4-10.7s-4.9-4.7,0-9.3c4.9-4.7,5.5-10,2.4-8
			s-13.2-2.2-10.2,5.1c3.8,9.1,0.6,12.3-7.1,6.9c-0.8-0.6-1.8-1.2-4-1.9c-3.9-1.4-5.3-4.5-5.8-6.2c-0.2-0.7,0-1.5,0.6-1.9
			c1.3-1,3.7-2.3,5.9,0.1c3,3.3,2.4,4.7,4.3,0c1.8-4.7-1.8-5.3,5.5-4.7c7.3,0.7,7.3-0.7,11-0.7s3-1.3,5.5-5.3c2.4-4-6.1-2,2.4-4
			s6.1-3.3,15.2-3.3c9.1,0,22-4.7,11,4s-15.2,8.7-11,14c4.3,5.3,1.8,11.3,4.3,5.3c2.4-6-4.9-10.7-1.2-10s3.7-0.7,3.7,4
			s-2.4,10-4.9,16c-1.6,3.9-2.1,8.4-2.2,11c-0.1,1.2,0.9,2,1.9,1.7c2.3-0.7,5.7-2.3,6.5-5.9c1.1-5.4-3.1-10.8,1.1-10.1
			c4.3,0.7-0.2,2.5,4.3,0.7c4.4-1.9,2.9-13.4,4.9-9.3c2,4-0.6,18-0.6,31.3s6.7,10.7,1.8,21.3c-4.9,10.7-12.8,9.3-3.7,16
			s-2.4,19.3,4.9,25.3c7.3,6,5.5,12,1.8,17.3c-3.2,4.7,0.6,11.4,1.6,13c0.1,0.2,0.2,0.5,0.3,0.8c0.2,1.9,0.9,8.9,3-0.4
			c2.4-10.7-0.6-9.3,0-14s0.6-4.7,6.7-6.7s13.4-4,3-6s-11-2.7-12.2-6s5.5-13.3,8.5-20s-5.5-6-11-6s-11.6,1.3-6.1-2.7
			s1.8-9.3,6.7-8.7c4.9,0.7,6.7,8.7,10.4,4.7s6.7-2,3-10s-7.3-10-9.8-12.7c-2.4-2.7-6.1,0.7-4.9-6.7c1.2-7.3,0-10.7,7.3-2.7
			s15.9,8.7,15.2,4c-0.6-4.7-7.3-4.7-10.4-12.7s-3.7-12.7-1.8-16c1.8-3.3,2.4,0,6.7,7.3s3.7,20.7,3.7,10.7s0.6-17.3,0.6-17.3
			s-3.7,1.3,3,6s7.3,5.3,7.3-2c0-6.9-1.1-16.2-1.2-17.2c0-0.1,0-0.1,0-0.2c-0.3-1.1-2.7-11.5,3.7-4.6c6.7,7.3,7.3,9.3,7.3,4
			s0.6-10.7-1.8-12c-2.2-1.2-6.1-5.5-6.8-6.3c-0.1-0.1-0.2-0.2-0.2-0.3l-3-5.7c-0.5-0.9-1.5-1.1-2.2-0.5c-4.7,3.8-20.5,15.3-29.5,9
			c-10.6-7.4-3.6-31.7-3.6-31.7s3.6-11.5,10.7-17c0.6-0.5,0.9-1.5,0.5-2.2c-0.6-1-0.2-3.4,4.6-9.1c8.8-10.5,16.4-34.5,21.5-37.5
			c4.5-2.7-6.4-4.4-8.6-4.7c-0.2,0-0.5,0-0.7,0.1c-1.6,0.6-8.3,3.2-13.7,3.2c-6.1,0-17.7-5.1-22.6-6.6c-4.8-1.5-9.1-0.7-14.6-2.1
			c-5.5-1.3-17.7-4.7-17.7-4.7s1.8-1.3-7.9,4.7s-15.2,8-17.7,7.3c-2.4-0.7-5.3-2-11.8-4s0.8-3.3-12-1.3c-12,1.9-23,0.2-24.3,0
			c-0.1,0-0.2,0-0.2-0.1c-0.6-0.2-3.9-1.3-6.6-1.3c-3,0,9.8-6.7-8.5-2.7s-18.9,4.7-22,4c-2.6-0.6-6.5-3.5-7.6-4.4
			c-0.2-0.2-0.5-0.3-0.7-0.3l-5.5-0.7C594.8,184,592.8,187.8,594.8,190.4z"/>
		
			<image style="display:inline;overflow:visible;enable-background:new    ;" width="751" height="1064" xlink:href="../../../long scroll images/lady_starbucks_by_urbanmusiq-d94agq7.jpg"  transform="matrix(1.1889 0 0 1.1889 233.2478 -248.9492)">
		</image>
	</g>
	<g id="Layer_10" class="st0">
		<rect x="392.8" class="st2" width="593.2" height="768"/>
	</g>
	<g>
		<g id="Layer_11">
			<g>
				<ellipse class="st3" cx="792.6" cy="122.4" rx="21" ry="8.9"/>
				<g>
					<path class="st4" d="M751.1,202.2c0,0,85.6,95.1,166.8-23.3c8.6-12.6,19.7-23.4,32.7-31.9c23.3-15.5,58.1-59.4,56.3-95.6
						c0,0-25.8,66.9-48.2,77.4c-22.3,10.6-110,21.3-132.3,46.9c0,0,5.5-49.1,52.6-108.5c28.7-36.3,104.7-39.5,104.7-39.5
						s-111.3,1.6-137.8,49C832.7,99.8,728.7,97,751.1,202.2z"/>
					
						<linearGradient id="SVGID_1_" gradientUnits="userSpaceOnUse" x1="679.4999" y1="9410.2002" x2="864.6" y2="9410.2002" gradientTransform="matrix(1 0 0 1 0 -9232)">
						<stop  offset="0" style="stop-color:#FFFFCC"/>
						<stop  offset="3.328117e-02" style="stop-color:#F6FFCA;stop-opacity:0.9499"/>
						<stop  offset="8.802832e-02" style="stop-color:#DDFFC3;stop-opacity:0.8676"/>
						<stop  offset="0.1575" style="stop-color:#B5FFB9;stop-opacity:0.7632"/>
						<stop  offset="0.2389" style="stop-color:#7CFFAB;stop-opacity:0.6407"/>
						<stop  offset="0.3294" style="stop-color:#36FF9A;stop-opacity:0.5046"/>
						<stop  offset="0.3324" style="stop-color:#33FF99;stop-opacity:0.5"/>
						<stop  offset="0.3585" style="stop-color:#2CEB85;stop-opacity:0.5195"/>
						<stop  offset="0.4118" style="stop-color:#20C761;stop-opacity:0.5594"/>
						<stop  offset="0.4703" style="stop-color:#16A943;stop-opacity:0.6032"/>
						<stop  offset="0.5341" style="stop-color:#0E902A;stop-opacity:0.6511"/>
						<stop  offset="0.6056" style="stop-color:#087D17;stop-opacity:0.7046"/>
						<stop  offset="0.6888" style="stop-color:#03700A;stop-opacity:0.7669"/>
						<stop  offset="0.7948" style="stop-color:#016802;stop-opacity:0.8463"/>
						<stop  offset="1" style="stop-color:#006600"/>
					</linearGradient>
					
						<linearGradient id="SVGID_2_" gradientUnits="userSpaceOnUse" x1="678.7009" y1="9410.209" x2="865.415" y2="9410.209" gradientTransform="matrix(1 0 0 1 0 -9232)">
						<stop  offset="0" style="stop-color:#33FF99;stop-opacity:0.5"/>
						<stop  offset="4.740244e-02" style="stop-color:#2FF48E;stop-opacity:0.5237"/>
						<stop  offset="0.2798" style="stop-color:#1FC25C;stop-opacity:0.6399"/>
						<stop  offset="0.4989" style="stop-color:#119A34;stop-opacity:0.7494"/>
						<stop  offset="0.6984" style="stop-color:#087D17;stop-opacity:0.8492"/>
						<stop  offset="0.872" style="stop-color:#026C06;stop-opacity:0.936"/>
						<stop  offset="1" style="stop-color:#006600"/>
					</linearGradient>
					<path class="st5" d="M681.8,215.8c0,0,155.7-3.8,182.8-71.9c0,0-1-9.7-11.2,4.4c-10.2,14.2-103.1,39.9-138.6,38.9
						c-35.3-0.8-35.3,3.5-35.3,3.5L681.8,215.8z"/>
				</g>
				<g>
					<path class="st6" d="M791.9,202.2c5.8,1.2,11.6,1.8,17.7,2c5.9,0.2,11.8,0.1,17.7-0.5s11.6-1.6,17.3-3.1
						c5.6-1.4,11.2-3.5,16.5-6s10.3-5.5,15.1-9c1.2-1,2.4-1.8,3.5-2.8l3.4-2.9c2.2-2,4.4-4,6.6-5.9c4.4-3.8,9-7.8,13.6-11.5
						c2.3-1.8,4.7-3.6,7.1-5.4c1.2-0.8,2.4-1.7,3.7-2.4c0.6-0.4,1.3-0.7,2-1c0.4-0.1,0.7-0.2,1.1,0c0.2,0.4,0,0.7-0.1,1.1
						c0.1-0.4,0.4-0.7,0.1-1.1c-0.2-0.2-0.7,0-1,0.1c-0.7,0.2-1.3,0.7-1.9,1.1c-1.2,0.8-2.4,1.7-3.6,2.6c-2.3,1.8-4.6,3.7-6.8,5.6
						c-4.4,3.8-8.9,7.8-13.2,11.9l-6.5,6l-3.4,3c-1.1,1-2.3,1.8-3.5,2.8c-4.8,3.6-9.8,6.7-15.2,9.2c-10.8,5-22.6,8-34.5,8.9
						C815.4,206.1,803.4,205.2,791.9,202.2z"/>
				</g>
				<g>
					<path class="st6" d="M817.5,190.3c5.8-1.9,11.6-3.8,17.4-5.8c5.8-1.9,11.5-4,17.2-6.1c5.6-2.2,11.3-4.4,16.7-7.1
						c2.8-1.3,5.4-2.8,7.9-4.3c2.5-1.6,5-3.5,7.1-5.8c-1.7,2.5-4.1,4.6-6.5,6.5c-2.5,1.8-5,3.5-7.8,4.9c-5.4,3-11,5.4-16.7,7.6
						c-5.8,2.2-11.5,4.1-17.4,5.8C829.5,187.7,823.5,189.1,817.5,190.3z"/>
				</g>
				<g>
					<path class="st6" d="M800.4,164.5c1.6-5.5,3.6-10.8,5.9-16c2.3-5.2,4.9-10.3,7.8-15.2c3-4.9,6.1-9.6,9.8-14
						c3.7-4.3,7.9-8.3,12.6-11.5c-4.2,3.8-8,8-11.5,12.5l-2.5,3.4c-0.8,1.1-1.6,2.3-2.4,3.5c-0.8,1.2-1.6,2.3-2.3,3.6
						c-0.7,1.2-1.6,2.4-2.2,3.6c-2.9,4.8-5.5,9.8-8,14.9C805.1,154.2,802.7,159.4,800.4,164.5z"/>
				</g>
				<g>
					<path class="st6" d="M775.9,172.2c0.4-5.4,1.6-10.8,3.2-16.1c1.7-5.2,3.8-10.3,6.6-15c0.6-1.2,1.3-2.4,2.2-3.5
						c0.7-1.2,1.4-2.4,2.3-3.5c1.7-2.2,3.2-4.4,5-6.5c1-1.1,1.7-2.2,2.8-3.1l2.9-2.9c1-1,2-1.8,3.1-2.8c1.1-0.8,2-1.8,3.1-2.6
						c-3.8,4-7.6,7.8-10.8,12.1c-3.4,4.2-6.2,8.8-8.9,13.4c-2.6,4.7-4.9,9.6-6.8,14.6C778.6,161.6,776.9,166.8,775.9,172.2z"/>
				</g>
			</g>
			<g>
				<g>
					<path class="st4" d="M864.1,276.4c0,0,89.2-124.6,196.1,11.5c11.3,14.4,25.5,26.5,41.3,35.7c28.6,16.6,73.8,66.6,75.5,111
						c0,0-37.1-78.9-64.1-89.6S983,330.2,954.4,301.2c0,0,11.6,59.4,72.5,127c37.1,41.3,125.7,37.6,125.7,37.6
						s-129.3,9.4-165.2-45.7C969.7,393.2,849.4,407.2,864.1,276.4z"/>
					
						<linearGradient id="SVGID_3_" gradientUnits="userSpaceOnUse" x1="406.627" y1="836.1262" x2="622.2548" y2="836.1262" gradientTransform="matrix(0.9962 -8.699770e-02 -8.699770e-02 -0.9962 451.0905 1181.446)">
						<stop  offset="0" style="stop-color:#FFFFCC"/>
						<stop  offset="3.328117e-02" style="stop-color:#F6FFCA;stop-opacity:0.9499"/>
						<stop  offset="8.802832e-02" style="stop-color:#DDFFC3;stop-opacity:0.8676"/>
						<stop  offset="0.1575" style="stop-color:#B5FFB9;stop-opacity:0.7632"/>
						<stop  offset="0.2389" style="stop-color:#7CFFAB;stop-opacity:0.6407"/>
						<stop  offset="0.3294" style="stop-color:#36FF9A;stop-opacity:0.5046"/>
						<stop  offset="0.3324" style="stop-color:#33FF99;stop-opacity:0.5"/>
						<stop  offset="0.3585" style="stop-color:#2CEB85;stop-opacity:0.5195"/>
						<stop  offset="0.4118" style="stop-color:#20C761;stop-opacity:0.5594"/>
						<stop  offset="0.4703" style="stop-color:#16A943;stop-opacity:0.6032"/>
						<stop  offset="0.5341" style="stop-color:#0E902A;stop-opacity:0.6511"/>
						<stop  offset="0.6056" style="stop-color:#087D17;stop-opacity:0.7046"/>
						<stop  offset="0.6888" style="stop-color:#03700A;stop-opacity:0.7669"/>
						<stop  offset="0.7948" style="stop-color:#016802;stop-opacity:0.8463"/>
						<stop  offset="1" style="stop-color:#006600"/>
					</linearGradient>
					
						<linearGradient id="SVGID_4_" gradientUnits="userSpaceOnUse" x1="405.6723" y1="836.1379" x2="623.2246" y2="836.1379" gradientTransform="matrix(0.9962 -8.699770e-02 -8.699770e-02 -0.9962 451.0905 1181.446)">
						<stop  offset="0" style="stop-color:#33FF99;stop-opacity:0.5"/>
						<stop  offset="4.740244e-02" style="stop-color:#2FF48E;stop-opacity:0.5237"/>
						<stop  offset="0.2798" style="stop-color:#1FC25C;stop-opacity:0.6399"/>
						<stop  offset="0.4989" style="stop-color:#119A34;stop-opacity:0.7494"/>
						<stop  offset="0.6984" style="stop-color:#087D17;stop-opacity:0.8492"/>
						<stop  offset="0.872" style="stop-color:#026C06;stop-opacity:0.936"/>
						<stop  offset="1" style="stop-color:#006600"/>
					</linearGradient>
					<path class="st7" d="M782.2,267c0,0,181.2-11,219.7,69.3c0,0,0,12-13.4-4.3c-13.3-16.2-124-38.1-165-33.4
						c-40.9,4.7-41.4-0.7-41.4-0.7L782.2,267z"/>
				</g>
				<g>
					<path class="st6" d="M901.1,268.3c1.7-2,3.7-3.8,5.8-5.5c2-1.7,4.2-3.2,6.5-4.6c4.6-2.8,9.5-4.9,14.5-6.6
						c10.2-3.4,21-4.4,31.6-3.8c10.7,0.6,21.1,2.8,31.2,6.1c2.5,0.8,5,1.8,7.4,2.6c2.4,1,4.9,1.9,7.3,3s4.8,2.3,7.2,3.4
						c2.4,1.2,4.7,2.4,7,3.7c-2.4-1.1-4.8-2-7.2-3.1c-2.4-1-4.9-1.9-7.3-2.9l-7.4-2.8c-2.5-0.8-5-1.6-7.6-2.4
						c-5-1.3-10.1-2.8-15.2-3.6c-5.2-1-10.3-1.6-15.6-1.9c-5.2-0.4-10.4-0.2-15.6,0.4c-5.2,0.5-10.3,1.6-15.4,3
						c-5,1.4-10,3.4-14.5,5.9C909.2,261.7,904.8,264.7,901.1,268.3z"/>
				</g>
				<g>
					<path class="st6" d="M917.5,278.7c4.4-3,9.5-4.9,14.5-6.5c2.5-0.8,5.2-1.3,7.8-1.9c2.6-0.5,5.3-0.8,7.9-1.2
						c10.7-1.2,21.5-0.4,32.1,1.3l4,0.7c1.3,0.2,2.6,0.5,4,0.8l7.8,1.9c2.6,0.6,5.2,1.6,7.7,2.3c2.5,0.8,5,1.7,7.6,2.5
						c4.9,2,9.8,4.1,14.8,6.1c4.8,2.4,9.5,4.8,14.3,7.2c-4.9-2-9.8-4.2-14.6-6.2c-4.9-1.9-10-3.7-14.9-5.5
						c-10.1-3.1-20.3-6.2-30.7-7.8c-10.4-1.8-21-2.6-31.6-1.8c-2.6,0.2-5.3,0.5-7.8,0.8c-2.6,0.5-5.2,0.8-7.8,1.6
						C927.1,274.4,922.1,276.1,917.5,278.7z"/>
				</g>
				<g>
					<path class="st6" d="M932.4,319.1c-0.2,3.7,0.2,7.4,1,11c0.7,3.6,1.9,7.2,3.1,10.6c2.6,6.8,6.5,13.3,10.8,19.3
						c1.1,1.4,2.2,3,3.4,4.4l3.6,4.2c0.6,0.7,1.2,1.4,1.8,2.2l1.9,2l3.8,4c1.3,1.3,2.8,2.5,4.1,3.7l4.1,3.7c2.9,2.4,5.8,4.7,8.6,7.2
						c-3.1-2-6.2-4.2-9.2-6.4c-2.9-2.3-5.9-4.7-8.8-7.2c-5.5-5.2-10.8-10.6-15.1-16.8c-4.4-6.1-8.2-12.8-10.6-19.9l-0.8-2.8
						c-0.2-1-0.6-1.8-0.7-2.8c-0.4-1.8-0.8-3.7-1.1-5.5C931.9,326.5,931.8,322.7,932.4,319.1z"/>
				</g>
			</g>
			<g>
				<path class="st8" d="M712.4,150.2c0,0,17.2,50,15.4,61.2c-1.8,11.3,17.1,46,49.1,56.2c31.9,10.2,46.7,32.1,48,45.3
					c0,0,37.3-54.6,86.2,0.5c0,0-4.1-41.8-85.9-65.9C825.3,247.5,728.1,180.3,712.4,150.2z"/>
				
					<linearGradient id="SVGID_5_" gradientUnits="userSpaceOnUse" x1="2382.6226" y1="9363.0049" x2="2586.0305" y2="9363.0049" gradientTransform="matrix(-0.9953 9.700280e-02 9.700280e-02 0.9953 2379.0815 -9335.9561)">
					<stop  offset="0" style="stop-color:#FFFFCC"/>
					<stop  offset="0.1203" style="stop-color:#FDFFCB;stop-opacity:0.9482"/>
					<stop  offset="0.1884" style="stop-color:#F4FFC9;stop-opacity:0.9189"/>
					<stop  offset="0.2435" style="stop-color:#E7FFC6;stop-opacity:0.8952"/>
					<stop  offset="0.2916" style="stop-color:#D3FFC1;stop-opacity:0.8745"/>
					<stop  offset="0.3352" style="stop-color:#B9FFBB;stop-opacity:0.8558"/>
					<stop  offset="0.3755" style="stop-color:#9AFFB3;stop-opacity:0.8384"/>
					<stop  offset="0.4134" style="stop-color:#74FFA9;stop-opacity:0.8222"/>
					<stop  offset="0.4482" style="stop-color:#4AFF9F;stop-opacity:0.8072"/>
					<stop  offset="0.4649" style="stop-color:#33FF99;stop-opacity:0.8"/>
					<stop  offset="0.4696" style="stop-color:#32FB95;stop-opacity:0.8018"/>
					<stop  offset="0.5242" style="stop-color:#25D46E;stop-opacity:0.8222"/>
					<stop  offset="0.5826" style="stop-color:#19B24C;stop-opacity:0.844"/>
					<stop  offset="0.6445" style="stop-color:#109630;stop-opacity:0.8671"/>
					<stop  offset="0.7111" style="stop-color:#09811B;stop-opacity:0.892"/>
					<stop  offset="0.7847" style="stop-color:#04720C;stop-opacity:0.9196"/>
					<stop  offset="0.8709" style="stop-color:#016903;stop-opacity:0.9518"/>
					<stop  offset="1" style="stop-color:#006600"/>
				</linearGradient>
				<path class="st9" d="M702.9,125.1c0,0,63.6,86.9,127.8,118.5s53.6,2.5,95.8,79.4l-15.5-9.6c0,0-20.3-42.9-74.7-56
					c-8.8-2.2-17.2-6.2-24.7-12c-27-20.4-87.4-68.8-107.7-109.4L702.9,125.1z"/>
			</g>
			
				<linearGradient id="SVGID_6_" gradientUnits="userSpaceOnUse" x1="429.7673" y1="9625.9766" x2="429.7673" y2="9716.9766" gradientTransform="matrix(1 0 0 1 0 -9232)">
				<stop  offset="0" style="stop-color:#FFFFCC"/>
				<stop  offset="2.516381e-02" style="stop-color:#F6FFCA;stop-opacity:0.9499"/>
				<stop  offset="6.655800e-02" style="stop-color:#DDFFC3;stop-opacity:0.8676"/>
				<stop  offset="0.1191" style="stop-color:#B5FFB9;stop-opacity:0.7632"/>
				<stop  offset="0.1806" style="stop-color:#7CFFAB;stop-opacity:0.6407"/>
				<stop  offset="0.2491" style="stop-color:#36FF9A;stop-opacity:0.5046"/>
				<stop  offset="0.2514" style="stop-color:#33FF99;stop-opacity:0.5"/>
				<stop  offset="0.2894" style="stop-color:#27DC76;stop-opacity:0.5254"/>
				<stop  offset="0.3323" style="stop-color:#1DBD57;stop-opacity:0.5541"/>
				<stop  offset="0.381" style="stop-color:#14A13B;stop-opacity:0.5866"/>
				<stop  offset="0.436" style="stop-color:#0C8B25;stop-opacity:0.6233"/>
				<stop  offset="0.5002" style="stop-color:#077A14;stop-opacity:0.6662"/>
				<stop  offset="0.5795" style="stop-color:#036F09;stop-opacity:0.7192"/>
				<stop  offset="0.6909" style="stop-color:#016802;stop-opacity:0.7935"/>
				<stop  offset="1" style="stop-color:#006600"/>
			</linearGradient>
			<path class="st10" d="M465.1,476.1c0,0-69.2-15.2-61.4-82.1c0,0-36.3,57.4,34.8,91L465.1,476.1z"/>
			
				<linearGradient id="SVGID_7_" gradientUnits="userSpaceOnUse" x1="403.3881" y1="9593.4766" x2="403.3881" y2="9718.4766" gradientTransform="matrix(1 0 0 1 0 -9232)">
				<stop  offset="0" style="stop-color:#FFFFCC"/>
				<stop  offset="2.516381e-02" style="stop-color:#F6FFCA;stop-opacity:0.9499"/>
				<stop  offset="6.655800e-02" style="stop-color:#DDFFC3;stop-opacity:0.8676"/>
				<stop  offset="0.1191" style="stop-color:#B5FFB9;stop-opacity:0.7632"/>
				<stop  offset="0.1806" style="stop-color:#7CFFAB;stop-opacity:0.6407"/>
				<stop  offset="0.2491" style="stop-color:#36FF9A;stop-opacity:0.5046"/>
				<stop  offset="0.2514" style="stop-color:#33FF99;stop-opacity:0.5"/>
				<stop  offset="0.2894" style="stop-color:#27DC76;stop-opacity:0.5254"/>
				<stop  offset="0.3323" style="stop-color:#1DBD57;stop-opacity:0.5541"/>
				<stop  offset="0.381" style="stop-color:#14A13B;stop-opacity:0.5866"/>
				<stop  offset="0.436" style="stop-color:#0C8B25;stop-opacity:0.6233"/>
				<stop  offset="0.5002" style="stop-color:#077A14;stop-opacity:0.6662"/>
				<stop  offset="0.5795" style="stop-color:#036F09;stop-opacity:0.7192"/>
				<stop  offset="0.6909" style="stop-color:#016802;stop-opacity:0.7935"/>
				<stop  offset="1" style="stop-color:#006600"/>
			</linearGradient>
			<path class="st11" d="M397.6,361.5c0,0-70.1,75.8,6.1,125l34.9-1.3c0,0-66.6-22.2-30-102.9L397.6,361.5z"/>
			
				<linearGradient id="SVGID_8_" gradientUnits="userSpaceOnUse" x1="624.7597" y1="9106.4766" x2="624.7597" y2="9864.1992" gradientTransform="matrix(1 0 0 1 0 -9232)">
				<stop  offset="0" style="stop-color:#FFFFCC"/>
				<stop  offset="3.761043e-02" style="stop-color:#F6FFCA"/>
				<stop  offset="9.947916e-02" style="stop-color:#DDFFC3"/>
				<stop  offset="0.178" style="stop-color:#B5FFB9"/>
				<stop  offset="0.2699" style="stop-color:#7CFFAB"/>
				<stop  offset="0.3723" style="stop-color:#36FF9A"/>
				<stop  offset="0.3757" style="stop-color:#33FF99"/>
				<stop  offset="0.415" style="stop-color:#2EF08A"/>
				<stop  offset="0.556" style="stop-color:#1EBF59"/>
				<stop  offset="0.6895" style="stop-color:#119832"/>
				<stop  offset="0.8119" style="stop-color:#087D17"/>
				<stop  offset="0.9193" style="stop-color:#026C06"/>
				<stop  offset="1" style="stop-color:#006600"/>
			</linearGradient>
			<path class="st12" d="M488.1-125.5c0,0,22.5,105.2-19,143.1S327.6,165.9,376,309s131,160.4,75.9,170.7
				c-55.2,10.3-157.1-64.6-62.2-135.2l-10.2-25.7c0,0-141.3,93.7-25.8,229.9c89.8,105.9,289.6,110.2,372.5,18
				c0,0,167.7,32.1,211.7-111.6c35.4-115.5-223.7-230.4-223.7-230.4l25.1,12.1c-34.5-24.6-12.1-130.6-28.9-188.9
				s6.5-151.3,6.5-151.3"/>
			<g>
				<path class="st4" d="M529.2,205.7c32.2,18.5,62.8,39.7,91.9,62.9c14.5,11.6,28.6,23.8,41.9,36.7c13.4,12.8,26.2,26.4,38.1,40.7
					c11.8,14.4,22.6,29.5,31.7,45.9c4.6,8.2,8.8,16.5,12.2,25.1s6.5,17.5,8.6,26.5c2.2,9,3.6,18.3,4.2,27.6c0.5,9.2,0,18.6-1.3,27.9
					c-1.4,9.2-3.7,18.3-7,26.9s-7.4,17.1-12.1,25.1c4.6-8,8.6-16.5,11.8-25.2c3.2-8.8,5.3-17.8,6.6-26.9c1.3-9.1,1.7-18.5,1.1-27.7
					s-2.2-18.4-4.3-27.4c-2.3-9-5.3-17.8-8.8-26.3c-3.6-8.5-7.7-16.8-12.2-24.9c-9.1-16.1-19.9-31.2-31.7-45.5
					c-23.5-28.7-50.8-54-79.6-77.4c-14.4-11.8-29.3-22.8-44.4-33.5C560.6,225.4,545.2,215.1,529.2,205.7z"/>
			</g>
			
				<linearGradient id="SVGID_9_" gradientUnits="userSpaceOnUse" x1="672.5161" y1="9106.6611" x2="735.559" y2="9106.6611" gradientTransform="matrix(1 0 0 1 0 -9232)">
				<stop  offset="0" style="stop-color:#33FF99;stop-opacity:0.5"/>
				<stop  offset="4.740244e-02" style="stop-color:#2FF48E;stop-opacity:0.5142"/>
				<stop  offset="0.2798" style="stop-color:#1FC25C;stop-opacity:0.5839"/>
				<stop  offset="0.4989" style="stop-color:#119A34;stop-opacity:0.6497"/>
				<stop  offset="0.6984" style="stop-color:#087D17;stop-opacity:0.7095"/>
				<stop  offset="0.872" style="stop-color:#026C06;stop-opacity:0.7616"/>
				<stop  offset="1" style="stop-color:#006600;stop-opacity:0.8"/>
			</linearGradient>
			<path class="st13" d="M672.7-99.5c0,0,64.7,18.1,62.1-54.3"/>
			
				<linearGradient id="SVGID_10_" gradientUnits="userSpaceOnUse" x1="468.9211" y1="9102.2227" x2="540.9007" y2="9102.2227" gradientTransform="matrix(1 0 0 1 0 -9232)">
				<stop  offset="0" style="stop-color:#33FF99;stop-opacity:0.5"/>
				<stop  offset="4.740244e-02" style="stop-color:#2FF48E;stop-opacity:0.5142"/>
				<stop  offset="0.2798" style="stop-color:#1FC25C;stop-opacity:0.5839"/>
				<stop  offset="0.4989" style="stop-color:#119A34;stop-opacity:0.6497"/>
				<stop  offset="0.6984" style="stop-color:#087D17;stop-opacity:0.7095"/>
				<stop  offset="0.872" style="stop-color:#026C06;stop-opacity:0.7616"/>
				<stop  offset="1" style="stop-color:#006600;stop-opacity:0.8"/>
			</linearGradient>
			<path class="st14" d="M540.7-104.7c0,0-63.4,19.5-71.1-53.1"/>
			<g>
				<path d="M612.2,17.8c-2-0.5-4-1.3-5.9-2.3c-1.8-1.1-3.6-2.4-4.8-4.3c-0.6-1-1-2.2-1-3.4c0.1-1.2,0.6-2.3,1.3-3.2
					c1.4-1.8,3.2-2.9,5.3-3.6c-1.6,1.3-3.2,2.6-4.2,4.3c-1.1,1.7-1.1,3.5,0,5c1,1.6,2.5,2.9,4.2,4.1
					C608.6,15.6,610.4,16.7,612.2,17.8z"/>
			</g>
			<g>
				<path class="st8" d="M452.5,137.8c0,0-16.5,60.2-12.6,73.1c3.8,13-16.8,55.6-58.2,71.1s-58.2,42.6-58.2,58.2
					c0,0-56.9-59.4-115.2,10.3c0,0,0-49.1,106-86.7C314.5,263.8,435.3,174.5,452.5,137.8z"/>
				
					<linearGradient id="SVGID_11_" gradientUnits="userSpaceOnUse" x1="189" y1="9467.4268" x2="461.9" y2="9467.4268" gradientTransform="matrix(1 0 0 1 0 -9232)">
					<stop  offset="0" style="stop-color:#FFFFCC"/>
					<stop  offset="0.1203" style="stop-color:#FDFFCB;stop-opacity:0.9482"/>
					<stop  offset="0.1884" style="stop-color:#F4FFC9;stop-opacity:0.9189"/>
					<stop  offset="0.2435" style="stop-color:#E7FFC6;stop-opacity:0.8952"/>
					<stop  offset="0.2916" style="stop-color:#D3FFC1;stop-opacity:0.8745"/>
					<stop  offset="0.3352" style="stop-color:#B9FFBB;stop-opacity:0.8558"/>
					<stop  offset="0.3755" style="stop-color:#9AFFB3;stop-opacity:0.8384"/>
					<stop  offset="0.4134" style="stop-color:#74FFA9;stop-opacity:0.8222"/>
					<stop  offset="0.4482" style="stop-color:#4AFF9F;stop-opacity:0.8072"/>
					<stop  offset="0.4649" style="stop-color:#33FF99;stop-opacity:0.8"/>
					<stop  offset="0.4696" style="stop-color:#32FB95;stop-opacity:0.8018"/>
					<stop  offset="0.5242" style="stop-color:#25D46E;stop-opacity:0.8222"/>
					<stop  offset="0.5826" style="stop-color:#19B24C;stop-opacity:0.844"/>
					<stop  offset="0.6445" style="stop-color:#109630;stop-opacity:0.8671"/>
					<stop  offset="0.7111" style="stop-color:#09811B;stop-opacity:0.892"/>
					<stop  offset="0.7847" style="stop-color:#04720C;stop-opacity:0.9196"/>
					<stop  offset="0.8709" style="stop-color:#016903;stop-opacity:0.9518"/>
					<stop  offset="1" style="stop-color:#006600"/>
				</linearGradient>
				<path class="st15" d="M461.8,107.4c0,0-73.7,108.7-155.1,152.6s-71.1,9-117.7,103.5l19.5-13c0,0,21.6-52.2,92.5-73.7
					c11.4-3.5,22.1-9.2,31.3-16.8c33.5-26.8,107.8-90.1,129.6-139.6v-13H461.8z"/>
			</g>
			<path class="st16" d="M467.6-165.6c0,0,6,87.3,85.7,57.5l81.4,2.2l36.4,3.8c0,0,76.5,31,62.4-81.4L467.6-165.6z"/>
		</g>
		<g id="Layer_7">
			
				<linearGradient id="SVGID_12_" gradientUnits="userSpaceOnUse" x1="628.1417" y1="9631.6416" x2="628.1417" y2="9428.7764" gradientTransform="matrix(1 0 0 1 0 -9232)">
				<stop  offset="0" style="stop-color:#FFFFCC"/>
				<stop  offset="0.2243" style="stop-color:#C6FFBE;stop-opacity:0.8879"/>
				<stop  offset="0.494" style="stop-color:#87FFAE;stop-opacity:0.753"/>
				<stop  offset="0.7227" style="stop-color:#5AFFA3;stop-opacity:0.6386"/>
				<stop  offset="0.8984" style="stop-color:#3DFF9C;stop-opacity:0.5508"/>
				<stop  offset="1" style="stop-color:#33FF99;stop-opacity:0.5"/>
			</linearGradient>
			<path class="st17" d="M579.7,221c0,0,0.4,6.5-0.2,8.3c-0.6,1.8,1.2,4.9,3.5,3.7s1.4-2.5,2.3-1.2c0.8,1.2,0.6,10.6,0.6,14.5
				s-2.3,5.9-2.6,9.2c-0.2,3.4-0.2,6.5,0.6,10.6s0.8,4.1,0.8,4.1s-2-5.5-2.3-2.8c-0.2,2.8-1.2,2.5,0.8,4.1s2.6,1,2.6-1.2
				s0-5.9,0-5.9s1.4-0.6,2.3,1.2c0.8,1.8-0.6,2.5,0.8,4.1s2,1.2,2.3-1s1.8-4.7,2.3-2.2c0.6,2.5,0.6,1.2,0.6,5.3
				c0,4.1-0.6,0.4-2.3,4.7c-1.8,4.3-3.5,4.3-3.5,4.3s-4.1,10.2,4.9,7.1c0,0-6.1,3.4,0.6,4.3c0,0-3.5,3.7-0.6,10
				c2.9,6.2-3.2,6.8-2.9,10c0.4,3.1,0.2,1.2-1.4,7.4c-1.8,6.2,3.2,17.4,3.5,21.4c0.2,4-3.5,5.5-0.2,9.2s-1.4,4.7-0.8,9.6
				c0.6,4.9,3.8,10.8,4.3,13.7c0.5,2.9-6.1-1.2-0.8,6.2s3.2-8.4,5.3,4.9c2,13.3,1.8,20.1,4.3,10.7s2.3-3.2-0.6-15.4
				c-2.9-12.1-1.4-30.4,0-21.7c1.4,8.6,1.2,10.6,2.9,9.2c1.8-1.2,4.9-5.9,2.6,1.8c-2.3,7.8-4.7-0.6-3.5,4.7c1.2,5.3,0,2.5,2.9,8.4
				s0.2,9.8,1.8,12.8s4.9-3.8,4.9-5.8c0-1.8,3.5,1.6,4.7,4.3c1.2,2.8,2,3.7,2.9-1c0.8-4.7,5.5-1,7,2.3s-0.2,4.8,4.7,1.7
				c4.9-3.1,8.4,0.6,9.6,0c1.2-0.6-2.6-9.6-2.3-10.6c0.2-1,2-3.4,0.8-5.9s-4.1-0.4-2-3.7c2-3.4,3.2-1.8,3.2-4.9s2-7.1,2-7.1
				s-3.2,1.8-0.2-3.1c2.9-4.9,4.7-2.2,4.9-7.8c0.2-5.6-3.8-7.1-3.8-13.3s-5.5-11.2-1.2-12.4c4.3-1.2,3.8-5.5,6.4-3.1
				c2.6,2.5,1.2,1.6,3.2-2.8c2-4.3,2.6-4.9,1.2-9c-1.4-4.1-4.1-3.1-2.9-7.4s2.3-9.2,0.8-12.7c-1.4-3.5-2.6-2.8-0.6-5.9
				s0.8-5.5,0.6-8.4s-2.5-4.9-1.4-8.6s-0.6-8,0-10.8s2-6,0.2-9s-1.2-6.1-0.8-9.1c0.2-3,1.1-5.6,3.6-9s7-8.5,4.6-5.2
				c-2.3,3.4-4.1,4.7-2.3,6.5s-0.6-3.4-0.2,3.4c0.2,6.8-2,5.3-1.2,10.2s-1.2,3.4-0.6,8.4c0.6,4.9-0.6,5.9,0,10s-1.4,3.4,0,8.6
				c0.4,1.3,0.7,2.6,1.2,3.7c1.2,3.5,2.5,5.8,2.9,4.6c0.6-1.6-2.3-1.6-0.6-8c1.8-6.5-0.2-3.7,2.3-3.4c2.6,0.4,5.3-2.2,1.8-5.9
				c-3.5-3.7-2,2.8-4.1,0.4c-2-2.5-3.8-6.5-2-9.6c1.8-3.1-0.6-9.6,2.3-7.4c2.9,2.2,2.6,4.7,2.9,2.2c0.2-2.5-1.8-4.7-2.6-4.9
				c-0.8-0.4-2.3,1-0.2-1.6c2-2.5,3.2-3.4,2.3-4.9c-1-1.6-2-1.2-1.8-2.5s0-6.8,1.8-4.9c1.8,1.8,1.4,4.1,2.6,2.2
				c1.2-1.8-4.1-2.5-0.8-5.9c3.2-3.4,2-4.1,3.8-6.5c1.8-2.5,1.8-2.5,1.8-2.5s0.6,11.2,1.8,4.3c1.2-6.8-0.6-9.6-0.6-10.6
				s-0.6-4.1,1.4-2.8s4.3,2.5,4.3,1.2s-2.3-4.3-2.3-4.3l-8.8-10C665.7,197,621.3,213.4,579.7,221z"/>
		</g>
		<g id="hand_outer">
			
				<linearGradient id="SVGID_13_" gradientUnits="userSpaceOnUse" x1="616.645" y1="9465.251" x2="616.645" y2="9329.4111" gradientTransform="matrix(1 0 0 1 0 -9232)">
				<stop  offset="0" style="stop-color:#FFFFCC"/>
				<stop  offset="0.1165" style="stop-color:#FAFFCB;stop-opacity:0.9417"/>
				<stop  offset="0.2573" style="stop-color:#EBFFC7;stop-opacity:0.8714"/>
				<stop  offset="0.4107" style="stop-color:#D3FFC1;stop-opacity:0.7947"/>
				<stop  offset="0.5729" style="stop-color:#B1FFB8;stop-opacity:0.7135"/>
				<stop  offset="0.7424" style="stop-color:#85FFAD;stop-opacity:0.6288"/>
				<stop  offset="0.9152" style="stop-color:#50FFA0;stop-opacity:0.5424"/>
				<stop  offset="1" style="stop-color:#33FF99;stop-opacity:0.5"/>
			</linearGradient>
			
				<linearGradient id="SVGID_14_" gradientUnits="userSpaceOnUse" x1="538.1252" y1="656.5734" x2="679.9253" y2="574.7051" gradientTransform="matrix(1 0 0 -1 0 770)">
				<stop  offset="0" style="stop-color:#FFFFCC"/>
				<stop  offset="0.1165" style="stop-color:#FAFFCB;stop-opacity:0.9417"/>
				<stop  offset="0.2573" style="stop-color:#EBFFC7;stop-opacity:0.8714"/>
				<stop  offset="0.4107" style="stop-color:#D3FFC1;stop-opacity:0.7947"/>
				<stop  offset="0.5729" style="stop-color:#B1FFB8;stop-opacity:0.7135"/>
				<stop  offset="0.7424" style="stop-color:#85FFAD;stop-opacity:0.6288"/>
				<stop  offset="0.9152" style="stop-color:#50FFA0;stop-opacity:0.5424"/>
				<stop  offset="1" style="stop-color:#33FF99;stop-opacity:0.5"/>
			</linearGradient>
			<path class="st18" d="M597.6,132.5c0,0-11.2-43.2-44.7-33.7c0,0-9,5.6-10.3,7.9c-1.3,2.4-4.3,10.8-7.3,14.5s-9,11.3-1.7,22.1
				l1.3,2.8c0,0-3.8,22.1,3.5,26.3l2.5,6.6c0,0,1.3,11.3,3.5,13.6c2.2,2.4,1.3-0.5,7.3,2.4c0,0,3,6.1,8.2,9.8
				c0,0,4.3,10.3,15.5,13.6c8.3,2.4,15.9,9.2,19.2,12.6c1.3,1.3,3.1,1.7,4.8,0.8c3.4-1.7,7.9-5.8,4-14.9c0,0,5.5,13.6,11.6,8.9
				s9,11.3,17.2,6.6c8.2-4.7,12-8.9,12-8.9s6.5-11.3,12.5-11.8s7.3-17.4,15-17.9c0,0,1.7-6.1,7.3-13.6s4.7-7.1,6.8-11.3
				c2.2-4.2,0.4-10.4,0.4-10.4s27.1,4.6,12.8-15.7c-0.6-0.8-1.3-1.6-2.2-2c-1.7-1-5.2-3.8-8.9-12.4c-0.5-1.1-1.2-2-2.2-2.8
				c-2.3-1.8-6.7-5.5-8-8.3c-1.7-3.7-5.2-14-13.7-15.5c-8.5-1.4-39,0.5-43,25.8c0,0-8.2,3.2-13.3,20.2
				C607.6,147.8,602.4,133.3,597.6,132.5z"/>
		</g>
		<g id="hand_lines">
			<g>
				<path d="M655.6,128.9c0.8,1.9,1.9,3.7,3.2,5.4c0.6,0.8,1.4,1.6,2.2,2.2c0.8,0.7,1.7,1.2,2.6,1.7l0,0l0,0c0.8,1.4,1.8,2.9,3,4.2
					c1.1,1.3,2.4,2.4,3.8,3.2l0,0l0,0c0.8,1.3,1.8,2.5,2.9,3.6c1.1,1.1,2.2,2.3,3.4,3.2c2.3,2,4.9,3.8,7.6,5.4
					c-1.4-0.7-2.8-1.4-4.1-2.4c-1.3-0.8-2.5-1.8-3.7-2.8s-2.3-2-3.4-3.2c-1.1-1.2-2-2.4-3-3.7l0.1,0.1c-1.6-0.8-2.9-2-4-3.4
					c-1.1-1.3-2.2-2.8-3-4.2l0.1,0.1c-1.9-1-3.6-2.4-4.8-4.1C657.4,132.6,656.3,130.8,655.6,128.9z"/>
			</g>
			<g>
				<path d="M662.2,153.2c-2.6,1.3-5.6,2.3-8.5,2.8c-3,0.5-6,0.6-9,0.4c-1.6-0.1-3-0.5-4.4-0.8c-1.4-0.5-2.9-1-4.2-1.7
					c-0.7-0.4-1.3-0.6-2-1.1l-1.9-1.2c-0.6-0.4-1.2-1-1.8-1.4l-1.7-1.4c2.3,1.9,4.7,3.7,7.4,4.9c1.3,0.7,2.8,1.1,4.2,1.6
					c1.4,0.4,2.9,0.7,4.3,0.8c3,0.4,6,0.2,8.9-0.2c1.4-0.2,2.9-0.6,4.3-1C659.5,154.3,660.8,153.8,662.2,153.2z"/>
			</g>
			<g>
				<path d="M672.8,156.6c-2.2-0.4-4.4,0-6.6,0.7c-2,0.7-4,2-5.5,3.6c-1.7,1.6-2.8,3.5-3.8,5.4c-0.5,1-1,2-1.3,3l-1.1,3.1l0.8-3.2
					c0.4-1.1,0.8-2.2,1.2-3.1l0.8-1.4l0.4-0.7l0.5-0.7l1-1.4l1.2-1.2c1.6-1.6,3.6-2.9,5.8-3.6c1.1-0.4,2.2-0.6,3.4-0.6
					C670.5,156.4,671.7,156.4,672.8,156.6z"/>
			</g>
			<g>
				<path d="M661.9,168.3c-1.3,0.7-2.5,1.6-3.7,2.5c-1.2,1-2.3,1.8-3.2,2.9c-1,1.1-1.9,2.3-2.6,3.5c-0.7,1.3-1.1,2.8-1.3,4.2
					c0-1.4,0.4-3,1-4.3s1.6-2.5,2.5-3.7c1.1-1.1,2.2-2,3.4-2.9C659.2,169.6,660.5,168.9,661.9,168.3z"/>
			</g>
			<g>
				<path d="M658.5,178.2c-4.1,1-7.9,3.2-10.6,6.6c-2.6,3.4-3.8,7.6-4,11.8l-0.1,1.6c0,0.5,0.1,1.1,0.1,1.6l0.1,1.6
					c0,0.5,0,1.1,0.2,1.6s0.5,0.8,0.8,1.2s0.8,0.5,1.4,0.6c1,0.2,2,0.4,3.1,0.4c2,0,4.1-0.7,5.9-1.9c1.8-1.1,3.2-2.6,4.6-4.3l0,0
					h0.1c1-0.2,1.8-0.7,2.6-1.3s1.6-1.3,2.2-2c0.6-0.7,1.2-1.7,1.7-2.5c0.2-0.5,0.5-1,0.6-1.3l0.5-1.4l0,0l0,0
					c1.7-1.1,3.4-2.4,4.8-3.8c1.6-1.4,3-2.9,4.2-4.4c1.2-1.7,2.4-3.4,3.2-5.3c0.8-1.9,1.2-4,1.3-6c0,2-0.4,4.1-1.2,6
					s-1.9,3.7-3.1,5.4c-1.2,1.7-2.8,3.1-4.2,4.6c-1.6,1.4-3.1,2.8-4.9,3.8l0.1-0.1l-0.5,1.4c-0.2,0.5-0.4,1-0.6,1.4
					c-0.5,1-1,1.8-1.7,2.6c-0.6,0.8-1.4,1.6-2.2,2.2c-0.8,0.6-1.8,1.1-2.8,1.3l0.1-0.1c-1.3,1.7-2.8,3.4-4.6,4.4
					c-1.8,1.2-4,1.9-6.1,1.9c-1.1,0-2.2-0.1-3.2-0.4c-0.5-0.1-1.1-0.4-1.6-0.7c-0.5-0.4-0.8-0.8-1-1.3s-0.2-1.1-0.2-1.6l-0.1-1.6
					c0-0.5-0.1-1.1-0.1-1.6l0.1-1.6c0.2-4.2,1.4-8.5,4.1-11.9c1.3-1.7,3-3,4.8-4.2C654.4,179.4,656.3,178.6,658.5,178.2z"/>
			</g>
			<g>
				<path d="M608.4,150.7c0,5,0,10.1-0.1,15.1s-0.1,10.1-0.2,15.1l0,0c0.2,1.7,0.4,3.2,0.4,4.9c0,0.8,0,1.7-0.2,2.5
					c-0.1,0.5-0.2,0.7-0.2,1.2c0,0.4,0.2,0.7,0.4,1.1c0.7,1.4,1.8,2.8,2.5,4.3c0.7,1.4,1.3,3.1,1.1,4.8c0.1-1.7-0.4-3.2-1.2-4.7
					c-0.8-1.4-1.8-2.8-2.5-4.2c-0.1-0.4-0.4-0.7-0.4-1.2c-0.1-0.5,0.1-1,0.2-1.3c0.2-0.8,0.2-1.6,0.2-2.4c0-1.7-0.1-3.2-0.4-4.9l0,0
					l0,0c0-5,0.2-10.1,0.4-15.1C608.1,160.8,608.2,155.8,608.4,150.7z"/>
			</g>
			<g>
				<path d="M621,194.8c1,0.2,1.9,0.5,2.9,0.8h0.1l-0.1,0.1c-0.8,1.8-1.3,3.8-1.8,5.8c-0.2,1-0.2,2-0.4,3c0,1,0.1,2,0.2,3
					c-0.6-1.9-0.6-4.1-0.4-6.1c0.4-2,1-4,1.9-5.9l0.1,0.2C622.8,195.5,621.9,195.2,621,194.8z"/>
			</g>
			<g>
				<path d="M647.3,182.7c-1.4,1.4-3,2.9-4.4,4.3l-2.3,2.2c-0.7,0.7-1.6,1.3-2.2,2.2c-1.2,1.7-2.3,3.5-3.4,5.2
					c-0.5,0.8-1.1,1.8-1.4,2.8c-0.5,1-1,1.9-1,2.9c0-1.1,0.4-2,0.7-3s0.8-1.9,1.3-2.8c1-1.8,2-3.6,3.2-5.3c0.7-0.8,1.6-1.4,2.3-2.2
					l2.3-2C644.2,185.3,645.8,184,647.3,182.7z"/>
			</g>
			<path class="st19" d="M583.5,178c0,0,2.3,6,1.7,9.4"/>
			<path class="st19" d="M608.1,212.9c0,0-5.2-8.4-8.6-10.3c0,0-2.3-9.1-6.2-11.5"/>
			<path class="st19" d="M556,159.5c0,0,9.7,6.2,7.4,12.8"/>
			<path class="st19" d="M559.7,170.8c0,0,8,1.9,10.3,11.5"/>
			<path class="st19" d="M566.6,181.3c0,0,28.6,7.8,19.2,28.1c0,0-5.4,2.5-14-3.1c0,0-5.8-1.6-10.3-6.6c0,0-5.3-3.4-8.4-2.6"/>
			<path class="st19" d="M570.8,180.4c0,0,10,1.6,11.8,8.4l2.5-0.4l3.5,0.4c8.3,4.1,10-6.8,10-6.8"/>
			<path class="st19" d="M582.6,210c0,0-14.4-15.6-10.9-3.7C571.8,206.4,579.5,210.6,582.6,210z"/>
			<path class="st19" d="M544.6,154.4c0,0,15.5-6.6,7.7-32.2"/>
			<path class="st19" d="M562.1,127.3c0,0,0.8,4.2-2.2,7.3c-1.2,1.2-2.9,2.3-5.4,2.9"/>
			<line class="st19" x1="564" y1="133.6" x2="559.8" y2="134.6"/>
			<path class="st19" d="M593.5,143.5c0,0,4.6-6,3.8-12"/>
		</g>
		<g id="Layer_5">
			<g class="st20">
				<path class="st21" d="M565.8,155.6c2.2,2.9,5.2,7.2,6.5,10.3c0.4,1.1-0.2,2.2-1.3,2.2c-2.5,0-6.4,0.2-4.8,1.9
					c0.4,0.4,0.8,0.6,1.3,0.7c1.6,0.2,5.2,1,1,2c-1,0.2-1.2,1.7-0.5,2.3c0.8,0.7,2.4,1.6,5.2,2.2c0,0,0.4,0.1,0.4,0.2
					c0.1,0.6,0.4,1.1,0.8,1.2c5.5,1.2,14.3,3.8,14.4,9.2c0,0.5-0.5,0.8-0.8,0.8c-1.7-0.5-5.4-1.1-2.9,2.2c3.1,4.1,4.1,1.2,3.1,4.1
					c-1,2.9-1.4,6.6,2,8.4c3.5,1.8,7.7,1.6,3.1,5.3s-6.2,8.4-5.8,11.3c0.6,2.8-3,2.6-0.1,4.8c2.8,2.2-0.7-5.4,1.6-7.3
					c2.3-1.9,3.1-10.7,7.7-7.6s3.7,5,6,6s0.7,2.6,3,5.6s1.9,0.2,1.9,5.3c0,5-3.7,3.7-0.8,8.4s2.5,8.4,7.2,5.3s6.8-6.8,5.2-9.1
					c-1.7-2.3-3.6-1.1-1.7-3.5c1.9-2.3-0.7-4.8,1.9-2.3c2.5,2.4,3.2,4.6,4.9,2.3c1.7-2.2,1.2-1.9,1.2-5s-2.3-2.2,0-4.3
					c2.3-2.2,2.5-4.7,1.2-3.7c-1.4,1-6.2-1-4.8,2.4c1.8,4.3,0.2,5.8-3.4,3.2c-0.4-0.2-0.8-0.6-1.9-1c-1.8-0.7-2.5-2.2-2.8-2.9
					c-0.1-0.4,0-0.7,0.2-0.8c0.6-0.5,1.8-1.1,2.8,0c1.4,1.6,1.2,2.2,2,0s-0.8-2.5,2.5-2.2c3.5,0.4,3.5-0.4,5.2-0.4s1.4-0.6,2.5-2.5
					c1.2-1.9-2.9-1,1.2-1.9c4.1-1,2.9-1.6,7.2-1.6s10.3-2.2,5.2,1.9c-5.2,4.1-7.2,4.1-5.2,6.6s0.8,5.3,2,2.5s-2.3-5-0.6-4.7
					c1.7,0.4,1.7-0.4,1.7,1.9s-1.2,4.7-2.3,7.6c-0.7,1.8-1,4-1.1,5.2c0,0.6,0.5,1,1,0.8c1.1-0.4,2.6-1.1,3-2.8
					c0.5-2.5-1.4-5,0.5-4.8c2,0.4-0.1,1.2,2,0.4c2-0.8,1.3-6.2,2.3-4.3s-0.2,8.4-0.2,14.6c0,6.2,3.1,5,0.8,10s-6,4.3-1.7,7.6
					c4.3,3.1-1.2,9.1,2.3,11.9s2.5,5.6,0.8,8.2c-1.6,2.2,0.2,5.3,0.7,6.1c0.1,0.1,0.1,0.2,0.1,0.4c0.1,0.8,0.4,4.2,1.4-0.2
					c1.2-5-0.2-4.3,0-6.6c0.2-2.2,0.2-2.2,3.1-3.1c2.9-1,6.2-1.9,1.4-2.8c-4.9-1-5.2-1.2-5.8-2.8c-0.6-1.6,2.5-6.2,4-9.4
					c1.4-3.1-2.5-2.8-5.2-2.8c-2.6,0-5.4,0.6-2.9-1.2c2.5-1.8,0.8-4.3,3.1-4.1c2.3,0.4,3.1,4.1,4.9,2.2c1.7-1.9,3.1-1,1.4-4.7
					c-1.7-3.7-3.5-4.7-4.6-6c-1.2-1.2-2.9,0.4-2.3-3.1c0.6-3.5,0-5,3.5-1.2c3.5,3.7,7.4,4.1,7.2,1.9s-3.5-2.2-4.9-6
					c-1.4-3.7-1.7-6-0.8-7.6c0.8-1.6,1.2,0,3.1,3.5c2,3.5,1.7,9.7,1.7,5c0-4.7,0.2-8.2,0.2-8.2s-1.7,0.6,1.4,2.8
					c3.1,2.2,3.5,2.5,3.5-1c0-3.2-0.5-7.6-0.6-8v-0.1c-0.1-0.5-1.2-5.4,1.7-2.2c3.1,3.5,3.5,4.3,3.5,1.9c0-2.5,0.2-5-0.8-5.6
					c-1.1-0.6-2.9-2.5-3.2-3l-0.1-0.1l-1.4-2.6c-0.2-0.4-0.7-0.5-1.1-0.2c-2.2,1.8-9.6,7.2-13.8,4.2c-5-3.5-1.7-14.9-1.7-14.9
					s1.7-5.4,5-7.9c0.4-0.2,0.5-0.7,0.2-1.1c-0.2-0.5-0.1-1.6,2.2-4.2c4.1-4.9,7.7-16.2,10.1-17.7c2.2-1.3-3-2-4.1-2.2
					c-0.1,0-0.2,0-0.4,0c-0.7,0.2-4,1.4-6.5,1.4c-2.9,0-8.3-2.4-10.6-3.1c-2.3-0.7-4.3-0.4-6.8-1s-8.3-2.2-8.3-2.2s0.8-0.6-3.7,2.2
					c-4.6,2.8-7.2,3.7-8.3,3.5s-2.5-1-5.5-1.9c-3-1,0.4-1.6-5.6-0.6c-5.6,0.8-10.8,0.1-11.4,0h-0.1c-0.4-0.1-1.8-0.6-3.1-0.6
					c-1.4,0,4.6-3.1-4-1.2c-8.6,1.9-8.9,2.2-10.3,1.9c-1.2-0.2-3-1.7-3.6-2c-0.1-0.1-0.2-0.1-0.4-0.1l-2.5-0.4
					C565.8,152.6,565,154.4,565.8,155.6z"/>
				<g>
					<path class="st16" d="M565.8,155.6c1.7,2.3,3.4,4.4,4.7,6.8c0.7,1.2,1.4,2.4,1.8,3.7c0.1,0.7-0.2,1.4-0.8,1.8
						c-0.4,0.1-0.7,0.1-1.1,0.1h-1.1c-0.7,0-1.4,0.1-2,0.2c-0.4,0.1-0.7,0.1-1,0.4c-0.2,0.1-0.6,0.5-0.5,0.8
						c0.2,0.6,0.8,1.1,1.6,1.2c0.7,0.1,1.3,0.2,2,0.5c0.4,0.1,0.7,0.2,1,0.5c0.1,0.1,0,0.4-0.1,0.5s-0.4,0.2-0.5,0.2
						c-0.4,0.1-0.6,0.2-1,0.4c-0.4,0.1-0.7,0.2-0.8,0.5c-0.5,0.5-0.4,1.4,0.1,1.8c0.6,0.5,1.2,0.7,1.8,1.1c0.6,0.2,1.3,0.5,1.9,0.7
						c0.4,0.1,0.7,0.2,1,0.2c0.1,0,0.4,0.1,0.5,0.1s0.2,0,0.2,0.2l0.1,0.2c0.1,0.4,0.2,0.7,0.6,0.8c0.4,0.1,0.7,0.1,1,0.2
						c0.7,0.1,1.3,0.4,2,0.5c2.6,0.7,5.4,1.7,7.8,3.1c1.2,0.7,2.3,1.7,3,2.9c0.1,0.4,0.4,0.6,0.5,1s0.2,0.7,0.2,1.1
						c0,0.4,0.1,0.7-0.1,1.1s-0.7,0.5-1,0.4c-0.7-0.1-1.3-0.2-2-0.4c-0.4,0-0.7,0-1,0.1c-0.4,0.1-0.5,0.5-0.4,0.7
						c0.1,0.6,0.6,1.2,1.1,1.8s1,1.1,1.4,1.4c0.2,0.2,0.6,0.4,0.8,0.5c0.1,0.1,0.4,0.1,0.5,0.1s0.5,0.1,0.5,0.4
						c-0.1,0.7-0.4,1.3-0.6,2c-0.4,1.3-0.6,2.8-0.4,4.1c0.2,1.3,1.1,2.6,2.2,3.4c1.2,0.7,2.5,1.1,3.8,1.7c0.4,0.1,0.6,0.2,1,0.5
						c0.2,0.1,0.6,0.5,0.7,0.8c0.1,0.2,0,0.4,0,0.6c-0.1,0.1-0.1,0.4-0.2,0.5c-0.2,0.2-0.5,0.6-0.7,0.8c-1.1,1-2.2,1.8-3,2.9
						c-1.8,2-3.4,4.6-3.7,7.3c-0.1,0.7,0,1.3,0.1,2s0,1.6-0.5,2c-0.2,0.2-0.5,0.5-0.6,0.8c-0.1,0.2-0.1,0.6,0.1,0.8
						c0.1,0.2,0.5,0.5,0.7,0.7s0.6,0.5,0.8,0.5c0.2,0.1,0.2-0.4,0.2-0.7s0-0.7-0.1-1.1c-0.1-0.7-0.2-1.4-0.2-2c0-0.7-0.1-1.4,0-2.2
						c0-0.4,0.1-0.7,0.2-1.1c0.1-0.4,0.5-0.6,0.7-0.8c1.8-2,2.2-5.2,4.1-7.2c0.5-0.5,1.2-0.8,2-0.8c0.7,0.1,1.4,0.5,1.9,0.8
						c1.2,0.8,2.3,1.7,3.1,2.9c0.5,0.6,0.8,1.2,1.2,1.7c0.4,0.6,1,1,1.6,1.2c0.4,0.1,0.6,0.4,0.8,0.6s0.4,0.7,0.5,1
						c0.1,0.7,0.2,1.3,0.5,2c0.5,1.3,1.3,2.4,2.3,3.4c0.1,0.1,0.2,0.2,0.4,0.4c0.1,0.1,0.2,0.4,0.2,0.6c0,0.4,0,0.7,0,1.1v2
						c0.5,3-3.5,5-1.2,7.7c0.7,1.2,1.4,2.4,1.9,3.7c0.4,0.6,0.6,1.3,1,1.8c0.4,0.6,0.7,1.2,1.3,1.3c0.6,0.1,1.3-0.1,1.8-0.4
						c0.6-0.4,1.2-0.7,1.7-1.1c1.1-0.8,2.2-1.7,3.1-2.8c0.8-1.1,1.7-2.2,1.9-3.5c0.1-0.6,0-1.3-0.4-1.8s-0.8-1-1.4-1.3
						c-0.2-0.2-0.6-0.2-1-0.6c-0.1-0.1-0.4-0.5-0.2-0.7c0-0.2,0.1-0.4,0.2-0.6c0.4-0.6,1-1.1,1.1-1.7c0.2-0.6,0.2-1.3,0.1-1.9v-0.1
						c0-0.1,0-0.1,0.1-0.4c0.2-0.1,0.4,0,0.4,0l0.1,0.1c0.1,0.1,0.2,0.2,0.4,0.4l0.7,0.7c0.5,0.5,1,1,1.4,1.6c0.5,0.5,1,1.1,1.4,1.3
						c0.5,0.4,1.1-0.1,1.4-0.6c0.4-0.5,0.8-1.1,1.1-1.7c0.2-0.6,0.1-1.3,0.1-1.9c0-0.7,0-1.4-0.1-2c0-0.4-0.1-0.6-0.2-1
						c-0.1-0.2-0.4-0.5-0.6-0.8c-0.1-0.2-0.1-0.5,0-0.7s0.2-0.4,0.4-0.5c0.2-0.2,0.5-0.5,0.7-0.8c0.5-0.5,1-1,1.3-1.6
						c0.4-0.6,0.7-1.2,0.6-1.8c0-0.1,0-0.1-0.1-0.1c0,0-0.2,0-0.4,0.1c-0.4,0.2-0.7,0.4-1.1,0.4c-0.7,0.1-1.4,0-2.2,0
						c-0.4,0-0.7,0-1,0.1c-0.4,0-0.6,0.1-0.7,0.4c-0.1,0.1,0,0.2-0.1,0.4c0,0.1,0,0.2,0.1,0.5c0.1,0.4,0.2,0.6,0.4,1
						c0.2,0.7,0.5,1.3,0.6,2c0,0.4,0,0.7,0,1.1c-0.1,0.4-0.4,0.8-0.7,1c-0.8,0.4-1.6,0-2.3-0.2c-0.6-0.2-1.3-0.7-1.8-1.1
						c-0.6-0.4-1.2-0.5-1.9-0.8c-0.7-0.4-1.3-0.8-1.7-1.4c-0.2-0.2-0.4-0.6-0.6-1c-0.1-0.1-0.1-0.4-0.2-0.5c-0.1-0.2-0.1-0.5,0-0.7
						s0.2-0.5,0.4-0.6c0.1-0.1,0.4-0.2,0.5-0.4c0.4-0.1,0.7-0.4,1.1-0.4c0.4,0,0.8,0.1,1.1,0.4c0.4,0.2,0.6,0.5,0.7,0.8
						c0.2,0.2,0.5,0.6,0.6,0.8c0,0,0.1,0,0,0s0,0,0,0c0.1-0.1,0.1-0.2,0.2-0.5c0.2-0.6,0.5-1.3,0.6-1.9c0-0.1,0-0.4,0-0.5
						s0-0.2,0-0.4c0-0.1,0.1-0.2,0.4-0.4c0.5-0.1,0.8-0.1,1.2-0.1c1.4,0.1,2.8,0.2,4.1,0.1c0.6-0.1,1.4-0.4,2.2-0.2
						c0.4,0,0.7,0,0.8-0.1c0.2-0.1,0.4-0.4,0.6-0.6c0.2-0.6,0.7-1.3,1-1.8c0.1-0.2,0.1-0.4-0.1-0.5c-0.1-0.1-0.2-0.1-0.5-0.2
						c-0.4-0.4,0.1-0.7,0.1-0.6h0.1l0.2-0.1c1.3-0.4,2.8-0.6,4-1.1c0.6-0.2,1.3-0.6,2-0.6c0.7-0.1,1.4-0.1,2.2-0.1
						c1.4,0,2.8-0.1,4.1-0.4c0.7-0.1,1.4-0.2,2.2-0.2c0.4,0,0.7,0,1.2,0.1c0.1,0,0.2,0.1,0.4,0.2c0.1,0.1,0.1,0.1,0.1,0.2
						c0,0.1,0,0.1,0,0.2c-0.1,0.2-0.2,0.5-0.4,0.6c-1,1.1-2.2,1.9-3.2,2.8c-1.1,0.8-2.3,1.6-3.4,2.4c-0.5,0.5-1.1,0.8-0.8,1.3
						c0.1,0.6,0.6,1.1,1.1,1.7c0.4,0.6,0.7,1.3,0.8,2c0.1,0.4,0.1,0.7,0.2,1.1v0.1c0,0,0.1,0.1-0.1-0.1c-0.5,0-0.2,0.1-0.4,0v-0.1
						l0.2-0.5c0.2-0.7,0.5-1.2,0.4-1.8s-0.4-1.2-0.6-1.8c-0.1-0.4-0.4-0.6-0.6-1c0-0.1-0.1-0.2,0-0.6c0.1-0.1,0.2-0.2,0.4-0.2
						s0.1,0,0.2,0c0.2,0,0.4,0,0.6,0.1c0.4,0,0.6,0,1.1,0.1c0.1,0,0.2,0.1,0.4,0.2c0.1,0.1,0.1,0.2,0.2,0.4c0,0.2,0,0.4,0.1,0.6
						c0,0.7,0,1.4-0.1,2.2c-0.1,0.7-0.4,1.4-0.5,2c-0.5,1.3-1,2.6-1.6,4c-0.6,1.2-0.8,2.6-1.1,4c0,0.4-0.1,0.7-0.1,1.1
						c0,0.1,0,0.4,0,0.5s0,0.2,0.1,0.2c0,0.1,0.1,0.1,0.2,0.1h0.1l0.2-0.1c0.4-0.1,0.6-0.2,0.8-0.4c0.6-0.4,1.1-0.7,1.3-1.3
						c0.4-0.5,0.4-1.2,0.4-1.8s-0.1-1.3-0.4-2c-0.1-0.4-0.1-0.7-0.1-1.2c0-0.1,0-0.2,0.1-0.4c0.1-0.1,0.2-0.2,0.4-0.4
						c0.2-0.1,0.5-0.1,0.7-0.1c0.5,0,0.7,0.1,1.2,0.4c0.1,0.1,0.2,0.2,0.2,0.5c0,0.1,0,0.2,0,0.2c0.2,0-0.5-0.5-0.4-0.4l0.4-0.1
						l0.5-0.2c0.1,0,0.2-0.1,0.4-0.2c0.2-0.2,0.4-0.5,0.5-0.7c0.2-0.6,0.4-1.2,0.5-1.9l0.1-1.1c0-0.2,0-0.4,0.2-0.6
						c0-0.1,0.2-0.2,0.5-0.2s0.2,0.1,0.4,0.2c0.1,0.1,0.1,0.2,0.2,0.2c0.4,0.7,0.4,1.6,0.5,2.2c0,0.7,0,1.4,0,2.2
						c-0.1,1.4-0.2,2.8-0.2,4.2c-0.1,1.4-0.2,2.8-0.2,4.2c0,1.4-0.1,2.8,0.1,4.1c0.1,0.7,0.2,1.3,0.5,1.9c0.2,0.6,0.6,1.2,0.8,1.9
						c0.4,0.7,0.4,1.6,0.2,2.3s-0.5,1.4-0.7,2c-0.6,1.3-1.4,2.5-2.4,3.6c-0.5,0.5-1.1,1.1-1.2,1.4c-0.2,0.4,0.2,0.8,0.7,1.3
						s1.1,0.8,1.7,1.3c0.2,0.2,0.5,0.6,0.7,1c0.1,0.4,0.4,0.7,0.5,1.1c0.4,1.6,0.1,3-0.1,4.3c-0.2,1.3-0.5,2.8-0.1,3.8
						c0,0.1,0.1,0.2,0.2,0.4c0.1,0.1,0.1,0.2,0.2,0.4c0.2,0.2,0.4,0.5,0.7,0.7c0.6,0.5,1.1,1.1,1.4,1.7c0.4,0.6,0.6,1.4,0.7,2.2
						c0.1,0.7-0.1,1.6-0.4,2.3c-0.2,0.7-0.6,1.3-1,1.9c-0.2,0.4-0.4,0.6-0.5,0.8c-0.1,0.2-0.2,0.6-0.2,0.8c-0.1,1.2,0.4,2.5,1,3.7
						l0.2,0.5c0.1,0.1,0.2,0.5,0.2,0.7c0,0.4,0.1,0.7,0.1,1c0,0.1,0,0.4,0.1,0.5c0,0.1,0,0.1,0.1,0.1l0,0c0,0,0,0-0.1,0
						c-0.2,0-0.2,0.1-0.2,0c0,0,0-0.1,0.1-0.1c0.1-0.1,0.1-0.2,0.1-0.5c0.4-1.3,0.7-2.6,0.8-4c0-0.7,0-1.3-0.2-1.9
						c-0.1-0.4-0.2-0.7-0.2-1.1s0-0.8,0.1-1.1c0-0.4,0.1-0.7,0.2-1.1c0.1-0.4,0.4-0.8,0.7-1.1c0.7-0.5,1.3-0.6,2-0.8
						c1.3-0.5,2.8-0.8,3.8-1.4c0.1-0.1,0.2-0.1,0.2-0.2v0.1l0,0c-0.2-0.1-0.5-0.2-0.8-0.4c-0.6-0.2-1.3-0.4-2-0.5s-1.3-0.2-2-0.5
						c-0.7-0.2-1.4-0.4-2-0.8c-0.4-0.2-0.6-0.6-0.8-1c-0.1-0.4-0.4-0.6-0.4-1.1c0-0.8,0.2-1.6,0.5-2.2c0.6-1.3,1.2-2.5,1.9-3.8
						c0.6-1.2,1.3-2.5,1.8-3.7c0.1-0.2,0.1-0.6,0.1-0.8c0-0.2-0.2-0.5-0.5-0.6c-0.5-0.2-1.2-0.4-1.8-0.5c-1.3-0.1-2.8,0-4.1,0
						c-0.7,0-1.3,0.1-2.2,0c-0.1,0-0.2,0-0.4-0.1c-0.1,0-0.4-0.2-0.4-0.5c0-0.5,0.2-0.5,0.4-0.7s0.6-0.5,0.8-0.7
						c0.5-0.4,1-0.8,1.2-1.4s0.2-1.2,0.6-2c0.1-0.2,0.4-0.4,0.6-0.5c0.2-0.1,0.5-0.1,0.6-0.1c0.4,0,0.8,0.1,1.2,0.2
						c0.7,0.4,1.2,1,1.7,1.4c0.5,0.5,1,1.1,1.4,1.1c0.2,0,0.5-0.2,0.6-0.4c0.2-0.2,0.5-0.5,0.8-0.7c0.6-0.5,1.3-0.7,1.3-1.2
						s-0.2-1.2-0.5-1.8c-0.6-1.3-1.2-2.5-2-3.6s-1.9-1.9-2.9-3c-0.2-0.2-0.5-0.2-0.8-0.4c-0.4-0.1-0.7-0.1-1.1-0.5
						c-0.4-0.4-0.4-0.8-0.5-1.2c0-0.4,0-0.7,0.1-1.1c0.1-0.7,0.2-1.3,0.2-2c0-0.4,0.1-0.7,0.2-1.1l0.1-0.2c0.1-0.1,0.1-0.2,0.2-0.4
						c0.4-0.2,0.6-0.1,0.8,0c0.7,0.4,1.2,1,1.7,1.4c0.5,0.5,1,1.1,1.4,1.4c1,1,2.2,1.7,3.4,2.2c0.6,0.2,1.3,0.4,1.9,0.1
						c0.6-0.1,0.7-0.7,0.5-1.3c-0.2-0.6-0.7-1-1.2-1.4c-0.6-0.4-1.1-0.8-1.7-1.3c-1.1-1-1.8-2.4-2.2-3.7c-0.5-1.3-0.8-2.6-1-4.1
						c0-0.7,0-1.4,0.2-2.2c0.1-0.4,0.2-0.7,0.6-1c0.1-0.1,0.1-0.1,0.4-0.2c0.1-0.1,0.4,0,0.5,0c0.2,0.1,0.4,0.4,0.5,0.5
						c0.7,1.2,1.3,2.5,2,3.7c0.7,1.3,1.1,2.6,1.3,4.1c0.1,0.7,0.2,1.4,0.4,2v0.5c-0.2,0,0.6,0.1-0.5,0.1c0,0,0,0,0-0.1v-0.2v-1.1
						c0-2.8,0.1-5.6,0.2-8.4l0.4,0.2c-0.2,0.1-0.4,0.4-0.2,0.6c0.1,0.2,0.4,0.6,0.6,0.8c0.6,0.5,1.2,1,1.8,1.4
						c0.4,0.2,0.6,0.5,1,0.6c0.4,0.2,0.7,0.4,1,0.5c0.1,0.1,0.2-0.2,0.4-0.7c0-0.4,0-0.7,0.1-1.2c0-1.6-0.1-3.1-0.1-4.7
						c-0.1-1.6-0.2-3.1-0.5-4.7c-0.1-0.4-0.1-0.8-0.1-1.2s0-0.8,0.1-1.3c0.1-0.1,0.1-0.2,0.4-0.2c0.1,0,0.1,0,0.2-0.1h0.2
						c0.2,0,0.5,0.2,0.6,0.4c0.4,0.2,0.6,0.6,0.8,0.8l1.6,1.8l0.7,0.8c0.1,0.1,0.2,0.2,0.4,0.4c0.1,0.1,0.4,0.2,0.2,0.2
						c0,0,0.1-0.2,0.1-0.4s0-0.4,0-0.6v-1.2c0-0.8,0-1.6,0-2.4c0-0.7-0.1-1.6-0.6-2c-0.6-0.4-1.3-1-1.8-1.4
						c-0.6-0.6-1.1-1.1-1.7-1.8c-0.4-0.7-0.7-1.4-1.1-2c-0.2-0.4-0.4-0.7-0.6-0.8c-0.2-0.1-0.5,0-0.8,0.2c-0.6,0.5-1.3,1-1.9,1.4
						c-1.3,0.8-2.6,1.7-4.1,2.3s-3,1.1-4.6,1.2c-0.8,0-1.7-0.1-2.4-0.5c-0.4-0.2-0.7-0.4-1.1-0.7c-0.4-0.2-0.6-0.5-0.8-0.8
						c-1-1.3-1.4-2.9-1.6-4.4c-0.4-3.1,0.2-6.4,1-9.4c0.5-1.6,1.2-3,1.9-4.3c0.8-1.3,1.8-2.6,3-3.7c0.4-0.2,0.5-0.5,0.4-0.8
						c0,0-0.1-0.1-0.1-0.2c0-0.1,0-0.2,0-0.4s0-0.5,0.1-0.6c0.2-0.7,0.7-1.4,1.2-2c1-1.2,1.9-2.4,2.8-3.8c1.7-2.6,2.9-5.5,4.3-8.4
						c0.7-1.4,1.3-2.9,2.2-4.2c0.4-0.7,0.8-1.3,1.3-1.9c0.2-0.4,0.7-0.5,0.8-0.7c0.2-0.2,0-0.5-0.4-0.7c-0.7-0.4-1.4-0.5-2.2-0.7
						c-0.4-0.1-0.7-0.1-1.2-0.2l-0.6-0.1c-0.1,0-0.4,0-0.5,0.1c-1.4,0.6-3,1-4.6,1.3c-0.8,0.1-1.6,0.2-2.4,0.1
						c-0.8-0.1-1.6-0.2-2.3-0.5c-1.6-0.4-3-1-4.4-1.4c-1.4-0.5-2.9-1.2-4.4-1.4c-1.6-0.2-3.1-0.2-4.7-0.5c-3.1-0.7-6.1-1.6-9.1-2.4
						h-0.1l0.1-0.1l0,0l0,0c0.1,0.2,0,0,0.1,0.1l0,0h-0.1l-0.2,0.1l-0.5,0.2l-1,0.6l-1.8,1.1c-1.2,0.7-2.4,1.4-3.7,2.2
						c-1.3,0.6-2.6,1.3-4.1,1.4c-0.7,0.1-1.4-0.2-2-0.5l-2-0.7c-0.7-0.2-1.3-0.5-2-0.7c-0.4-0.1-0.7-0.2-1-0.4
						c-0.1-0.1-0.4-0.2-0.5-0.4c-0.1-0.1-0.2-0.2-0.4-0.4c-0.2-0.1-0.7,0-1.1,0l-1.1,0.1l-2.2,0.4c-2.9,0.4-5.8,0.5-8.5,0.2
						c-0.7,0-1.4-0.1-2.2-0.2c-0.4,0-0.7-0.1-1.1-0.2c-0.4-0.1-0.7-0.2-1.1-0.2c-0.4-0.1-0.7-0.1-1.1-0.1c-0.2,0-0.4,0-0.6,0
						c-0.1,0-0.1-0.2-0.1-0.2c0-0.1,0.1-0.1,0.1-0.2c0.2-0.2,0.5-0.5,0.7-0.8c0.1-0.1,0.1-0.4,0-0.5s-0.4-0.1-0.5-0.1
						c-1.4,0-2.9,0.4-4.2,0.6l-4.2,1c-1.4,0.4-2.8,0.7-4.2,1c-0.7,0.1-1.4,0.1-2.2-0.1c-0.7-0.2-1.3-0.6-1.9-1
						c-0.2-0.2-0.6-0.4-0.8-0.6s-0.5-0.5-1-0.5l-2.2-0.2c-0.7-0.2-1.4,0.1-1.8,0.7C565.3,154.3,565.4,155.2,565.8,155.6z
						 M565.8,155.6c-0.5-0.6-0.5-1.4-0.1-2c0.1-0.4,0.5-0.6,0.7-0.7c0.4-0.1,0.7-0.1,1.1-0.1l2.2,0.2c0.4,0,0.6,0.4,1,0.5
						c0.2,0.2,0.6,0.4,0.8,0.6c0.6,0.4,1.2,0.7,1.9,1c0.7,0.2,1.4,0.2,2.2,0.1c1.4-0.2,2.8-0.6,4.2-1l4.2-1c1.4-0.2,2.8-0.6,4.2-0.6
						c0.1,0,0.4,0,0.5,0.1c0.2,0.1,0.1,0.4,0.1,0.5c-0.2,0.4-0.5,0.6-0.7,0.8c-0.1,0.1-0.2,0.4-0.1,0.4c0.1,0,0.4,0,0.5,0
						c0.4,0,0.7,0.1,1.1,0.1c0.4,0.1,0.7,0.1,1.1,0.2c0.4,0.1,0.7,0.2,1.1,0.2c0.7,0.1,1.4,0.1,2.2,0.2c2.9,0.2,5.8,0.1,8.5-0.2
						l2.2-0.4l1.1-0.1c0.4,0,0.7-0.1,1.1,0c0.5,0.6,1.1,0.8,1.8,1.1c0.7,0.2,1.3,0.5,2,0.7l2,0.7c0.7,0.2,1.3,0.6,2,0.5
						c1.4-0.1,2.8-0.8,4-1.4c1.3-0.6,2.5-1.3,3.7-2.2l1.8-1.1l1-0.6l0.5-0.2l0.2-0.1l0.1-0.1l0,0c0,0,0-0.1,0.1,0.1l0,0H626v-0.1
						c3,0.7,6.1,1.7,9.1,2.4c1.6,0.2,3.1,0.2,4.7,0.5c1.6,0.2,3,1,4.6,1.4c1.4,0.5,3,1.1,4.4,1.4c1.6,0.5,3.1,0.6,4.6,0.4
						c1.6-0.2,3-0.7,4.6-1.3c0.1-0.1,0.4-0.1,0.6-0.1l0.6,0.1c0.4,0.1,0.7,0.1,1.2,0.2c0.7,0.1,1.6,0.4,2.3,0.7
						c0.1,0.1,0.4,0.2,0.5,0.4s0.1,0.6-0.1,0.7c-0.4,0.4-0.6,0.5-1,0.7c-0.5,0.6-1,1.2-1.3,1.9c-0.7,1.3-1.4,2.8-2.2,4.2
						c-1.3,2.9-2.6,5.8-4.3,8.4c-0.8,1.3-1.8,2.6-2.8,3.8c-0.5,0.6-0.8,1.3-1.2,2c-0.1,0.4-0.1,0.7,0,1.1c0.1,0.5-0.1,1-0.5,1.2
						c-1.2,1-2.2,2.3-2.9,3.6s-1.4,2.8-1.9,4.2c-0.7,3-1.2,6.1-1,9.2c0.1,1.6,0.6,3.1,1.6,4.3c0.2,0.4,0.5,0.6,0.8,0.8
						c0.2,0.2,0.6,0.4,1,0.6c0.7,0.2,1.4,0.5,2.2,0.5c1.6,0,3-0.5,4.4-1.1s2.8-1.4,4.1-2.3c0.6-0.5,1.3-1,1.9-1.3
						c0.1-0.1,0.2-0.2,0.6-0.4c0.2-0.1,0.5,0,0.7,0.1s0.4,0.4,0.5,0.5l0.2,0.5l1.1,2c0.5,0.6,1.1,1.2,1.6,1.7
						c0.6,0.6,1.1,1.1,1.8,1.4c0.7,0.7,0.7,1.6,0.7,2.4s0,1.6,0,2.4v1.2c0,0.2,0,0.4,0,0.6c0,0.1,0,0.2,0,0.4c0,0.1,0,0.2-0.2,0.4
						c-0.2,0.1-0.5,0-0.5,0c-0.1-0.1-0.2-0.1-0.2-0.2c-0.1-0.1-0.2-0.2-0.5-0.5L665,212l-1.6-1.8c-0.2-0.2-0.5-0.6-0.8-0.7
						c-0.4-0.2-0.6-0.4-0.7-0.1c-0.2,0.6-0.1,1.4,0,2.2c0.4,1.6,0.4,3.1,0.6,4.7c0.1,1.6,0.2,3.1,0.2,4.7c0,0.4,0,0.8-0.1,1.2
						c0,0.2,0,0.4-0.1,0.6c0,0.2-0.4,0.5-0.7,0.5c-0.5,0-0.8-0.4-1.2-0.5c-0.4-0.2-0.7-0.5-1-0.7c-0.6-0.5-1.3-0.8-1.9-1.4
						c-0.2-0.2-0.6-0.6-0.7-1.1c-0.1-0.2-0.1-0.5,0-0.7s0.4-0.5,0.6-0.6l0.4-0.1v0.5c-0.2,2.8-0.2,5.5-0.2,8.4v1.1v0.2
						c0,0.1,0,0,0,0.2c-1.1-0.1-0.4-0.1-0.6-0.1V228c-0.1-0.7-0.1-1.3-0.4-2c-0.2-1.3-0.6-2.6-1.3-3.8s-1.3-2.5-2-3.6
						c-0.1-0.1-0.2-0.2-0.2-0.2s0,0-0.1,0.1c-0.1,0.2-0.4,0.5-0.5,0.8c-0.2,0.6-0.2,1.3-0.2,1.9c0.1,1.3,0.5,2.6,1,4
						c0.5,1.3,1.1,2.5,2,3.5c0.5,0.5,1.1,0.8,1.6,1.3c0.6,0.4,1.2,1,1.4,1.7c0.1,0.4,0.2,0.8,0,1.2c-0.1,0.5-0.5,0.7-1,0.8
						c-0.8,0.2-1.6,0-2.3-0.1c-1.4-0.5-2.6-1.3-3.6-2.3c-0.5-0.5-1-1-1.4-1.6c-0.5-0.5-1-1-1.4-1.3c-0.2-0.4-0.4,0.6-0.5,1.2
						c-0.1,0.7-0.1,1.4-0.2,2c0,0.4-0.1,0.7-0.1,1c0,0.4,0.1,0.6,0.2,0.7c0.2,0.2,1.3,0.1,1.9,0.7c1,1,2,1.9,3,3
						c0.8,1.1,1.6,2.4,2.2,3.7c0.2,0.7,0.6,1.3,0.6,2.2c0,0.5-0.4,0.8-0.7,1.1c-0.4,0.2-0.6,0.4-0.8,0.6s-0.5,0.5-0.7,0.6
						c-0.2,0.2-0.6,0.6-1.1,0.6s-0.8-0.2-1.2-0.5c-0.2-0.2-0.5-0.5-0.7-0.7c-0.5-0.5-1-1-1.4-1.2c-0.5-0.2-1.3-0.4-1.4,0
						c-0.2,0.5-0.2,1.3-0.6,1.9c-0.2,0.7-0.8,1.3-1.4,1.8c-0.2,0.2-0.6,0.4-0.7,0.6l-0.1,0.1c0,0,0,0.1,0,0v-0.1l0,0h0.1
						c0.6,0.1,1.3,0,2,0c1.4,0,2.8-0.1,4.2,0c0.7,0.1,1.4,0.1,2.2,0.6c0.4,0.2,0.7,0.6,0.7,1.1c0.1,0.5,0,0.8-0.1,1.2
						c-0.6,1.4-1.2,2.5-1.9,3.8c-0.6,1.2-1.3,2.4-1.8,3.7c-0.2,0.6-0.5,1.3-0.5,1.8c0,0.2,0.2,0.6,0.4,0.8s0.4,0.5,0.6,0.6
						c0.5,0.4,1.2,0.5,1.8,0.7c0.7,0.1,1.3,0.4,2,0.5s1.3,0.2,2,0.5c0.4,0.1,0.7,0.2,1.1,0.5c0.1,0.1,0.2,0.1,0.2,0.4
						c0.1,0.1,0.1,0.5,0,0.6c-0.1,0.2-0.4,0.4-0.5,0.5c-1.3,0.7-2.6,1.1-4,1.6c-0.6,0.2-1.3,0.5-1.8,0.7c-0.4,0.2-0.5,1-0.6,1.7
						s-0.1,1.2,0.1,1.9c0.2,0.7,0.4,1.4,0.2,2.2c-0.1,1.4-0.4,2.8-0.8,4.2c-0.1,0.1-0.1,0.4-0.2,0.6c0,0.1-0.1,0.2-0.2,0.4
						c0,0.1-0.2,0.4-0.6,0.2c-0.2-0.1-0.2-0.1-0.4-0.2c-0.1-0.1-0.1-0.1-0.1-0.2s-0.1-0.2-0.1-0.4c0-0.2-0.1-0.4-0.1-0.6
						c-0.1-0.4-0.1-0.7-0.1-1.1c0-0.1,0-0.1-0.1-0.2l-0.2-0.5c-0.7-1.3-1.2-2.8-1.1-4.2c0-0.4,0.1-0.7,0.2-1.1
						c0.1-0.4,0.4-0.7,0.6-1c0.4-0.6,0.7-1.2,0.8-1.8c0.5-1.2,0.4-2.5-0.4-3.6c-0.4-0.6-0.7-1.1-1.3-1.4c-0.2-0.2-0.5-0.5-0.8-0.7
						c-0.1-0.1-0.2-0.4-0.4-0.5c-0.1-0.1-0.2-0.4-0.2-0.5c-0.5-1.6-0.2-3,0-4.3c0.2-1.3,0.5-2.8,0.1-4c0-0.4-0.2-0.6-0.4-0.8
						c-0.2-0.2-0.4-0.5-0.6-0.7c-0.5-0.5-1.1-0.8-1.6-1.3c-0.1-0.1-0.2-0.2-0.4-0.4c-0.1-0.1-0.2-0.2-0.4-0.5
						c-0.1-0.1-0.2-0.4-0.2-0.6s0-0.5,0.1-0.7c0.2-0.5,0.5-0.7,0.7-1l0.7-0.7c1-1,1.7-2,2.3-3.4c0.5-1.2,1.1-2.5,0.5-3.7
						c-0.2-0.6-0.6-1.2-0.8-1.9c-0.2-0.7-0.4-1.4-0.5-2.2c-0.1-1.4-0.1-2.9-0.1-4.2c0-1.4,0.1-2.8,0.2-4.2c0.1-1.4,0.2-2.8,0.2-4.2
						c0-0.7,0-1.4,0-2c0-0.7-0.1-1.3-0.4-1.9l-0.1-0.1c0,0,0,0,0.1,0s0.2-0.1,0.2-0.1s-0.1,0.2-0.1,0.4l-0.1,1.1
						c-0.1,0.7-0.2,1.4-0.6,2.2c-0.1,0.4-0.4,0.7-0.7,1c-0.1,0.1-0.4,0.2-0.6,0.4l-0.5,0.2c-0.2,0.1-0.2,0.1-0.6,0.2
						c0,0.2-0.7-0.4-0.5-0.5c0-0.1,0-0.1,0-0.1l0,0c-0.1-0.1-0.5-0.2-0.7-0.2c-0.1,0-0.2,0-0.2,0l0,0c0,0,0,0,0,0.1
						c0,0.2,0,0.6,0.1,1c0.1,0.7,0.4,1.4,0.4,2.2c0,0.7-0.1,1.6-0.5,2.3s-1,1.2-1.7,1.6c-0.4,0.1-0.7,0.4-1,0.5l-0.2,0.1
						c-0.1,0-0.2,0-0.4,0s-0.5-0.2-0.7-0.4c-0.1-0.2-0.2-0.5-0.2-0.7s0-0.4,0-0.6c0-0.4,0.1-0.7,0.1-1.1c0.2-1.4,0.5-2.9,1.1-4.1
						c1-2.6,2.3-5.2,2.2-7.9c0-0.1,0-0.4,0-0.5s0,0-0.1-0.1c-0.2,0-0.7,0-1-0.1c-0.2,0-0.4-0.1-0.5-0.1s0,0.1,0.1-0.1
						c0-0.1,0-0.1,0,0c0.1,0.2,0.4,0.6,0.5,0.8c0.4,0.6,0.7,1.3,0.7,2c0.1,0.7-0.1,1.6-0.5,2.2l-0.2,0.5l-0.1,0.1
						c-0.1,0,0.1,0.2-0.5,0.2c-0.4-0.2-0.2-0.2-0.2-0.4v-0.1c0-0.4-0.1-0.7-0.2-1c-0.1-0.6-0.4-1.3-0.7-1.8s-1-1.1-1.1-1.9
						c-0.1-0.5,0-1,0.2-1.2c0.2-0.4,0.5-0.6,0.8-0.8c1.2-0.8,2.3-1.6,3.4-2.4c1.1-0.8,2.3-1.7,3.1-2.6c0.1-0.1,0.1-0.2,0.2-0.4l0,0
						l0,0c-0.2-0.1-0.6,0-1,0c-0.7,0-1.3,0.1-2,0.2c-1.3,0.2-2.8,0.4-4.2,0.4c-0.7,0-1.4,0-2,0.1c-0.7,0.1-1.3,0.4-1.9,0.6
						c-1.3,0.5-2.8,0.8-4.1,1.2l-0.2,0.1H628c-0.1,0.1,0.2-0.2,0-0.5h0.1c0.1,0,0.2,0.1,0.2,0.1c0.2,0.1,0.4,0.2,0.5,0.5
						c0.1,0.2,0,0.5,0,0.7c-0.2,0.4-0.4,0.6-0.5,1l-0.5,1c-0.1,0.4-0.4,0.7-0.8,0.8c-0.4,0.2-0.8,0.2-1.2,0.2c-0.7,0-1.3,0.1-2,0.2
						c-1.4,0.2-2.9,0-4.2-0.1c-0.4,0-0.7,0-0.8,0c0-0.1,0,0.4,0,0.7c0,0.7-0.4,1.4-0.6,2c-0.1,0.1-0.1,0.4-0.2,0.5
						c0,0.1-0.1,0.2-0.4,0.4c-0.4,0-0.4-0.1-0.5-0.2c-0.2-0.4-0.5-0.6-0.7-0.8c-0.5-0.6-0.8-1-1.4-1c-0.2,0-0.6,0.1-0.8,0.2
						c-0.1,0.1-0.2,0.1-0.4,0.2c-0.1,0.1-0.1,0.1-0.2,0.2c0,0.1,0,0.2,0,0.4c0,0.1,0.1,0.4,0.1,0.5c0.1,0.4,0.2,0.6,0.5,0.8
						c0.4,0.5,1,1,1.4,1.2c0.6,0.2,1.3,0.5,1.9,0.8c0.6,0.4,1.2,0.7,1.8,1.1c0.6,0.2,1.3,0.5,1.8,0.4c0.5-0.2,0.6-1,0.5-1.6
						s-0.2-1.3-0.5-1.9c-0.1-0.4-0.2-0.6-0.4-1c0-0.1-0.1-0.4-0.1-0.6c0-0.2,0-0.5,0.1-0.6c0.2-0.5,0.7-0.6,1.1-0.6
						c0.4-0.1,0.7-0.1,1.1-0.1c0.7,0,1.4,0.1,2,0c0.4,0,0.6-0.1,0.8-0.2c0.1-0.1,0.4-0.2,0.6-0.2c0.4,0,0.6,0.4,0.5,0.6
						c0,0.8-0.4,1.4-0.7,2.2c-0.4,0.6-0.8,1.2-1.3,1.7c-0.2,0.2-0.5,0.5-0.7,0.7s-0.4,0.5-0.2,0.7c0.1,0.2,0.4,0.6,0.6,0.8
						c0.1,0.4,0.2,0.7,0.4,1.1c0.1,0.7,0,1.4,0.1,2.2c0,0.7,0.2,1.4-0.1,2.2c-0.4,0.7-0.7,1.2-1.2,1.8c-0.2,0.2-0.5,0.6-0.8,0.7
						c-0.4,0.2-0.8,0.2-1.2,0c-0.7-0.4-1.1-1-1.6-1.4c-0.5-0.5-1-1.1-1.4-1.6l-0.7-0.7c-0.1-0.1-0.2-0.2-0.4-0.4h-0.1c0,0,0,0,0.1,0
						c0.1-0.1,0-0.1,0-0.1v0.1c0.1,0.7,0.1,1.4-0.1,2.2c-0.2,0.7-0.8,1.2-1.2,1.8c-0.1,0.1-0.1,0.2-0.2,0.4c0,0.1,0,0.1,0.1,0.2
						c0.2,0.1,0.6,0.4,0.8,0.5c0.6,0.4,1.2,0.8,1.6,1.4c0.5,0.6,0.6,1.4,0.5,2.2c-0.2,1.4-1.1,2.6-2,3.7c-1,1.1-2,2-3.1,2.9
						c-0.6,0.4-1.2,0.8-1.8,1.1c-0.6,0.4-1.3,0.6-2.2,0.5c-0.7-0.2-1.2-1-1.6-1.6c-0.4-0.6-0.6-1.3-1-1.9c-0.6-1.3-1.2-2.5-1.9-3.7
						c-0.4-0.6-0.7-1.3-0.7-2c-0.1-0.7,0.4-1.6,0.7-2c0.4-0.6,0.7-1.2,1-1.8c0.2-0.6,0.2-1.3,0.2-2v-2c0-0.4,0-0.7,0-1.1
						c0-0.1,0-0.2-0.1-0.4c-0.1-0.1-0.2-0.2-0.4-0.4c-1.1-1-1.9-2.2-2.4-3.5c-0.2-0.7-0.4-1.4-0.5-2c-0.1-0.7-0.5-1.2-1.2-1.4
						c-0.6-0.2-1.3-0.7-1.7-1.3s-0.7-1.2-1.2-1.7c-0.8-1.1-1.9-2-3-2.8c-0.6-0.4-1.2-0.7-1.8-0.8c-0.7-0.1-1.3,0.2-1.8,0.7
						c-1.9,2-2.3,5-4.1,7.2c-0.6,0.5-0.8,1.1-0.8,1.8c-0.1,0.7,0,1.3,0,2c0.1,0.7,0.1,1.3,0.2,2c0,0.4,0.1,0.7,0.1,1.1
						c0,0.1,0,0.4-0.1,0.6c0,0.2-0.2,0.5-0.5,0.4c-0.5-0.1-0.7-0.4-1-0.6c-0.2-0.2-0.6-0.5-0.7-0.8c-0.2-0.2-0.2-0.7-0.1-1.1
						c0.2-0.4,0.5-0.6,0.6-0.8c1-1.1,0.1-2.6,0.4-4c0.4-2.9,1.9-5.4,3.7-7.4c1-1.1,2-1.9,3.1-2.9c0.2-0.2,0.5-0.5,0.7-0.7
						c0.1-0.1,0.1-0.2,0.2-0.5c0-0.1,0.1-0.4,0-0.5c0-0.4-0.4-0.5-0.6-0.7c-0.2-0.1-0.6-0.4-1-0.5c-1.3-0.5-2.6-1-3.8-1.7
						s-2-2-2.3-3.5s0-2.9,0.4-4.2c0.1-0.7,0.5-1.3,0.6-2c0-0.1-0.1-0.1-0.4-0.2c-0.1,0-0.4-0.1-0.5-0.1c-0.4-0.1-0.6-0.4-1-0.6
						c-0.6-0.5-1.1-1-1.4-1.4c-0.5-0.6-1-1.1-1.1-1.8c-0.1-0.4,0.1-0.8,0.5-1c0.4-0.1,0.7-0.1,1.1-0.1c0.7,0,1.4,0.1,2,0.4
						c0.4,0.1,0.7,0,0.8-0.2c0.2-0.2,0.1-0.6,0.1-1s-0.1-0.7-0.2-1c-0.1-0.4-0.2-0.6-0.5-1c-0.7-1.2-1.8-2-3-2.9
						c-2.4-1.4-5-2.4-7.7-3.1c-0.7-0.2-1.3-0.4-2-0.5c-0.4-0.1-0.7-0.1-1.1-0.2c-0.4-0.1-0.5-0.6-0.6-0.8c0-0.5-0.4-0.4-0.7-0.5
						c-0.4-0.1-0.7-0.1-1-0.2c-0.7-0.2-1.3-0.5-1.9-0.7c-0.6-0.2-1.2-0.6-1.8-1.1s-0.6-1.3-0.1-1.9c0.2-0.2,0.6-0.4,1-0.5
						s0.7-0.2,1-0.4c0.1-0.1,0.4-0.1,0.5-0.2c0.1-0.1,0.2-0.2,0.1-0.4c-0.2-0.2-0.6-0.4-0.8-0.5c-0.7-0.2-1.3-0.4-2-0.5
						s-1.3-0.6-1.6-1.2c-0.1-0.4,0.2-0.7,0.5-0.8c0.4-0.1,0.6-0.2,1-0.4c0.7-0.1,1.4-0.2,2-0.2h1.1c0.4,0,0.7,0,1.1-0.1
						c0.6-0.2,1-1.1,0.8-1.7c-0.4-1.3-1.1-2.5-1.8-3.7C569.2,160.2,567.5,157.9,565.8,155.6z"/>
				</g>
			</g>
		</g>
		<g id="water_1_">
			
				<linearGradient id="SVGID_15_" gradientUnits="userSpaceOnUse" x1="628.25" y1="9618.7598" x2="628.25" y2="9427.376" gradientTransform="matrix(1 0 0 1 0 -9232)">
				<stop  offset="0" style="stop-color:#CCFFCC"/>
				<stop  offset="0.183" style="stop-color:#C9FFCB;stop-opacity:0.9085"/>
				<stop  offset="0.3442" style="stop-color:#BEFFC7;stop-opacity:0.8279"/>
				<stop  offset="0.4973" style="stop-color:#ACFFC1;stop-opacity:0.7513"/>
				<stop  offset="0.6454" style="stop-color:#92FFB9;stop-opacity:0.6773"/>
				<stop  offset="0.7898" style="stop-color:#72FFAE;stop-opacity:0.6051"/>
				<stop  offset="0.9297" style="stop-color:#4AFFA1;stop-opacity:0.5351"/>
				<stop  offset="1" style="stop-color:#33FF99;stop-opacity:0.5"/>
			</linearGradient>
			<path class="st22" d="M579,223.7c-0.6,1.8,1.2,4.8,3.6,3.6c2.4-1.2,1.4-2.4,2.4-1.2c0.8,1.2,0.6,10.1,0.6,13.9
				c0,3.8-2.4,5.6-2.6,8.9s-0.2,6.2,0.6,10.1c0.8,3.8,0.8,3.8,0.8,3.8s-2-5.3-2.4-2.6c-0.2,2.6-1.2,2.4,0.8,3.8s2.6,0.8,2.6-1.2
				s0-5.6,0-5.6s1.4-0.6,2.4,1.2c1,1.8-0.6,2.4,0.8,3.8c1.4,1.4,2,1.2,2.4-0.8c0.2-2,1.8-4.4,2.4-2c0.6,2.4,0.6,1.2,0.6,5
				s-0.6,0.2-2.4,4.4c-1.8,4.2-3.6,4.2-3.6,4.2s-4.2,9.8,5,6.8c0,0-6.2,3.2,0.6,4.2c0,0-3.6,3.6-0.6,9.5s-3.2,6.5-3,9.5
				s0.2,1.2-1.4,7.1c-1.8,5.9,3.2,16.6,3.6,20.4c0.2,3.8-3.6,5.3-0.2,8.9c3.2,3.6-1.4,4.4-0.8,9.2c0.6,4.8,3.8,10.3,4.4,13.1
				c0.6,2.6-6.2-1.2-0.8,5.9c5.3,7.1,3.2-8,5.3,4.8c2,12.7,1.8,19.2,4.4,10.2s2.4-3.1-0.6-14.6s-1.4-29.1,0-20.8
				c1.4,8.3,1.2,10.1,3,8.9s5-5.6,2.6,1.8s-4.8-0.6-3.6,4.4s0,2.4,3,8s0.2,9.5,1.8,12.2s5-3.7,5-5.5s3.6,1.4,4.8,4.2
				c1.2,2.6,2,3.6,3-0.8c0.8-4.4,5.6-1,7.1,2.2c1.4,3.1-0.2,4.6,4.8,1.7c5-3,8.6,0.6,9.8,0s-2.6-9.2-2.4-10.1c0.2-0.8,2-3.2,0.8-5.6
				s-4.2-0.2-2-3.6s3.2-1.8,3.2-4.8s2-6.8,2-6.8s-3.2,1.8-0.2-3s4.8-2,5-7.4c0.2-5.3-3.8-6.8-3.8-12.7c0-5.9-5.6-10.7-1.2-11.9
				c4.4-1.2,3.8-5.3,6.5-3c2.6,2.4,1.2,1.4,3.2-2.6c2-4.2,2.6-4.8,1.2-8.6s-4.2-3-3-7.1c1.2-4.2,2.4-8.9,0.8-12.1
				c-1.6-3.2-2.6-2.6-0.6-5.6s0.8-5.3,0.6-8c-0.2-2.6-2.6-4.8-1.4-8.3c1.1-3.5-0.6-7.7,0-10.3c0.6-2.6,2-5.8,0.2-8.6
				c-1.8-2.9-1.2-5.9-0.8-8.8c0.2-2.9,1.1-5.4,3.6-8.6c2.6-3.1,7.1-8.2,4.7-4.9s-4.2,4.4-2.4,6.2s-0.6-3.2-0.2,3.2
				c0.2,6.5-2,5-1.2,9.8s-1.2,3.2-0.6,8c0.6,4.8-0.6,5.6,0,9.5c0.6,3.8-1.4,3.2,0,8.3c0.4,1.3,0.8,2.5,1.2,3.6
				c1.2,3.4,2.5,5.5,3,4.4c0.6-1.4-2.4-1.4-0.6-7.7c1.8-6.2-0.2-3.6,2.4-3.2c2.6,0.4,5.3-2,1.8-5.6c-3.5-3.6-2,2.6-4.2,0.2
				c-2-2.4-3.8-6.2-2-9.2s-0.6-9.2,2.4-7.1c3,2.2,2.6,4.4,3,2c0.2-2.4-1.8-4.4-2.6-4.8c-0.8-0.2-2.4,0.8-0.2-1.4
				c2-2.4,3.2-3.2,2.4-4.8c-0.8-1.4-2-1.2-1.8-2.4c0.2-1.2,0-6.5,1.8-4.8c1.8,1.8,1.4,3.8,2.6,2c1.2-1.8-4.2-2.4-0.8-5.6
				c3.2-3.2,2-3.8,3.8-6.2s1.8-2.4,1.8-2.4s0.6,10.7,1.8,4.2s-0.6-9.2-0.6-10.1s-0.6-3.8,1.4-2.6s4.4,2.4,4.4,1.2s-6.6-2.3-6.6-2.3
				l-3.7-8.9l-5.3,9.4l-5.3,7.2l-14.4,13.8l-11.3,7.6c0,0-6.2,0.2-9.8-5.2s-8-2-8-2l-7.8-4.7c0,0-0.1,6.2-2.3,7.8
				c-2.2,1.6-5.3,4.7-9.1,1.6c-3.7-3.1-16.3-11.6-16.3-11.6L579,223.7z"/>
			
				<linearGradient id="SVGID_16_" gradientUnits="userSpaceOnUse" x1="627.15" y1="9572.0596" x2="627.15" y2="9380.6758" gradientTransform="matrix(1 0 0 1 0 -9232)">
				<stop  offset="0" style="stop-color:#CCFFCC"/>
				<stop  offset="0.1181" style="stop-color:#CEFFC9;stop-opacity:0.9715"/>
				<stop  offset="0.2221" style="stop-color:#D3FFBE;stop-opacity:0.9463"/>
				<stop  offset="0.3209" style="stop-color:#DCFFAC;stop-opacity:0.9224"/>
				<stop  offset="0.4163" style="stop-color:#E9FF92;stop-opacity:0.8994"/>
				<stop  offset="0.5087" style="stop-color:#F9FF72;stop-opacity:0.8771"/>
				<stop  offset="0.5378" style="stop-color:#FFFF66;stop-opacity:0.87"/>
				<stop  offset="0.5846" style="stop-color:#F5FF69;stop-opacity:0.8326"/>
				<stop  offset="0.6645" style="stop-color:#DAFF6F;stop-opacity:0.7686"/>
				<stop  offset="0.768" style="stop-color:#ADFF7A;stop-opacity:0.6858"/>
				<stop  offset="0.8895" style="stop-color:#70FF8A;stop-opacity:0.5885"/>
				<stop  offset="1" style="stop-color:#33FF99;stop-opacity:0.5"/>
			</linearGradient>
			<path class="st23" d="M577.9,177c-0.6,1.8,1.2,4.8,3.6,3.6c2.4-1.2,1.4-2.4,2.4-1.2c0.8,1.2,0.6,10.1,0.6,13.9s-2.4,5.6-2.6,8.9
				c-0.2,3.2-0.2,6.2,0.6,10.1c0.8,3.8,0.8,3.8,0.8,3.8s-2-5.3-2.4-2.6c-0.2,2.6-1.2,2.4,0.8,3.8s2.6,0.8,2.6-1.2s0-5.6,0-5.6
				s1.4-0.6,2.4,1.2c0.8,1.8-0.6,2.4,0.8,3.8c1.4,1.4,2,1.2,2.4-0.8c0.2-2,1.8-4.4,2.4-2c0.6,2.4,0.6,1.2,0.6,5s-0.6,0.2-2.4,4.4
				s-3.6,4.2-3.6,4.2s-4.2,9.8,5,6.8c0,0-6.2,3.2,0.6,4.2c0,0-3.6,3.6-0.6,9.5s-3.2,6.5-3,9.5c0.2,3,0.2,1.2-1.4,7.1
				c-1.8,5.9,3.2,16.6,3.6,20.4c0.2,3.8-3.6,5.3-0.2,8.9c3.2,3.6-1.4,4.4-0.8,9.2c0.6,4.8,3.8,10.3,4.4,13.1
				c0.6,2.6-6.2-1.2-0.8,5.9c5.3,7.1,3.2-8,5.3,4.8c2,12.7,1.8,19.2,4.4,10.2c2.6-9,2.4-3.1-0.6-14.6s-1.4-29.1,0-20.8
				c1.4,8.3,1.2,10.1,3,8.9s5-5.6,2.6,1.8s-4.8-0.6-3.6,4.4s0,2.4,3,8s0.2,9.5,1.8,12.2c1.4,2.9,5-3.7,5-5.5s3.6,1.4,4.8,4.2
				c1.2,2.6,2,3.6,3-0.8c0.8-4.4,5.6-1,7.1,2.2c1.4,3.1-0.2,4.6,4.8,1.7c5-3,8.6,0.6,9.8,0s-2.6-9.2-2.4-10.1c0.2-0.8,2-3.2,0.8-5.6
				s-4.2-0.2-2-3.6c2-3.2,3.2-1.8,3.2-4.8s2-6.8,2-6.8s-3.2,1.8-0.2-3s4.8-2,5-7.4c0.2-5.3-3.8-6.8-3.8-12.7
				c0-5.9-5.6-10.7-1.2-11.9c4.4-1.2,3.8-5.3,6.5-3c2.6,2.4,1.2,1.4,3.2-2.6c2-4.2,2.6-4.8,1.2-8.6c-1.4-3.8-4.2-3-3-7.1
				s2.4-8.9,0.8-12.1c-1.4-3.2-2.6-2.6-0.6-5.6s0.8-5.3,0.6-8c-0.2-2.6-2.6-4.8-1.4-8.3c1.1-3.5-0.6-7.7,0-10.3s2-5.8,0.2-8.6
				s-1.2-5.9-0.8-8.8c0.2-2.9,1.1-5.4,3.6-8.6c2.6-3.1,7.1-8.2,4.7-4.9c-2.4,3.2-4.2,4.4-2.4,6.2s-0.6-3.2-0.2,3.2
				c0.2,6.5-2,5-1.2,9.8s-1.2,3.2-0.6,8c0.6,4.8-0.6,5.6,0,9.5c0.6,3.8-1.4,3.2,0,8.3c0.4,1.3,0.8,2.5,1.2,3.6
				c1.2,3.4,2.5,5.5,3,4.4c0.6-1.4-2.4-1.4-0.6-7.7c1.8-6.2-0.2-3.6,2.4-3.2c2.6,0.4,5.3-2,1.8-5.6c-3.6-3.6-2,2.6-4.2,0.2
				c-2-2.4-3.8-6.2-2-9.2s-0.6-9.2,2.4-7.1c3,2,2.6,4.4,3,2c0.2-2.4-1.8-4.4-2.6-4.8c-0.8-0.2-2.4,0.8-0.2-1.4
				c2-2.4,3.2-3.2,2.4-4.8c-0.8-1.4-2-1.2-1.8-2.4s0-6.5,1.8-4.8c1.8,1.8,1.4,3.8,2.6,2s-4.2-2.4-0.8-5.6c3.4-3.2,2-3.8,3.8-6.2
				s1.8-2.4,1.8-2.4s0.6,10.7,1.8,4.2s-0.6-9.2-0.6-10.1s-0.6-3.8,1.4-2.6s4.4,2.4,4.4,1.2s-2.4-4.2-2.4-4.2l-7.9-7l-5.3,9.4
				l-5.3,7.2l-14.4,13.8l-11.3,7.6c0,0-6.2,0.2-9.8-5.2s-8-2-8-2l-7.8-4.7c0,0-0.1,6.2-2.3,7.8s-5.3,4.7-9.1,1.6
				c-3.8-3.1-16.3-11.6-16.3-11.6L577.9,177z"/>
		</g>
		<g id="bubbles">
			<path class="st16" d="M599.7,271.4c2-2.5,3-2.5,2.6-6.4s-3.2-5.4-2-8.6c1.2-3.2,0.2-6-0.6-7.7s-2-2.9-1.4-5.4s2-5.8,1.4-6.8
				c-0.6-1.1-2.6-5.4-3.6-1.7c-1,3.7-2,5.8-0.8,9.5s3.6,6.4,1.2,6.4c-2.4,0-3-3.5-3,0.8s-0.6,5.8,0,9.1c0.6,3.5,5.3,0,5.9,12.4
				S599.7,271.4,599.7,271.4z"/>
			<path class="st3" d="M629.1,318c1.2-2.5,1.7-2.5,1.6-6.4c-0.1-3.7-1.8-5.4-1.2-8.6s0.1-6-0.4-7.7s-1.2-2.9-0.8-5.4
				s1.2-5.8,0.8-6.8c-0.4-1.2-1.6-5.4-2-1.7c-0.5,3.7-1.2,5.8-0.5,9.5s2,6.4,0.7,6.4s-1.7-3.5-1.7,0.8s-0.4,5.8,0,9.1
				c0.4,3.5,3,0,3.4,12.4C629.2,331.7,629.1,318,629.1,318z"/>
			<path class="st16" d="M619.5,413c1.2-2.5,1.7-2.5,1.6-6.4c-0.1-3.7-1.8-5.4-1.2-8.6c0.7-3.1,0.1-6-0.4-7.7s-1.2-2.9-0.8-5.4
				s1.2-5.8,0.8-6.8c-0.4-1.2-1.6-5.4-2-1.7s-1.2,5.8-0.5,9.5s2,6.4,0.7,6.4s-1.7-3.5-1.7,0.8s-0.4,5.8,0,9.1c0.4,3.5,3,0,3.4,12.4
				C619.6,426.8,619.5,413,619.5,413z"/>
			<path class="st16" d="M640.9,387.5c1.2-2.5,1.7-2.5,1.6-6.4c-0.1-3.7-1.8-5.4-1.2-8.6s0.1-6-0.4-7.7s-1.2-2.9-0.8-5.4
				s1.2-5.8,0.8-6.8c-0.4-1.2-1.6-5.4-2-1.7s-1.2,5.8-0.5,9.5s2,6.4,0.7,6.4s-1.7-3.5-1.7,0.8s-0.4,5.8,0,9.1c0.4,3.5,3,0,3.4,12.4
				C641,401.3,640.9,387.5,640.9,387.5z"/>
			<path class="st16" d="M621.2,270.7c-0.2-0.8,0.2-0.6-0.2-4.4c-0.5-3.8-4.8-3.2-2.4-6.2c2.4-3,2.2-6.2,2.2-8s0.7,0.6,1.7-0.8
				s-0.7,1.2,1.2,4.2c1.9,3,4.1,4.2,1.2,8.3C621.9,267.7,621.2,270.7,621.2,270.7z"/>
			<path class="st16" d="M607.7,306.3c-0.2-0.8,0.1-0.6-0.5-4.4s-3-3-1.8-6.1c1.2-3,0.7-6.2,0.6-8s0.5,0.6,0.8-1
				c0.5-1.6-0.4,1.2,1,4.1s2.6,4,1.3,8.3S607.7,306.3,607.7,306.3z"/>
			<path class="st16" d="M646.3,293.7c0.8,0.6,2.4-1.2,2.4-4.4c0-2.5,0.4-7.8,0.5-10.2c0-0.7-0.4-1.3-1-1.7l-1.4-2.6
				c0,0,0.1,4.2,0.1,7.1c0,3,1.2,6.2-0.2,7.7C645.2,291,646.3,293.7,646.3,293.7z"/>
			<path class="st16" d="M642.9,287.9c-0.7,0.5,2-1.8,1.1-4.2c-0.8-2.4-2.3-6.5-2-9.8c0.2-3.2,0.7-3.2-0.7-5.6c-1.3-2.4-2.4-3-2-7.1
				c0.5-4.2,2.3-7.7,3.1-3.6c0.8,4.2,1.6,4.2,2.6,6.5c1.1,2.4-2.3,10.6-1.1,12.7C645.1,279.1,646.9,285.4,642.9,287.9z"/>
			<path class="st16" d="M606,333.4c-1,0.5,2.6-1.8,1.4-4.2c-1.2-2.4-3-6.5-2.6-9.8c0.2-3.2,0.8-3.2-0.8-5.6c-1.8-2.4-3.2-3-2.6-7.1
				c0.6-4.1,3-7.7,4.2-3.6s2,4.2,3.6,6.5c1.4,2.4-3,10.6-1.4,12.7C609.2,324.6,611.4,331,606,333.4z"/>
			<path class="st16" d="M601.1,244.3c0,0,2.3-2.2,0-3.2C598.7,239.9,598.5,241.9,601.1,244.3z"/>
			<path class="st16" d="M563.4,289.9c0,0,5.3-2,0.8-5.9C559.9,280.2,558.4,289.9,563.4,289.9z"/>
			
				<linearGradient id="SVGID_17_" gradientUnits="userSpaceOnUse" x1="580.0936" y1="9535.7139" x2="586.347" y2="9535.7139" gradientTransform="matrix(1 0 0 1 0 -9232)">
				<stop  offset="0" style="stop-color:#FFFFCC"/>
				<stop  offset="0.1165" style="stop-color:#FAFFCB;stop-opacity:0.9417"/>
				<stop  offset="0.2573" style="stop-color:#EBFFC7;stop-opacity:0.8714"/>
				<stop  offset="0.4107" style="stop-color:#D3FFC1;stop-opacity:0.7947"/>
				<stop  offset="0.5729" style="stop-color:#B1FFB8;stop-opacity:0.7135"/>
				<stop  offset="0.7424" style="stop-color:#85FFAD;stop-opacity:0.6288"/>
				<stop  offset="0.9152" style="stop-color:#50FFA0;stop-opacity:0.5424"/>
				<stop  offset="1" style="stop-color:#33FF99;stop-opacity:0.5"/>
			</linearGradient>
			<path class="st24" d="M583.3,306.8c0,0,4.8,0,2.4-4.8C583.3,297.3,575.9,306.6,583.3,306.8z"/>
			<path class="st16" d="M572.2,347c0,0,3.2-3.8-0.6-3.6C567.7,343.8,567.7,347.9,572.2,347z"/>
			<path class="st16" d="M578.1,379.9c0,0,6.2-1.2,2-6.8C575.9,367.5,569.5,379.3,578.1,379.9z"/>
			<path class="st16" d="M581.1,378.5c0,0,3.2-3.8-0.6-3.6C576.6,375.1,576.6,379.3,581.1,378.5z"/>
			
				<linearGradient id="SVGID_18_" gradientUnits="userSpaceOnUse" x1="659.7993" y1="9516.917" x2="667.7645" y2="9516.917" gradientTransform="matrix(1 0 0 1 0 -9232)">
				<stop  offset="0" style="stop-color:#FFFFCC"/>
				<stop  offset="0.1165" style="stop-color:#FAFFCB;stop-opacity:0.9417"/>
				<stop  offset="0.2573" style="stop-color:#EBFFC7;stop-opacity:0.8714"/>
				<stop  offset="0.4107" style="stop-color:#D3FFC1;stop-opacity:0.7947"/>
				<stop  offset="0.5729" style="stop-color:#B1FFB8;stop-opacity:0.7135"/>
				<stop  offset="0.7424" style="stop-color:#85FFAD;stop-opacity:0.6288"/>
				<stop  offset="0.9152" style="stop-color:#50FFA0;stop-opacity:0.5424"/>
				<stop  offset="1" style="stop-color:#33FF99;stop-opacity:0.5"/>
			</linearGradient>
			<path class="st25" d="M664.6,288.5c0,0,7.1-3.2,0-6.8C657.5,278,659,291.1,664.6,288.5z"/>
			<path class="st16" d="M660.9,350.5c0,0,5.3-1.2,0.2-4.2C656.1,343.4,655.5,351.7,660.9,350.5z"/>
			<path class="st16" d="M573.5,251.9c0,0,4.8-3.2,0.6-6.8C569.9,241.5,568.2,251.9,573.5,251.9z"/>
			<path class="st16" d="M655.5,370.2c0,0,5.6-3.2,1.4-6.8C652.9,359.8,650.2,371.1,655.5,370.2z"/>
			<path class="st16" d="M639.2,306.6c0,0,5.6-3.2,1.4-6.8C636.5,296.3,633.8,307.5,639.2,306.6z"/>
			<path class="st3" d="M626.3,289.9c0,0,5.6-3.2,1.4-6.8C623.6,279.4,621,290.7,626.3,289.9z"/>
			<path class="st3" d="M635.3,249.5c0,0,7.1-3.2,0-6.8C628.2,239.2,629.7,252.2,635.3,249.5z"/>
			<g>
				<path class="st3" d="M602.1,242.7c0.2,1.4,1.2,2.6,2,3.7s1.9,2.2,2.9,3.1c1.1,1,2.2,1.9,3.1,2.9c0.5,0.5,1,1.1,1.2,1.8
					c0.4,0.7,0.4,1.4,0.2,2.2c-0.5,1.4-1.6,2.5-2.3,3.7c-0.8,1.2-1.2,2.5-1,4c0.1,0.7,0.4,1.3,0.6,2l0.8,1.9
					c0.6,1.3,1.2,2.6,1.9,3.8c1.6,2.4,3,4.8,4.6,7.3c1.4,2.4,3.1,4.9,4,7.7c1,2.8,1.2,5.6,1.1,8.5c-0.2,2.9-0.8,5.6-1.7,8.4
					c-0.8,2.8-1.8,5.4-2.3,8.3c-0.2,1.4-0.5,2.8-0.4,4.2c0.1,1.4,0.4,2.8,0.8,4.2c0.8,2.8,2,5.3,2.8,8.2c0.4,1.4,0.5,2.9,0.5,4.3
					s-0.2,2.9-0.7,4.2c-0.5,1.3-1.1,2.6-1.8,4c-0.7,1.2-1.6,2.4-2.2,3.7c-1.2,2.5-1.7,5.4-1.8,8.3s0.4,5.6,1,8.4
					c0.7,2.8,1.7,5.5,2.9,8c-1.3-2.5-2.3-5.3-3-8c-0.7-2.8-1.2-5.6-1.1-8.5c0-2.9,0.6-5.8,1.8-8.4c0.6-1.3,1.4-2.5,2.2-3.7
					c0.7-1.2,1.3-2.5,1.7-3.8s0.6-2.8,0.6-4.2c0-1.4-0.2-2.9-0.6-4.2c-0.7-2.8-1.9-5.4-2.8-8.2c-0.5-1.3-0.7-2.8-0.8-4.2
					c-0.1-1.4,0.1-2.9,0.4-4.3c0.6-2.9,1.6-5.5,2.3-8.3s1.4-5.5,1.7-8.4s-0.1-5.6-1-8.4c-0.8-2.8-2.4-5.2-3.8-7.6
					c-1.4-2.5-3-4.9-4.4-7.3c-0.7-1.2-1.4-2.5-1.9-3.8l-0.8-2c-0.2-0.6-0.5-1.3-0.6-2c-0.2-1.4,0.2-3,1.1-4.2
					c0.7-1.2,1.8-2.3,2.3-3.6c0.5-1.3-0.5-2.8-1.3-3.7c-1-1-2.2-1.9-3.1-2.9c-1-1-2-2-2.9-3.2C603.1,245.3,602.3,244.1,602.1,242.7z
					"/>
			</g>
			<g>
				<path class="st3" d="M621.8,228.7c2.5,7.8,4.9,15.6,7.1,23.5c1.1,4,2.4,7.9,2.3,12.1c0,1.1-0.2,2-0.7,3s-1.3,1.7-2.3,2
					c-1,0.5-1.8,0.8-2.5,1.6c-0.7,0.7-1.1,1.7-1.3,2.6c-0.1,0.5-0.1,1-0.1,1.6c0,0.5,0.1,1.1,0.6,0.8c1-0.2,1.8-1,2.9-1.2
					c1.1-0.2,2.2,0.1,3,0.8c0.8,0.7,1.3,1.6,1.8,2.5c0.5,1,0.8,1.9,1.1,2.9s0.4,2,0.2,3.1c-0.4,2.2-2.3,3.5-2.6,5.5
					c-0.5,1.9,0.2,4,1.1,5.8c0.4,1,0.8,1.9,1.2,2.9c0.2,1,0.6,2,0,3.1c-0.6,1-1.7,1.3-2.5,1.9s-1.6,1.3-1.9,2.2
					c-1,1.8-1.1,3.8-1.2,5.9c0,1.1-0.1,2-0.1,3s0,2,0.4,3s1,1.8,1.4,2.8s0.8,1.9,1.2,2.9c0.7,1.9,1.3,3.8,1.9,5.9
					c0.5,1.9,1.1,4,1.4,6c0.1,0.5,0.1,1.1,0.1,1.6c0,0.2,0,0.6-0.2,0.8c-0.1,0.4-0.6,0.5-0.8,0.4c-0.6-0.1-1-0.5-1.4-0.7
					c-0.4-0.4-0.8-0.6-1.2-1c-0.8-0.6-1.6-1.3-2.4-1.8c-0.4-0.2-1-0.5-1.3-0.4c-0.4,0.1-0.6,0.6-0.6,1.1c-0.2,2,0.2,4.1,0.6,6
					c0.4,2,0.8,4,1.2,6c0.7,4.1,1.1,8.2,0.7,12.2c-0.4,4.1-2.2,8-1.6,12.1c0.2,2,0.8,4,1.6,5.9c0.7,1.9,1.2,4,1.8,5.9
					c0.5,2,1,4,1.2,6s0.4,4.1,0,6.1c0.4-2,0.1-4.1-0.1-6.1c-0.2-2-0.7-4.1-1.2-6s-1.1-4-1.8-5.9s-1.3-3.8-1.7-5.9
					c-0.2-2-0.1-4.2,0.4-6.1c0.5-2,1-4,1.1-6c0.4-4.1,0-8.2-0.7-12.2c-0.4-2-0.8-4-1.2-6c-0.2-1-0.4-2-0.5-3c-0.1-1.1-0.2-2-0.1-3.1
					c0.1-0.5,0.2-1.2,0.8-1.4c0.6-0.1,1.2,0.1,1.6,0.4c1,0.6,1.7,1.2,2.4,1.9c0.7,0.6,1.6,1.4,2.4,1.7c0.5,0.1,0.6-0.4,0.6-0.8
					c0-0.5,0-1-0.1-1.4c-0.4-2-1-4-1.4-5.9c-0.6-1.9-1.2-4-1.9-5.8c-0.4-1-0.7-1.9-1.2-2.8c-0.5-1-1.1-1.8-1.4-2.8
					c-0.4-1.1-0.4-2-0.4-3.1s0-2,0.1-3.1c0.1-2,0.2-4.2,1.2-6.1c0.5-1,1.2-1.8,2.2-2.3c0.8-0.6,1.9-1,2.4-1.8s0.2-1.9-0.1-2.9
					c-0.2-1-0.7-1.9-1.1-2.9c-0.8-1.9-1.6-4-1.1-6.1c0.5-2.2,2.4-3.5,2.8-5.4s-0.5-4-1.3-5.8c-0.5-0.8-1-1.8-1.8-2.4
					c-0.7-0.7-1.8-1-2.8-0.7c-1,0.2-1.8,0.8-2.9,1.1c-0.1,0-0.2,0-0.5,0c-0.1-0.1-0.2-0.2-0.4-0.4c-0.1-0.2-0.1-0.6-0.1-0.8
					c0-0.5,0-1.1,0.1-1.6c0.1-1.1,0.6-2,1.3-2.8c0.7-0.7,1.8-1.1,2.6-1.6s1.7-1.1,2.2-2c0.5-0.8,0.7-1.9,0.7-2.9
					c0.1-4.1-1.2-8-2.3-12C626.6,244.3,624.3,236.5,621.8,228.7z"/>
			</g>
			<g>
				<path class="st3" d="M642.4,230.5c-0.5,4.8-2.4,9.2-3.5,13.8c-1.1,4.6-1.7,9.5-0.8,14.2c0.4,2.4,1.1,4.6,2,6.8
					c0.8,2.3,1.7,4.4,2.4,6.7c0.7,2.3,1.4,4.6,1.8,7c0.2,1.2,0.2,2.4,0.1,3.6c0,0.6-0.2,1.2-0.5,1.8c-0.1,0.2-0.4,0.6-0.6,0.7
					c-0.2,0.2-0.5,0.5-0.7,0.6c-1.1,0.7-2.2,1.1-3.2,1.6c-1.1,0.5-2.2,1.1-2.4,2.2c-0.2,1,0.1,2.2,0.6,3.2c0.5,1.1,1.1,2,1.9,2.8
					c0.2,0.1,0.5,0.4,0.6,0.4c0.2,0.1,0.5,0.1,0.8,0.1c0.1,0,0.4,0,0.4,0.2c0,0.1,0.1,0.1,0.1,0.2v0.1c0,0.2,0,0.4,0,0.5
					c0,0.4-0.1,0.6-0.1,1l-0.4,1.8c0,0.6-0.2,1.1-0.1,1.7c0,2.3,1.2,4.4,2.3,6.6s2,4.4,2.3,6.8c0.2,2.5-0.5,4.9-1.3,7.2
					c-0.5,1.1-1.1,2.2-1.8,3.2s-1.6,1.9-2.4,2.8c-0.8,0.8-1.6,1.7-1.9,2.8c-0.4,1.1-0.6,2.2-0.7,3.4c-0.2,4.7,1.2,9.4,2.5,13.8
					c0.7,2.3,1.4,4.6,1.9,7c0.2,1.2,0.5,2.4,0.4,3.6c0,1.2-0.2,2.5-1.1,3.6c-0.4,0.5-0.8,1.1-1.8,1.1c-0.8,0-1.3-0.6-1.8-1.1
					c-0.8-1-1.3-2-1.8-3.2c-0.5-1.1-1-2.3-1.3-3.4l-0.6-1.7l-0.4-0.8c0-0.1-0.1-0.2-0.1-0.4l0,0l0,0c0,0,0,0.1,0.2,0
					c0.1-0.1,0.1-0.1,0.2-0.1l0,0l0,0c0,1.1,0.1,2.3,0.2,3.5l0.4,3.6l0.8,7.1c0.2,2.4,0.5,4.8,1,7.1c0.2,1.2,0.6,2.3,1.2,3.2
					c0.6,1,1.3,1.9,1.8,3.1c1,2.3,0.8,4.9,0.1,7.2c-0.4,1.2-0.8,2.3-1.4,3.4c-0.1,0.1-0.1,0.2-0.2,0.5c-0.1,0.1-0.4,0.4-0.6,0.2
					c-0.5-0.2-0.6-0.5-0.7-0.7c-0.2-0.6-0.5-1.1-0.7-1.7c-0.7-2.3-1.2-4.7-1.7-7l-0.8-3.6l0,0c0,0-0.1-0.1,0.1,0
					c0.2-0.1,0.1-0.1,0.1-0.1l0,0v0.2v0.5l0.1,0.8l0.2,1.8c0.4,2.4,0.6,4.7,1,7.1c0.1,1.2,0.2,2.4,0.4,3.6c0.1,1.2,0.2,2.4,0.1,3.6
					c0.1-1.2,0-2.4-0.1-3.6s-0.2-2.4-0.4-3.6c-0.4-2.4-0.6-4.7-1-7.1l-0.2-1.8l-0.1-0.8l-0.1-0.5v-0.2v-0.1c0,0-0.1-0.1,0.1-0.2
					c0.2,0.2,0.1,0.1,0.1,0.1l0,0l0.7,3.5c0.5,2.3,1.1,4.7,1.8,6.8c0.2,0.6,0.4,1.1,0.7,1.6c0.1,0.2,0.4,0.5,0.5,0.5
					c0,0,0.2-0.1,0.4-0.5c0.5-1.1,1-2.2,1.3-3.2c0.7-2.3,0.8-4.7-0.1-6.8c-0.5-1.1-1.2-2-1.8-3.1s-1.1-2.3-1.3-3.4
					c-0.6-2.4-0.7-4.8-1.1-7.1l-0.8-7.1l-0.5-3.6c-0.1-1.2-0.4-2.3-0.2-3.6v-0.1v-0.1c0.1-0.1,0.1-0.1,0.2-0.2c0.2,0,0.2,0,0.4,0.1
					c0.1,0.1,0.1,0.1,0.1,0.1l0.1,0.1c0.1,0.1,0.1,0.4,0.2,0.5l0.4,0.8l0.6,1.7c0.4,1.1,0.8,2.3,1.3,3.4s1,2.2,1.7,3
					c0.4,0.4,0.8,0.8,1.2,0.7c0.4,0,0.8-0.4,1.1-0.8c0.6-0.8,0.8-2,1-3.1c0-1.2-0.1-2.3-0.4-3.5c-0.5-2.3-1.3-4.6-2-6.8
					c-1.4-4.6-3-9.2-2.6-14.2c0-1.2,0.2-2.5,0.7-3.6c0.5-1.2,1.3-2.2,2.2-3c0.8-0.8,1.7-1.7,2.3-2.6c0.7-1,1.2-2,1.7-3
					c1-2.2,1.6-4.4,1.3-6.7c-0.1-2.3-1.1-4.4-2.2-6.6c-0.5-1.1-1.1-2.2-1.6-3.2c-0.5-1.1-0.7-2.4-0.7-3.6c0-0.6,0.1-1.2,0.1-1.8
					l0.4-1.8c0.1-0.2,0.1-0.6,0.1-0.8c0-0.1,0-0.2,0-0.4v-0.1l0,0l0,0c-0.2,0-0.6,0-1-0.1s-0.6-0.4-0.8-0.5c-1-0.8-1.6-1.9-2.2-3
					c-0.5-1.1-1-2.4-0.6-3.7c0.1-0.7,0.6-1.2,1.1-1.6s1.1-0.7,1.7-1c1.1-0.5,2.3-0.8,3.2-1.6c0.2-0.1,0.5-0.4,0.6-0.5
					c0.2-0.2,0.4-0.4,0.5-0.6c0.2-0.5,0.4-1.1,0.5-1.6c0.1-1.2,0-2.3-0.1-3.5c-0.4-2.3-1-4.7-1.7-6.8c-0.7-2.3-1.6-4.6-2.4-6.7
					c-0.8-2.2-1.7-4.6-2-6.8c-0.7-4.8,0-9.6,1.1-14.3C639.9,239.7,641.8,235.3,642.4,230.5z"/>
			</g>
			<g>
				<path class="st3" d="M592.7,235.1c1.7,2.8,3.2,5.5,4.6,8.5c0.6,1.6,1.2,3,1.1,4.7c0,0.4-0.1,0.8-0.4,1.2s-0.6,0.7-1,0.8
					c-0.2,0.1-0.5,0.1-0.6,0.1l-0.6,0.1c-0.4,0-0.7,0.4-1,0.5c-1.2,1-1.4,2.6-1.4,4.2c0,1.6,0.2,3.1,0.6,4.7
					c0.7,3.1,1.8,6.1,2.9,9.1c0.6,1.6,1,3.1,1.2,4.8c0.1,1.7,0,3.4-0.2,4.9c-0.5,3.2-1,6.4-0.7,9.6c0.1,3.1,0.7,6.4,1.1,9.6
					c0.5,3.2,1,6.4,1.8,9.5s1.7,6.2,2.6,9.2l0.1,0.4v0.1v0.1c0,0,0,0.4-0.2,0.5c-0.1,0.1-0.4,0-0.4,0h-0.1H602l-0.1-0.1l-0.2-0.1
					c-0.4-0.1-0.6-0.2-1-0.2c-0.7,0-1.3,0.4-2,0.7c-0.6,0.4-1.2,1-1.8,1.6s-1.1,1.1-1.6,1.7c-1,1.2-1.6,2.6-1.2,4.1
					c0.4,1.4,1.1,2.9,1.9,4.3c1.6,2.8,3.4,5.4,5.3,8c1,1.3,1.8,2.6,2.6,4.1c0.7,1.4,1.6,2.9,1.8,4.6c0.4,3.4-0.7,6.5-1.4,9.6
					c-0.1,0.8-0.4,1.6-0.4,2.4s-0.1,1.7-0.2,2.4c-0.2,1.6-0.5,3.2-0.7,4.8c-0.2,1.6-0.5,3.2-0.6,4.8c-0.1,1.6-0.1,3.2,0.4,4.8
					c-0.5-1.6-0.5-3.2-0.5-4.8c0.1-1.6,0.2-3.2,0.5-4.8s0.5-3.2,0.6-4.8c0.1-0.8,0.1-1.6,0.1-2.4s0.1-1.7,0.4-2.4
					c0.6-3.1,1.7-6.2,1.3-9.5c-0.2-1.6-1-3-1.8-4.3s-1.7-2.8-2.6-4.1c-1.8-2.6-3.7-5.3-5.3-8c-0.8-1.4-1.6-2.9-2-4.6
					c-0.2-0.8-0.1-1.8,0.1-2.6c0.2-0.8,0.7-1.6,1.2-2.3c0.5-0.7,1.1-1.2,1.7-1.8c0.6-0.6,1.2-1.2,1.9-1.7s1.6-0.8,2.5-0.8
					c0.5,0,1,0.1,1.3,0.4l0.2,0.1l0.1,0.1l0,0l0,0c0,0-0.1,0-0.2,0c-0.2,0.1-0.2,0.5-0.2,0.4l0,0v-0.1L602,317
					c-1-3.1-1.8-6.2-2.6-9.4c-0.8-3.1-1.4-6.4-1.8-9.5c-0.4-3.2-0.8-6.4-1.1-9.6c-0.2-3.2,0.2-6.5,0.8-9.7c0.2-1.6,0.4-3.1,0.2-4.7
					c-0.1-1.6-0.5-3.1-1.1-4.6c-1.1-3-2.2-6.1-2.8-9.2c-0.4-1.6-0.6-3.2-0.6-4.8c0-0.8,0.1-1.7,0.4-2.4c0.2-0.8,0.7-1.6,1.3-2.2
					c0.4-0.1,0.7-0.5,1.2-0.5c0.5-0.1,0.8-0.1,1.2-0.2s0.6-0.4,0.8-0.6c0.2-0.4,0.2-0.7,0.2-1.1c0.1-1.6-0.5-3.1-1-4.7
					C595.8,240.8,594.3,238,592.7,235.1z"/>
			</g>
			<g>
				<path class="st3" d="M605.3,254c0.8-0.1,1.6,0,2.4,0.2c0.7,0.2,1.4,0.7,1.9,1.4c0.4,0.7,0.6,1.6,0.5,2.4c0,0.8-0.2,1.6-0.5,2.4
					c-0.5,1.6-1.2,3-1.9,4.4s-1.3,2.9-2,4.4c-1.2,3-2.2,6.1-1.8,9.2c0.2,3.1,1.4,6.2,2.5,9.2c0.2,0.7,0.6,1.4,1,2.3
					c0.1,0.4,0.4,0.7,0.5,1.1l0.2,0.5l0.1,0.2l0,0h-0.1h0.1c0.1,0,0.4,0.1,0.4,0.4c0.2,1.7,0.5,3.2,0.7,4.8c0.5,3.2,1.1,6.4,2.4,9.2
					c0.6,1.4,1.3,2.9,2.2,4.2c0.8,1.3,1.7,2.8,2.2,4.4c0.5,1.7,0.2,3.5-0.2,5c-0.5,1.6-1.1,3.1-1.8,4.6c-0.7,1.4-1.6,2.9-2.3,4.2
					c-0.6,1.4-1,3-1,4.6c0,3.1,0.4,6.4,1.7,9.1c0.7,1.4,1.8,2.5,2.6,4.1c0.4,0.8,0.5,1.8,0.2,2.6c-0.1,0.5-0.2,0.8-0.4,1.2
					c-0.2,0.4-0.4,0.8-0.6,1.1c-2,2.8-5.4,3.8-7.4,6.2c-1.1,1.2-1.7,2.6-1.7,4.2s0.5,3.1,1,4.6c1,3,2.8,5.8,4.7,8.3
					c1,1.3,2,2.5,2.8,4c0.7,1.4,0.8,3.1,1,4.8c0.2,3.2,0.1,6.5,0,9.6c0.1-3.2,0.1-6.5-0.1-9.6c-0.1-1.6-0.4-3.2-1.1-4.6
					c-0.7-1.4-1.8-2.6-2.9-3.8c-2-2.5-3.8-5.3-4.9-8.4c-0.5-1.6-1.1-3.1-1.1-4.8s0.6-3.4,1.8-4.7c2.2-2.5,5.5-3.7,7.3-6.1
					c0.2-0.2,0.4-0.6,0.5-1s0.2-0.7,0.4-1.1c0.1-0.7,0.1-1.4-0.2-2.2c-0.6-1.3-1.8-2.5-2.6-4.1c-1.6-3-1.9-6.4-1.9-9.6
					c0-1.7,0.4-3.4,1-4.9c0.7-1.6,1.6-2.9,2.3-4.3s1.3-2.9,1.8-4.4c0.5-1.4,0.7-3,0.2-4.4c-0.4-1.4-1.2-2.8-2-4.2
					c-0.8-1.4-1.6-2.9-2.3-4.3c-1.3-3-1.9-6.2-2.4-9.5c-0.2-1.6-0.5-3.2-0.6-4.7c0,0.1,0.2,0.2,0.2,0.2s0,0,0.1,0
					c-0.1,0-0.2,0-0.4-0.1c-0.1,0-0.1-0.1-0.2-0.2l-0.2-0.2l-0.4-0.6c-0.1-0.4-0.4-0.7-0.5-1.1c-0.4-0.7-0.6-1.6-0.8-2.3
					c-1.1-3-2.2-6.1-2.4-9.4c-0.2-3.4,0.7-6.5,1.9-9.5c0.6-1.4,1.3-2.9,2.2-4.3c0.7-1.4,1.4-2.9,2-4.3c0.2-0.7,0.5-1.6,0.5-2.3
					c0.1-0.8,0-1.6-0.5-2.3c-0.4-0.7-1.1-1.2-1.8-1.4C607,254,606.2,253.9,605.3,254z"/>
			</g>
		</g>
		<g id="water_glare">
			<path class="st26" d="M575.5,173.3c0,0-7.6,2,4,2.2c11.4,0.1,8.8-1.9,6.1-2.6C583,172.1,575.5,173.3,575.5,173.3z"/>
			<path class="st26" d="M587.2,166.3c0,0-2,2.6-4.3,1.8s1.2,3.8,11.4,0.7C594.3,169,596.4,165,587.2,166.3z"/>
			<path class="st26" d="M611.4,176.9c0,0-22.3-3.4-16.7-4.7c5.8-1.3,9.5,0,13.3-1.8s16,0,20.3-2s18.7-0.5,18.7-0.5
				s-10.2,1.6-15.7,2.9c-5.5,1.3-5.5,2.6-7.8,4.4C621.2,176.9,611.4,176.9,611.4,176.9z"/>
			<path class="st26" d="M635,193c0,0-4.7,3.2-15,1.8s-7.9-0.2-10.2-1.4c-2.4-1.2-6.6-0.6-2.4-1.2c4.2-0.6,6.6-3.1,7.6-3.8
				s3.6,0.7,7.1,0s9,0,10.9-0.2s3.6-1.6,4.8-0.5C638.9,188.5,635,193,635,193z"/>
			<path class="st26" d="M598.3,181.8c0,0,0.2-0.7-3.8-0.7c-4.1,0-4.6-0.2-5.5-0.7c-1-0.5-3.6-1.8-1.4-1.8c2.2,0,5.5-1.1,6.8,0
				s3.7,0.7,5.3,1.8C601.2,181.3,598.3,181.8,598.3,181.8z"/>
			<path class="st26" d="M598.1,206c0,0,8.3,3.4,12.6,1.8c4.3-1.6,6.4,0.5,4.3-1.6c-2-2,0.8-3.4-5.8-2c-6.6,1.2-10,0.5-10,0.5
				L598.1,206z"/>
			<path class="st26" d="M622.1,201c0,0-12.5,1.8-0.4,2.6s10.8-3.4,9.1-3.6C629.2,199.7,622.1,201,622.1,201z"/>
			<path class="st26" d="M646.7,176.5c0,0,2-2.6,4.3-1.8s-1.2-3.8-11.4-0.7C639.7,173.9,637.5,177.9,646.7,176.5z"/>
		</g>
	</g>
</g>
</svg>
